<?xml version="1.0" standalone="no"?>
<!DOCTYPE svg PUBLIC "-//W3C//DTD SVG 1.1//EN" "http://www.w3.org/Graphics/SVG/1.1/DTD/svg11.dtd" >
<svg xmlns="http://www.w3.org/2000/svg">
<metadata>
Created by FontPrep 20130207 at Wed Jan 21 07:08:12 2015
 By Brian Fling
(c) 2009 exljbris Font Foundry. All rights reserved.
</metadata>
<defs>
<font id="2286ef2954c089a20ebe1620607ef99d" horiz-adv-x='1024' >
  <font-face 
    font-family="Calluna-Light"
    font-weight="300"
    font-stretch="normal"
    units-per-em="2048"
    panose-1="0 0 4 0 0 0 0 0 0 0"
    ascent="1536"
    descent="-512"
    x-height="926"
    cap-height="1374"
    bbox="-319 -512 2279 1913"
    underline-thickness="102"
    underline-position="-102"
    unicode-range="U+0020-FB06"
  />
<missing-glyph horiz-adv-x="1413" 
d="M92 -109v1584h1229v-1584h-1229zM246 301l82 -84l379 381l378 -381l82 84l-379 379l379 381l-80 84l-380 -383l-381 383l-80 -84l379 -381z" />
    <glyph glyph-name="f_b" unicode="fb" horiz-adv-x="1669" 
d="M1085 45q158 1 257 107q100 106 100 278t-79 291t-214 119q-73 0 -141 -32t-88 -60v-672q72 -31 165 -31zM209 182v641h-131v51l131 46v53q0 238 109 375q110 137 321 137q92 0 156 -25l139 47l6 -6q-20 -76 -20 -233v-344q0 -106 -9 -140q39 45 68 73q29 29 92 57
t137 28q178 0 278 -132t101 -328q0 -196 -134 -352q-134 -155 -380 -155q-59 1 -165 13t-136 12l-6 6q18 80 18 205v1016q0 53 -2 71q-16 4 -92 50t-164 47q-182 0 -182 -363v-114h266l-14 -89h-234l-18 -20v-627l-10 -110l223 -19l-8 -47l-471 -12v55q131 14 131 133z" />
    <glyph glyph-name="f_f_b" unicode="ffb" horiz-adv-x="2242" 
d="M344 979v-66h438v60q0 150 47 266q-23 6 -101 56t-150 51q-118 0 -176 -85t-58 -282zM1659 45q158 1 257 107t99 278t-79 291t-214 119q-74 0 -142 -32t-89 -60v-672q74 -31 168 -31zM782 182v645h-420l-18 -18v-627l-10 -110l176 -19l-8 -47l-424 -12v55q131 14 131 133
v641h-131v51l131 46q1 237 121 376t340 140q72 0 136 -22t93 -56q115 127 313 127q84 0 152 -25l141 47l6 -6q-20 -76 -20 -233v-344q0 -106 -8 -140q41 47 68 73q28 25 93 55t138 30q176 0 277 -132t101 -328t-134 -352q-136 -155 -379 -155q-59 1 -165 13t-136 12l-7 6
q16 106 17 205v1016q0 51 -2 71q-25 6 -61 31q-93 64 -187 65t-141 -83t-47 -279v-114h266l-17 -89h-231l-18 -20v-627l-11 -110l223 -19l-8 -47l-471 -12v55q131 14 131 133z" />
    <glyph glyph-name="f_f_h" unicode="ffh" horiz-adv-x="2301" 
d="M344 979v-66h426l12 5v55q0 150 47 266q-23 6 -101 56t-150 51q-118 0 -176 -85t-58 -282zM782 182v645h-420l-18 -18v-627l-10 -110l176 -19l-8 -47l-424 -12v55q131 14 131 133v641h-131v51l131 46q0 238 121 376t340 140q72 0 136 -22t93 -56q115 127 313 127
q84 0 152 -25l141 47l6 -6q-20 -76 -20 -233v-412q0 -73 -4 -105t-4 -36q63 94 171 161t228 66q231 0 232 -276v-484l-11 -110l176 -19l-8 -47l-432 -12v55q139 14 139 133v451q0 205 -151 205q-76 0 -170 -46t-166 -116v-494l-10 -110l190 -19l-8 -47l-436 -12v55
q129 14 129 133v1045q0 51 -2 71q-25 6 -61 31q-93 64 -187 65t-141 -83t-47 -279v-114h266l-17 -89h-231l-18 -20v-627l-11 -110l174 -19l-8 -47l-422 -12v55q131 14 131 133z" />
    <glyph glyph-name="f_f_j" unicode="ffj" horiz-adv-x="1644" 
d="M344 979v-66h438v64q0 152 49 262q-23 6 -103 56t-150 51q-118 0 -176 -85t-58 -282zM782 182v645h-420l-18 -18v-627l-10 -110l176 -19l-8 -47l-424 -12v55q131 14 131 133v641h-131v51l131 46q0 238 121 376t340 140q76 0 142 -22t91 -60q115 131 307 131q90 0 157 -31
t67 -82q0 -27 -20 -47t-56 -20q-35 0 -106 43t-132 43q-102 0 -152 -83t-50 -276v-119h290q201 0 305 58v-6q-25 -55 -24 -222v-700q0 -246 -85 -387t-241 -141l-24 45q83 12 149 124t66 263v739q0 51 -2 77q-5 64 -52 64h-364l-18 -18v-627l-11 -110l215 -19l-8 -47
l-463 -12v55q131 14 131 133z" />
    <glyph glyph-name="f_f_k" unicode="ffk" horiz-adv-x="2201" 
d="M344 979v-66h426l12 5v55q0 150 47 266q-23 6 -101 56t-150 51q-118 0 -176 -85t-58 -282zM782 182v645h-420l-18 -18v-627l-10 -110l176 -19l-8 -47l-424 -12v55q131 14 131 133v641h-131v51l131 46q1 237 121 376t340 140q72 0 136 -22t93 -56q115 127 313 127
q84 0 152 -25l141 47l6 -6q-20 -76 -20 -233v-723h22l209 172q4 4 18 16q60 49 60 84t-67 53v48h366l10 -33q-111 -25 -215 -113l-254 -213v-18q20 -27 35 -41l312 -316q75 -80 105 -99t91 -26l23 -2l-8 -57l-269 -6q-27 76 -90 141l-326 348h-22v-301l-10 -110l172 -19
l-8 -47l-418 -12v55q129 14 129 133v1045q0 51 -2 71q-25 6 -61 31q-93 64 -187 65t-141 -83t-47 -279v-114h266l-17 -89h-231l-18 -20v-627l-11 -110l174 -19l-8 -47l-422 -12v55q131 14 131 133z" />
    <glyph glyph-name="f_h" unicode="fh" horiz-adv-x="1728" 
d="M784 182v1045q0 51 -2 71q-18 4 -93 50t-163 47q-182 0 -182 -363v-114h266l-14 -89h-234l-18 -20v-627l-10 -110l176 -19l-8 -47l-424 -12v55q131 14 131 133v641h-131v51l131 46v53q0 238 109 375q110 137 321 137q84 0 152 -25l143 47l6 -6q-20 -76 -20 -233v-412
q0 -84 -4 -110q-4 -27 -5 -31q61 91 169 159t231 68q229 0 229 -276v-484l-10 -110l178 -19l-8 -47l-434 -12v55q139 14 139 133v451q0 205 -150 205q-78 0 -172 -46t-163 -116v-494l-11 -110l189 -19l-8 -47l-437 -12v55q131 14 131 133z" />
    <glyph glyph-name="f_k" unicode="fk" horiz-adv-x="1628" 
d="M784 182v1045q0 51 -2 71q-18 4 -93 50t-163 47q-182 0 -182 -363v-114h266l-14 -89h-234l-18 -20v-627l-10 -110l176 -19l-8 -47l-424 -12v55q131 14 131 133v641h-131v51l131 46v53q0 238 109 375q110 137 321 137q84 0 152 -25l143 47l6 -6q-20 -76 -20 -233v-723h20
l209 172q4 4 23 20q57 47 57 81t-70 52v48h367l10 -33q-109 -25 -215 -113l-252 -213v-18q18 -27 35 -41l311 -316q76 -80 105 -99t90 -26l22 -2l-8 -57l-268 -6q-27 76 -88 141l-328 348h-20v-301l-11 -110l170 -19l-8 -47l-418 -12v55q131 14 131 133z" />
    <glyph glyph-name="ff" unicode="ff" horiz-adv-x="1224" 
d="M344 979v-66h438v60q0 154 43 268q-18 4 -97 54t-150 51q-118 0 -176 -85t-58 -282zM782 182v645h-420l-18 -18v-627l-10 -110l176 -19l-8 -47l-424 -12v55q131 14 131 133v641h-131v51l131 46q1 237 121 376t340 140q162 0 225 -74q106 123 289 123q80 0 141 -29t61 -84
q0 -27 -20 -47t-51 -20t-97 45t-143 45q-78 0 -118 -84t-39 -279v-114h296l-16 -89h-262l-18 -20v-627l-11 -110l215 -19l-8 -47l-463 -12v55q131 14 131 133z" />
    <glyph glyph-name="fi" unicode="fi" horiz-adv-x="1114" 
d="M209 182v641h-131v51l131 46v57q0 229 115 369t313 139q92 0 158 -31t65 -82q0 -27 -19 -47t-55 -20t-106 43t-133 43q-103 0 -153 -83t-50 -276v-119h293q199 0 303 58v-6q-23 -68 -22 -234v-549l-11 -110l174 -19l-8 -47l-418 -12v55q127 14 127 133v504q0 97 -16 119
t-45 22h-359l-18 -18v-627l-10 -110l178 -19l-8 -47l-426 -12v55q131 14 131 133z" />
    <glyph glyph-name="fl" unicode="fl" horiz-adv-x="1118" 
d="M782 182v1045q0 51 -2 71q-24 6 -60 31q-91 64 -186 65q-94 1 -142 -83t-48 -279v-114h266l-14 -89h-234l-18 -20v-627l-10 -110l176 -19l-8 -47l-424 -12v55q131 14 131 133v641h-131v51l131 46v53q0 238 109 375q110 137 321 137q84 0 152 -25l141 47l6 -6
q-20 -76 -20 -233v-1086l-11 -110l176 -19l-8 -47l-424 -12v55q131 14 131 133z" />
    <glyph glyph-name="f_f_i" unicode="ffi" horiz-adv-x="1685" 
d="M344 979v-66h438v64q0 150 49 260q-20 6 -56 35q-90 73 -202 72q-113 -2 -171 -86t-58 -279zM782 182v645h-420l-18 -18v-627l-10 -110l176 -19l-8 -47l-424 -12v55q131 14 131 133v641h-131v51l131 46q1 233 121 373q120 141 320 141q198 0 255 -78q113 129 309 129
q88 0 152 -30t64 -81q0 -26 -18 -48t-53 -22q-34 0 -106 44q-72 43 -135 43q-102 0 -151 -83t-49 -276v-119h290q193 0 303 58l2 -6q-25 -68 -24 -234v-549l-10 -110l174 -19l-8 -47l-418 -12v55q127 14 127 133v504q0 51 -2 76t-14 45t-35 20h-367l-18 -18v-627l-11 -110
l178 -19l-8 -47l-426 -12v55q131 14 131 133z" />
    <glyph glyph-name="f_f_l" unicode="ffl" horiz-adv-x="1689" 
d="M344 979v-66h438v60q0 150 47 266q-23 6 -101 56t-150 51q-118 0 -176 -85t-58 -282zM782 182v645h-420l-18 -18v-627l-10 -110l176 -19l-8 -47l-424 -12v55q131 14 131 133v641h-131v51l131 46q0 238 121 376t340 140q72 0 136 -22t93 -56q115 127 311 127q84 0 152 -25
l141 47l6 -6q-20 -76 -20 -233v-1086l-10 -110l178 -19l-8 -47l-426 -12v55q131 14 131 133v1045q0 51 -2 71q-25 6 -60 31q-90 64 -185 65t-142 -83t-47 -279v-114h264l-15 -89h-231l-18 -20v-627l-11 -110l174 -19l-8 -47l-422 -12v55q131 14 131 133z" />
    <glyph glyph-name="f_j" unicode="fj" horiz-adv-x="1073" 
d="M209 182v641h-131v51l131 46v57q0 229 115 369t313 139q92 0 158 -31t65 -82q0 -27 -19 -47t-55 -20t-106 43t-133 43q-103 0 -153 -83t-50 -276v-119h293q193 0 303 58v-6q-23 -55 -22 -222v-700q0 -246 -86 -387t-242 -141l-25 45q86 12 152 124t65 263v739q0 55 -3 80
q-7 61 -62 61h-355l-18 -18v-627l-10 -110l215 -19l-8 -47l-463 -12v55q131 14 131 133z" />
    <glyph glyph-name=".notdef" horiz-adv-x="1413" 
d="M92 -109v1584h1229v-1584h-1229zM246 301l82 -84l379 381l378 -381l82 84l-379 379l379 381l-80 84l-380 -383l-381 383l-80 -84l379 -381z" />
    <glyph glyph-name=".null" horiz-adv-x="0" 
 />
    <glyph glyph-name="nonmarkingreturn" horiz-adv-x="681" 
 />
    <glyph glyph-name="space" unicode=" " horiz-adv-x="464" 
 />
    <glyph glyph-name="exclam" unicode="!" horiz-adv-x="550" 
d="M160 86q0 45 33 78t77 33t78 -33q33 -33 33 -78t-33 -78t-78 -33q-46 0 -78 33t-32 78zM176 1341q167 51 199 70l4 -2q-20 -61 -29 -215l-55 -854h-43z" />
    <glyph glyph-name="quotedbl" unicode="&#x22;" horiz-adv-x="667" 
d="M432 903v463h141v-76l-81 -387h-60zM131 903v463h141v-76l-82 -387h-59z" />
    <glyph glyph-name="numbersign" unicode="#" horiz-adv-x="1269" 
d="M483 676l-65 -322h338l67 322h-340zM647 -182l92 454h-338l-92 -454h-88l92 454h-254l15 82h256l67 322h-262l17 82h262l88 426h86l-88 -426h340l88 426h88l-88 -426h278l-14 -82h-281l-65 -322h284l-16 -82h-285l-92 -454h-90z" />
    <glyph glyph-name="dollar" unicode="$" horiz-adv-x="894" 
d="M236 900q0 -75 45 -126t131 -98l16 397q-86 -10 -139 -54t-53 -119zM676 233q0 131 -195 232l-16 -412q91 6 151 52t60 128zM78 176q0 24 39 148h61q0 -242 209 -269l19 449q-198 97 -254 168t-57 179q-1 109 86 191t249 97l8 184h78l-8 -180q113 -2 285 -35l-56 -281
h-61q12 90 -28 164t-142 84l-19 -436q84 -41 122 -63q37 -22 97 -66q112 -85 112 -221q-1 -135 -102 -213t-255 -88l-6 -170h-78l6 170q-125 6 -215 54t-90 134z" />
    <glyph glyph-name="percent" unicode="%" horiz-adv-x="1441" 
d="M1080 494q-88 0 -148 -66q-62 -66 -62 -155t62 -153t148 -65q87 0 148 65q60 66 60 154t-60 154t-148 66zM780 274q0 125 88 213t212 88t212 -88t88 -213t-88 -213t-212 -88t-212 88t-88 213zM193 0l954 1372l76 -53l-918 -1319h-112zM158 1036q0 -88 60 -154t148 -65
q88 0 148 66q61 65 61 153t-61 154t-148 66t-148 -66q-60 -66 -60 -154zM66 1036q0 125 88 214t212 89t212 -89t88 -214t-88 -213t-212 -88t-212 88t-88 213z" />
    <glyph glyph-name="ampersand" unicode="&#x26;" horiz-adv-x="1331" 
d="M414 1128q0 -135 110 -335q180 147 181 303q0 121 -59 187q-36 40 -96 40q-60 1 -98 -53t-38 -142zM520 63q162 0 299 115q-217 199 -389 481q-197 -145 -197 -286t81 -225t206 -85zM270 1077q0 133 78 223t226 90t219 -73q69 -74 69 -156t-22 -138q-22 -57 -72 -111
q-51 -54 -90 -87t-119 -92q141 -231 359 -459q172 209 172 467q0 113 -134 129v48h285l10 -31q-18 -35 -71 -201q-98 -309 -215 -463q205 -205 323 -264l-28 -39q-172 29 -383 207q-162 -152 -400 -152q-155 0 -275 89t-120 247t131 264q59 50 119 91q59 40 67 47
q-129 231 -129 364z" />
    <glyph glyph-name="quotesingle" unicode="'" horiz-adv-x="366" 
d="M131 903v463h135v-76l-63 -387h-72z" />
    <glyph glyph-name="parenleft" unicode="(" horiz-adv-x="573" 
d="M100 549q0 156 33 298t79 237q98 203 171 280l33 35l65 -23q-33 -46 -80 -139q-47 -94 -79 -183q-32 -88 -60 -226q-55 -279 3 -571q44 -215 159 -426q43 -79 72 -118l30 -37l-59 -26q-143 142 -239 336q-48 98 -88 252t-40 311z" />
    <glyph glyph-name="parenright" unicode=")" horiz-adv-x="577" 
d="M342 546q0 273 -80 485q-80 211 -143 312l-27 37l66 19q45 -45 105 -136q61 -90 103 -181t76 -234t35 -299q0 -157 -38 -309t-92 -254q-115 -217 -204 -297l-37 -39l-59 26q39 45 96 144q58 98 97 193q38 95 70 243q32 146 32 290z" />
    <glyph glyph-name="asterisk" unicode="*" horiz-adv-x="1017" 
d="M573 1036q6 20 25 35l182 164q26 14 48 2q22 -11 34 -31t11 -51t-23 -39l-234 -74zM231 762q-25 -14 -47 -2q-46 24 -46 69q0 44 22 52l235 73l43 4q-6 -16 -24 -32zM780 760l-182 166l-25 32q18 4 43 -4l232 -73q26 -8 26 -39q1 -60 -48 -84q-23 -12 -46 2zM164 1116
q-25 8 -26 50t47 72q24 13 46 -1l183 -166q10 -8 24 -35q-18 -2 -43 6zM506 588q-26 0 -50 14t-18 39l51 240l17 39q12 -14 16 -39l51 -240q6 -25 -18 -39t-49 -14zM506 1409q24 0 50 -14q24 -14 17 -39l-51 -240l-16 -41q-12 16 -17 41l-51 240q-6 25 19 39t49 14z" />
    <glyph glyph-name="plus" unicode="+" 
d="M78 459v100h403v434h109v-434h397v-100h-397v-459h-109v459h-403z" />
    <glyph glyph-name="comma" unicode="," horiz-adv-x="466" 
d="M348 13q0 -127 -47 -201t-141 -148l-45 45q135 113 135 209t-129 166v59l141 76q86 -80 86 -206z" />
    <glyph glyph-name="hyphen" unicode="-" horiz-adv-x="720" 
d="M129 446v125h463v-125h-463z" />
    <glyph glyph-name="period" unicode="." horiz-adv-x="471" 
d="M125 86q0 45 32 78t78 33q47 0 79 -33t32 -78t-33 -78t-79 -33t-77 33q-32 33 -32 78z" />
    <glyph glyph-name="slash" unicode="/" horiz-adv-x="722" 
d="M-47 -401l682 1767h121l-680 -1767h-123z" />
    <glyph glyph-name="zero" unicode="0" horiz-adv-x="1146" 
d="M565 -25q-211 1 -325 147t-115 351q0 205 122 357t335 153q212 0 326 -140t114 -345t-123 -364t-334 -159zM573 59q133 0 220 131q86 132 86 296t-87 288q-88 124 -220 125q-132 0 -218 -126t-86 -290t86 -294t219 -130z" />
    <glyph glyph-name="one" unicode="1" horiz-adv-x="735" 
d="M123 55q96 0 134 30t38 101v586q0 72 -37 96t-145 25v65h505l-8 -61l-182 -23v-688l-10 -108l211 -21l-8 -57l-498 -10v65z" />
    <glyph glyph-name="two" unicode="2" horiz-adv-x="944" 
d="M565 684q0 94 -51 139t-131 45q-121 0 -240 -94l-37 41q14 21 52 55q127 113 286 113q109 0 194 -63t85 -189q0 -236 -430 -604h307q100 0 144 55q34 41 63 119h49l-63 -301h-666l-14 59q209 188 284 281q168 195 168 344z" />
    <glyph glyph-name="three" unicode="3" horiz-adv-x="819" 
d="M555 64q0 116 -93 170t-222 55l-60 -4v90q117 12 223 98t107 215q0 84 -47 138t-117 54t-128 -26q-60 -27 -93 -53l-33 -27l-39 43q14 18 40 46t111 74q86 46 194 46t188 -68t80 -179q0 -110 -96 -214t-205 -149q161 -16 253 -95t92 -198t-54 -215q-56 -97 -146 -151
q-181 -110 -391 -107l-39 2l-12 65q173 -4 320 76q75 41 121 119q46 79 46 195z" />
    <glyph glyph-name="four" unicode="4" horiz-adv-x="1034" 
d="M608 178v428q0 55 8 133l-432 -561h424zM743 178h226l-25 -104h-201v-342q0 -63 -10 -113l-127 -12l-8 6q10 35 10 108v353h-542l-15 57l639 832l68 26l2 -8q-16 -78 -17 -223v-580z" />
    <glyph glyph-name="five" unicode="5" horiz-adv-x="841" 
d="M592 26q0 145 -97 227q-97 80 -199 107q-101 27 -167 37l-27 2l29 559h416l143 13l-28 -140h-463l-17 -319q12 -2 57 -7t130 -34q160 -56 259 -149q46 -45 78 -114t31 -151q0 -184 -174 -317t-401 -133l-60 2l-12 65q214 -4 358 102t144 250z" />
    <glyph glyph-name="six" unicode="6" horiz-adv-x="1044" 
d="M621 870q171 0 253 -122t82 -306q0 -182 -110 -324t-308 -143q-198 0 -308 172t-109 426q0 316 173 556q85 118 225 190t315 72l12 -68q-147 -6 -261 -73q-113 -67 -179 -173q-132 -213 -132 -459q0 -247 82 -413t213 -166q109 1 173 109t65 222q0 214 -92 336
q-92 121 -289 46l-14 59q100 59 209 59z" />
    <glyph glyph-name="seven" unicode="7" horiz-adv-x="960" 
d="M772 834q-88 -9 -432 -9q-133 0 -165 -18t-64 -111h-50l56 262h657l133 9l11 -54q-61 -72 -95 -147l-436 -985q-14 -32 -41 -96q-33 -78 -82 -78q-66 0 -65 59q0 33 63 135q162 262 352 680z" />
    <glyph glyph-name="eight" unicode="8" horiz-adv-x="1026" 
d="M526 1325q-82 -1 -150 -59t-69 -147t59 -163t175 -165q184 125 184 301q0 109 -58 171q-59 62 -141 62zM262 340q0 -139 72 -219t173 -80t183 68t82 177t-94 208q-66 68 -142 128q-77 60 -87 68q-187 -139 -187 -350zM117 324q0 133 72 223q73 90 210 178
q-111 92 -171 174t-60 178q0 133 105 223t259 90t244 -78q90 -79 90 -212t-90 -215q-65 -59 -117 -90q-53 -31 -59 -35t-10 -6q88 -70 121 -98t93 -89q109 -111 108 -242q0 -132 -120 -241t-284 -109t-278 88q-113 89 -113 261z" />
    <glyph glyph-name="nine" unicode="9" horiz-adv-x="1085" 
d="M803 373q0 223 -82 386t-213 163q-102 0 -166 -111t-63 -270q0 -159 93 -281q93 -121 279 -43l13 -59q-94 -59 -207 -60q-166 0 -246 121t-80 300t109 321q110 142 304 143q194 0 304 -169t108 -417q0 -307 -173 -539q-85 -114 -224 -183t-315 -68l-13 67q147 4 261 68
q203 113 278 386q33 118 33 245z" />
    <glyph glyph-name="colon" unicode=":" horiz-adv-x="555" 
d="M168 86q0 45 33 78t78 33t77 -33t31 -78q0 -45 -32 -78q-33 -33 -77 -33t-77 33t-33 78zM168 799q0 45 33 78t78 33t77 -34q32 -32 31 -77q0 -45 -32 -78q-33 -33 -77 -33t-77 33t-33 78z" />
    <glyph glyph-name="semicolon" unicode=";" horiz-adv-x="552" 
d="M166 799q0 45 32 78t78 33t78 -34q33 -32 33 -77t-33 -78t-79 -33q-45 0 -77 33t-32 78zM393 13q0 -127 -47 -201t-141 -148l-45 45q135 113 135 209t-129 166v59l141 76q86 -80 86 -206z" />
    <glyph glyph-name="less" unicode="&#x3c;" 
d="M61 459v94l873 469l27 -109l-771 -407l771 -428l-27 -107z" />
    <glyph glyph-name="equal" unicode="=" 
d="M70 262v103h925v-103h-925zM70 662v102h925v-102h-925z" />
    <glyph glyph-name="greater" unicode="&#x3e;" 
d="M104 78l770 428l-770 407l27 109l873 -469v-94l-873 -488z" />
    <glyph glyph-name="question" unicode="?" horiz-adv-x="696" 
d="M154 86q0 45 32 78q33 33 79 33t78 -33t32 -78t-32 -78t-78 -33t-79 33q-32 33 -32 78zM223 462q0 76 43 168t95 145q139 144 139 210q0 65 -100 139t-199 115l-101 41l27 150q20 -8 56 -22t126 -57q90 -44 159 -90t125 -112t56 -120t-38 -106q-38 -51 -92 -107
t-109 -120q-56 -64 -94 -156q-38 -93 -37 -200h-46q-10 46 -10 122z" />
    <glyph glyph-name="at" unicode="@" horiz-adv-x="1650" 
d="M78 375q0 338 237 589q238 251 570 250q287 0 478 -188t191 -473q0 -201 -102 -359t-315 -190l-183 -31l-4 9q16 59 17 110v84q-47 -92 -123 -146t-160 -55q-117 1 -194 101t-76 262q0 242 161 416q162 174 381 174q102 0 166 -17q-29 -102 -28 -184v-549q0 -96 77 -96
q81 0 163 78q44 41 73 126t29 201q0 277 -153 457t-431 180t-465 -206q-186 -206 -186 -519q0 -155 48 -281t127 -206q160 -162 365 -170l-20 -78q-276 12 -460 216q-183 204 -183 495zM557 385q0 -151 53 -223t125 -72q102 0 223 125v635q-19 0 -70 -12q-99 -24 -172 -81
q-159 -124 -159 -372z" />
    <glyph glyph-name="A" unicode="A" horiz-adv-x="1286" 
d="M645 1071q-16 41 -37 113l-235 -617h465zM-18 0v55q104 10 137 92l489 1215l70 14l457 -1161q23 -55 43 -93t73 -62q10 -3 43 -9l-8 -51h-90l-281 -6v67q53 3 79 19t10 59l-136 350h-508l-24 -16l-150 -395l174 -25l-8 -53h-370z" />
    <glyph glyph-name="B" unicode="B" horiz-adv-x="1214" 
d="M410 739h225q86 5 148 101q63 96 63 195t-79 180t-230 81h-109l-18 -20v-537zM537 70q257 0 333 85t76 206q0 120 -56 190q-56 69 -109 86q-105 33 -150 34t-70 1l-69 -4h-64l-18 -19v-467l-11 -112h138zM262 1169q0 76 -28 102t-144 48v47h463q237 0 349 -84t112 -215
q0 -201 -230 -334q156 -36 244 -119q37 -35 65 -95t27 -132q0 -171 -141 -279t-408 -108h-182l-278 -6v61q152 16 151 127v987z" />
    <glyph glyph-name="C" unicode="C" horiz-adv-x="1382" 
d="M100 670q0 326 211 524t531 197q95 0 428 -43l-62 -310h-65q3 150 -99 216t-241 67q-233 0 -388 -170t-155 -436q0 -265 170 -443t428 -178q117 0 221 37t150 74l47 37l27 -39q-14 -24 -67 -71q-52 -48 -103 -78t-139 -54t-202 -25q-112 0 -235 43q-278 97 -393 344
q-64 138 -64 308z" />
    <glyph glyph-name="D" unicode="D" horiz-adv-x="1515" 
d="M551 70q532 0 656 382q36 108 36 236q0 283 -160 446t-460 162h-195l-18 -20v-1092l-11 -114h152zM262 1169q0 76 -28 102t-144 48v47h545q314 0 532 -130q115 -69 180 -198t64 -307q0 -343 -230 -537t-630 -194h-162l-278 -6v61q152 16 151 127v987z" />
    <glyph glyph-name="E" unicode="E" horiz-adv-x="1183" 
d="M262 1169q0 76 -28 102t-144 48v47h828l143 8l-64 -336h-65q8 152 -42 205t-179 53h-283l-18 -20v-549h391l16 117l72 12v-350h-92v151h-369l-18 -20v-453l-11 -114h334q127 0 174 44t129 216h66l-76 -330h-637l-278 -6v61q152 16 151 127v987z" />
    <glyph glyph-name="F" unicode="F" horiz-adv-x="1069" 
d="M264 188v981q0 76 -27 102q-28 26 -145 48v47h799l145 8l-63 -336h-68q8 152 -42 205t-179 53h-254l-18 -20v-559h370l17 117l73 12v-352h-94v151h-348l-18 -18v-439l-11 -110l226 -19l-9 -53l-505 -12v61q71 8 111 43t40 90z" />
    <glyph glyph-name="G" unicode="G" horiz-adv-x="1449" 
d="M829 1321q-261 0 -411 -179t-150 -452q0 -272 182 -454t476 -183q90 0 219 27v309q0 78 -30 105t-159 45v47h408l10 -25q-8 -4 -21 -14q-13 -11 -36 -61t-23 -119v-338q-285 -53 -454 -54q-320 1 -530 181t-210 486t179 518q88 106 234 168t301 62t315 -20
q161 -22 169 -24l-61 -308h-66q-2 154 -99 218t-243 65z" />
    <glyph glyph-name="H" unicode="H" horiz-adv-x="1617" 
d="M258 188v981q0 80 -22 104q-23 24 -134 46v47h164l197 8l10 -8q-68 -74 -67 -244v-389h800l19 19v417q0 80 -23 104t-133 46v47h164l197 6l10 -8q-27 -27 -47 -96t-21 -146v-934l-10 -110l188 -19l-8 -53l-469 -12v61q70 8 111 42t41 85v473h-801l-18 -18v-449l-11 -110
l187 -19l-9 -53l-467 -12v61q72 8 112 43t40 90z" />
    <glyph glyph-name="I" unicode="I" horiz-adv-x="655" 
d="M258 180v989q0 80 -22 104q-23 24 -134 46v47h164l197 8l10 -8q-68 -74 -67 -244v-942l-11 -102l201 -19l-8 -53l-482 -12v61q68 8 110 42t42 83z" />
    <glyph glyph-name="J" unicode="J" horiz-adv-x="608" 
d="M242 88v1081q0 80 -23 104t-133 46v47h164l196 8l11 -8q-68 -78 -68 -248v-942q0 -240 -91 -375t-249 -135l-24 45q85 12 151 121t66 256z" />
    <glyph glyph-name="K" unicode="K" horiz-adv-x="1277" 
d="M258 182v987q0 80 -22 104q-23 24 -134 46v47h164l197 8l10 -8q-68 -78 -67 -248v-360h38q29 18 60 47l414 407q36 29 24 64t-78 43v47h373l10 -25q-41 -7 -125 -64q-84 -58 -161 -136l-394 -385v-15l508 -561q69 -76 97 -93t85 -24l23 -2l-8 -61h-271l-4 6
q-23 59 -161 217l-402 451h-28v-492l-11 -104l187 -19l-9 -53l-467 -12v61q70 8 111 42t41 85z" />
    <glyph glyph-name="L" unicode="L" horiz-adv-x="1148" 
d="M258 182v987q0 80 -22 104q-23 24 -134 46v47h164l197 8l10 -8q-68 -74 -67 -244v-940l-11 -112h359q127 0 177 53t132 248h67l-83 -371h-662l-264 -6v61q137 14 137 127z" />
    <glyph glyph-name="M" unicode="M" horiz-adv-x="1832" 
d="M1417 1366q165 0 205 8l10 -8q-29 -36 -49 -109q-20 -72 -18 -149l39 -932l-7 -104l185 -13l-8 -53l-463 -12v61q73 8 113 39t38 82l-47 1028l-504 -1204l-57 25l-487 1177q-4 -41 -7 -80l-38 -940l-15 -110l189 -13l-9 -53l-391 -12v61q141 16 148 127l37 987
q4 76 -24 102t-144 48v47h168l188 8l8 -8q31 -119 60 -188l337 -856q31 -86 39 -117l422 1022l45 139h37z" />
    <glyph glyph-name="N" unicode="N" horiz-adv-x="1554" 
d="M264 182v936q0 109 -33 148t-135 53v47h62l184 8q25 -47 74 -106l749 -891q45 -57 82 -113v895q0 41 -3 61q-9 59 -69 75q-36 11 -98 18v53h381l10 -25q-57 -19 -83 -51q-58 -70 -58 -160v-1140h-41l-870 1061q-45 57 -70 94v-963l-10 -110l184 -13l-8 -53l-395 -12v61
q147 16 147 127z" />
    <glyph glyph-name="O" unicode="O" horiz-adv-x="1622" 
d="M98 668q0 188 84 351t254 267t393 105q303 1 499 -185t196 -475q0 -201 -93 -373t-265 -277t-384 -106q-296 0 -490 201t-194 492zM266 719q0 -159 64 -309t193 -254q130 -104 294 -104t290 95q126 97 188 239t63 296q0 248 -155 440t-399 193q-244 0 -390 -178
q-148 -178 -148 -418z" />
    <glyph glyph-name="P" unicode="P" horiz-adv-x="1130" 
d="M264 182v987q0 76 -27 102q-28 26 -145 48v47h483q197 0 334 -75q162 -85 162 -306q0 -123 -52 -212t-136 -131q-162 -81 -340 -64v49q184 2 273 95t89 228q0 180 -126 263t-324 83h-25l-18 -20v-1094l-11 -104l195 -19l-8 -53l-475 -12v61q71 8 111 42t40 85z" />
    <glyph glyph-name="Q" unicode="Q" horiz-adv-x="1622" 
d="M266 719q0 -157 64 -309t193 -257q130 -105 294 -105t290 96t188 240q63 144 63 300t-65 300t-195 240q-131 95 -299 95q-237 0 -385 -179t-148 -421zM98 668q0 188 84 351t254 267t393 105q303 1 499 -185t196 -475q0 -252 -148 -457t-391 -272q39 -35 109 -111
t118 -127t130 -93t146 -42t103 11v-48q-102 -53 -204 -53t-180 48q-41 25 -73 47t-101 94t-109 127q-72 84 -109 101q-36 16 -89 22q-52 6 -81 12q-243 45 -395 233t-152 445z" />
    <glyph glyph-name="R" unicode="R" horiz-adv-x="1255" 
d="M412 686h178q113 0 201 80t88 215t-88 225t-277 90h-84l-18 -20v-590zM264 182v987q0 76 -27 102q-28 26 -145 48v47h438q262 0 386 -91t124 -231t-89 -241q-89 -100 -187 -150v-22l295 -428q61 -88 99 -112t91 -28l23 -2l-8 -61h-263l-8 6q-49 106 -131 225l-262 383
h-170l-18 -18v-414l-11 -104l185 -19l-8 -53l-465 -12v61q71 8 111 42t40 85z" />
    <glyph glyph-name="S" unicode="S" horiz-adv-x="1028" 
d="M207 354q0 -168 85 -238t207 -71q121 0 199 54q78 53 78 163q0 193 -227 326q-93 55 -189 112q-96 56 -162 144t-67 200q0 154 117 250t332 97q133 1 228 -19t99 -20l-61 -314h-66q20 119 -41 201t-181 82t-194 -55q-74 -56 -75 -164q0 -190 227 -315q94 -52 188 -108
t162 -145q66 -89 66 -210q0 -170 -129 -259t-301 -89t-288 54q-118 54 -116 156q0 31 41 168h68z" />
    <glyph glyph-name="T" unicode="T" horiz-adv-x="1310" 
d="M575 1296h-213q-114 0 -170 -51t-112 -207h-66l64 340q53 -12 137 -12h940q84 0 129 10l19 2l-64 -340h-65q10 154 -39 206t-177 52h-217l-18 -20v-1088l-10 -110l205 -19l-9 -53l-485 -12v61q72 8 112 43t39 90v1108z" />
    <glyph glyph-name="U" unicode="U" horiz-adv-x="1505" 
d="M211 481v688q0 80 -23 104t-133 46v47h164l197 8l10 -8q-68 -76 -68 -244v-624q0 -215 122 -328t295 -113t305 114t132 312v676q0 41 -3 61q-9 59 -69 75q-36 11 -98 18v53h390l10 -25q-6 -2 -16 -5t-32 -18q-48 -31 -69 -83q-20 -53 -20 -100v-646q0 -241 -163 -377
q-164 -136 -388 -136t-378 111q-77 55 -121 157t-44 237z" />
    <glyph glyph-name="V" unicode="V" horiz-adv-x="1259" 
d="M-4 1366h129l180 8l8 -8q-45 -100 -12 -188l313 -844q18 -57 37 -125l387 932q55 133 -100 178v47h305l6 -25q-55 -41 -131 -223l-471 -1136l-57 24l-471 1200q-16 39 -47 67t-54 38l-22 8v47z" />
    <glyph glyph-name="W" unicode="W" horiz-adv-x="1976" 
d="M-6 1366h129l182 8l8 -8q-45 -100 -12 -188l305 -824q20 -55 41 -133l285 895l-35 90q-16 39 -47 67t-53 38l-23 8v47h129l182 8l9 -8q-45 -100 -13 -188l305 -828q27 -78 39 -127l289 918q25 71 1 113t-101 65v47h303l8 -25q-23 -12 -63 -76q-39 -65 -68 -147
l-362 -1136l-66 24l-389 993l-322 -1017l-67 24l-471 1200q-16 39 -47 67t-54 38l-22 8v47z" />
    <glyph glyph-name="X" unicode="X" horiz-adv-x="1267" 
d="M27 0v55q123 10 166 80l370 541l-375 553q-26 33 -60 55t-56 29l-23 6v47h131l166 8l8 -8q-29 -82 15 -147l293 -437l274 414q63 94 -80 123v47h338l10 -31q-74 -12 -149 -116l-342 -504l-29 35l463 -680l110 -17l-8 -53h-94l-299 -8v61q66 7 80 25t-12 57l-312 467
l-354 -518l191 -25l-9 -59h-413z" />
    <glyph glyph-name="Y" unicode="Y" horiz-adv-x="1200" 
d="M530 180v424l-399 625q-47 67 -92 84l-16 6v47h94l182 8l8 -8q-41 -78 4 -147l262 -420q31 -49 62 -115l315 508q29 39 11 77t-93 50v47h328l8 -25q-86 -29 -147 -129l-379 -612v-420l-10 -102l188 -19l-8 -53l-469 -12v61q71 8 111 41t40 84z" />
    <glyph glyph-name="Z" unicode="Z" horiz-adv-x="1255" 
d="M481 1296q-131 0 -185 -49t-112 -209h-65l49 328h836l131 8l8 -74q-25 -39 -103 -145l-712 -985q-14 -18 -84 -100h559q123 0 172 50t125 226q6 16 10 25h66l-84 -371h-887l-131 -8l-13 74q43 49 113 145l719 985q12 18 44 55t38 45h-494z" />
    <glyph glyph-name="bracketleft" unicode="[" horiz-adv-x="585" 
d="M180 -313v1679h363v-84h-246v-1509h246v-86h-363z" />
    <glyph glyph-name="backslash" unicode="\" horiz-adv-x="722" 
d="M647 -401l-680 1767h121l682 -1767h-123z" />
    <glyph glyph-name="bracketright" unicode="]" horiz-adv-x="585" 
d="M43 -227h246v1509h-246v84h363v-1679h-363v86z" />
    <glyph glyph-name="asciicircum" unicode="^" horiz-adv-x="1112" 
d="M74 512l438 879h90l438 -879h-125l-360 723l-360 -723h-121z" />
    <glyph glyph-name="underscore" unicode="_" horiz-adv-x="1085" 
d="M31 -76h1024v-94h-1024v94z" />
    <glyph glyph-name="grave" unicode="`" horiz-adv-x="1024" 
d="M358 1376v56l154 -17l180 -350l-57 -33z" />
    <glyph glyph-name="a" unicode="a" horiz-adv-x="925" 
d="M334 76q86 0 260 143v238l-68 -11q-119 -18 -215 -76t-96 -163q0 -61 36 -96t83 -35zM729 176q0 -56 10 -76t54 -20t112 43l25 -39q-36 -43 -95 -76t-112 -33t-89 37t-36 111v55q-10 -20 -47 -63t-72 -70t-92 -49t-119 -21q-98 -1 -152 59t-53 140q-1 133 137 217
t324 113l70 10v2q4 152 -8 219q-29 143 -142 144q-101 0 -187 -122q-19 -28 -28 -48l-8 -19h-57l-31 144q55 41 160 75q104 33 221 33t166 -63t49 -230v-473z" />
    <glyph glyph-name="b" unicode="b" horiz-adv-x="1048" 
d="M162 1227q0 53 -3 79q-7 62 -59 62h-88v51q114 25 271 76l28 12l6 -6q-20 -76 -20 -233v-344q0 -69 -4 -103t-4 -37q41 47 68 73q28 25 93 55t138 30q178 0 278 -132t100 -328t-133 -352q-134 -155 -380 -155q-59 1 -165 13t-136 12l-7 6q16 96 17 205v1016zM465 45
q158 1 257 107t99 278t-79 291t-214 119q-74 0 -142 -32t-89 -60v-672q74 -31 168 -31z" />
    <glyph glyph-name="c" unicode="c" horiz-adv-x="892" 
d="M84 448q0 196 114 345q114 150 306 149q111 0 216 -41t105 -110q0 -27 -18 -47t-55 -19q-37 0 -73 39t-80 78t-103 39q-125 0 -198 -113q-73 -114 -73 -272t78 -274q39 -58 109 -92t150 -34t138 22q59 22 82 44l25 22l22 -37q-4 -6 -11 -18t-35 -42q-102 -109 -269 -112
q-206 1 -318 139t-112 334z" />
    <glyph glyph-name="d" unicode="d" horiz-adv-x="1093" 
d="M526 78q78 0 142 35t94 71v580q0 110 -166 110t-266 -103t-100 -281t79 -296q80 -116 217 -116zM473 -25q-185 1 -287 135t-102 328t135 350q135 154 383 154l160 -12v297q0 53 -3 79q-7 62 -59 62h-90v51q142 32 271 76l30 12l7 -6q-20 -76 -21 -233v-1078q0 -80 27 -98
t88 -18h61l-6 -51l-297 -39l-6 8q6 55 6 106v47q-34 -51 -64 -82t-92 -59t-141 -29z" />
    <glyph glyph-name="e" unicode="e" horiz-adv-x="940" 
d="M477 872q-104 0 -169 -82t-83 -210l463 59q0 23 -16 72t-36 80t-64 56q-42 25 -95 25zM84 449q0 201 120 347t300 146q140 0 244 -89t108 -243q-39 -14 -80 -20l-536 -78l-21 -25q2 -163 86 -277t250 -114q79 0 147 26t97 52l30 27l23 -37q-10 -20 -47 -60t-73 -64
t-97 -44t-127 -21q-204 0 -314 136t-110 338z" />
    <glyph glyph-name="f" unicode="f" horiz-adv-x="651" 
d="M209 182v641h-131v51l131 46v53q0 238 102 375t301 137q78 0 140 -29t61 -84q0 -27 -20 -47q-19 -20 -51 -20t-98 45t-142 45q-78 0 -118 -84t-40 -279v-114h297l-14 -89h-265l-18 -20v-627l-10 -110l215 -19l-8 -47l-463 -12v55q131 14 131 133z" />
    <glyph glyph-name="g" unicode="g" horiz-adv-x="976" 
d="M240 616q0 -108 57 -184t169 -76t166 71t54 177t-60 190q-60 83 -169 83t-163 -76t-54 -185zM543 -14q-33 8 -98 19t-87 15q-166 -96 -165 -235q-1 -94 77 -146q78 -53 197 -53t221 62t103 157q0 128 -248 181zM145 154q1 26 21 52q47 58 162 103q-108 31 -174 109
t-66 194q0 154 108 242t265 88q59 0 136 -20t124 -21h98q73 0 115 21l20 6l-16 -123h-117l-71 6q28 -23 58 -88t30 -125q0 -137 -111 -222t-266 -85q-59 0 -101 10q-59 -59 -59 -93t55 -51t134 -33l130 -26q120 -25 210 -75q110 -61 110 -175q0 -141 -159 -237t-335 -96
t-286 63t-109 190q0 127 133 203q56 32 125 60q-164 39 -164 123z" />
    <glyph glyph-name="h" unicode="h" horiz-adv-x="1134" 
d="M190 182v1045q0 97 -16 119t-45 22h-90v51q126 28 270 76l31 12l6 -6q-20 -76 -20 -233v-412q0 -84 -4 -110q-4 -27 -5 -31q61 91 169 159t231 68q229 0 229 -276v-484l-10 -110l178 -19l-8 -47l-420 -12v55q125 14 125 133v451q0 205 -149 205q-78 0 -172 -46t-164 -116
v-494l-11 -110l177 -19l-9 -47l-424 -12v55q131 14 131 133z" />
    <glyph glyph-name="i" unicode="i" horiz-adv-x="550" 
d="M264 1161q-36 0 -66 31t-30 69q0 39 30 69t66 30t67 -31q29 -31 29 -69t-30 -68q-30 -31 -66 -31zM215 182v502q0 97 -16 119t-45 22h-97v52q317 82 316 94l2 -6q-25 -68 -25 -234v-549l-10 -110l178 -19l-8 -47l-426 -12v55q131 14 131 133z" />
    <glyph glyph-name="j" unicode="j" horiz-adv-x="495" 
d="M247 1360q37 0 67 -31t30 -69t-30 -68q-30 -31 -67 -31q-38 0 -68 31q-29 31 -29 69q0 39 30 69t67 30zM199 -53v737q0 53 -3 79q-7 62 -59 62h-96v52l315 94v-6q-23 -55 -22 -222v-700q0 -246 -86 -387t-242 -141l-24 45q86 12 152 124t65 263z" />
    <glyph glyph-name="k" unicode="k" horiz-adv-x="1034" 
d="M190 182v1045q0 97 -16 119t-45 22h-90v51q126 28 270 76l31 12l6 -6q-20 -76 -20 -233v-723h20l209 172q3 4 23 20q56 46 57 81q0 34 -70 52v48h369l10 -33q-111 -25 -215 -113l-254 -213v-18q20 -27 35 -41l311 -316q76 -80 105 -99t90 -26l22 -2l-8 -57l-268 -6
q-29 74 -88 141l-328 348h-20v-301l-11 -110l170 -19l-8 -47l-418 -12v55q131 14 131 133z" />
    <glyph glyph-name="l" unicode="l" horiz-adv-x="526" 
d="M190 182v1045q0 97 -16 119t-45 22h-90v51q126 28 270 76l31 12l6 -6q-20 -76 -20 -233v-1086l-11 -110l179 -19l-9 -47l-426 -12v55q131 14 131 133z" />
    <glyph glyph-name="m" unicode="m" horiz-adv-x="1710" 
d="M213 182v502q0 97 -16 119t-45 22h-93v52q146 31 267 79l32 15l7 -6q-18 -72 -23 -254q62 95 162 163t210 68q224 0 212 -250q64 106 166 178t212 72t162 -63q53 -63 54 -213v-484l-11 -110l179 -19l-9 -47l-422 -12v55q72 8 100 41t27 92v451q0 115 -29 160
q-31 45 -105 45t-196 -72t-122 -160v-424l-10 -110l174 -21l-9 -45l-417 -12v55q72 8 100 41t27 92v451q0 115 -32 160q-31 45 -99 45t-156 -46t-162 -122v-488l-10 -110l174 -21l-8 -45l-422 -12v55q131 14 131 133z" />
    <glyph glyph-name="n" unicode="n" horiz-adv-x="1159" 
d="M215 182v502q0 97 -16 119t-45 22h-97v52q133 29 267 79l32 15l6 -6q-18 -76 -18 -258q62 95 168 165t229 70q229 0 230 -276v-484l-10 -108l178 -21l-9 -47l-419 -12v55q73 8 99 41t26 92v451q0 205 -150 205q-80 0 -174 -47t-162 -121v-488l-10 -108l176 -21l-8 -47
l-424 -12v55q131 14 131 133z" />
    <glyph glyph-name="o" unicode="o" horiz-adv-x="1075" 
d="M240 483q0 -248 131 -374q72 -70 174 -70q133 0 212 105t79 288q4 246 -130 378q-73 71 -178 71q-144 0 -216 -116t-72 -282zM84 438q0 287 198 426q110 78 271 78q213 0 326 -125t113 -327t-125 -358q-124 -157 -340 -157q-215 0 -329 130t-114 333z" />
    <glyph glyph-name="p" unicode="p" horiz-adv-x="1081" 
d="M493 43q166 0 263 105q96 104 96 282t-74 295t-204 117t-246 -103v-581q-1 -115 165 -115zM193 -254v938q-1 95 -17 118t-45 23h-86v52q158 34 262 79l31 15l6 -6q-10 -49 -20 -183q2 2 13 16q109 144 289 144q181 0 276 -133t95 -331t-134 -350q-134 -153 -390 -153
q-55 0 -145 15v-242l-11 -117h218l-9 -47q-309 -37 -444 -86v58q68 36 90 76t21 114z" />
    <glyph glyph-name="q" unicode="q" horiz-adv-x="1052" 
d="M227 485q0 -169 82 -287t213 -118q72 0 141 31t95 59v672q-76 31 -168 30q-152 0 -258 -108t-105 -279zM468 -25q-174 1 -280 135t-106 328t142 350q142 154 384 154q52 0 154 -11t143 -13l6 -7l-2 -6q0 -4 -2 -13q-2 -10 -4 -22t-3 -30t-4 -47t-3 -86v-967l-10 -115h157
l-8 -45q-223 -27 -362 -72l-43 -14v55q71 39 101 83t30 114v248q0 73 4 105t4 34q-123 -158 -298 -158z" />
    <glyph glyph-name="r" unicode="r" horiz-adv-x="741" 
d="M215 182v504q0 95 -16 117t-45 22h-97v54q151 33 269 77l34 15l7 -6q-18 -76 -23 -263q61 112 133 176t137 64q106 0 107 -84q0 -42 -26 -66t-52 -24t-51 16q-53 34 -112 -3t-130 -117v-482l-10 -110l199 -19l-9 -47l-446 -12v55q131 14 131 133z" />
    <glyph glyph-name="s" unicode="s" horiz-adv-x="784" 
d="M400 39q86 0 136 40t50 105q0 66 -49 114t-121 83t-143 73t-119 98t-50 156q0 96 84 164q84 70 246 70q108 0 213 -24l35 -11l-39 -205h-61q0 60 -23 100t-70 57t-115 19q-69 1 -109 -40q-40 -40 -40 -98t49 -104t120 -78t142 -69q72 -37 120 -103t48 -168
q0 -104 -84 -174q-85 -70 -231 -69q-77 -1 -156 17q-147 33 -147 121l23 151h59q8 -119 77 -172t155 -53z" />
    <glyph glyph-name="t" unicode="t" horiz-adv-x="692" 
d="M184 244v446l6 133h-137v51q90 18 140 64l73 221h64l6 -6q-18 -66 -19 -207v-28h330l-14 -89h-295l-19 -20v-543q0 -92 35 -137t117 -45t158 31l26 10l25 -33q-12 -12 -35 -32t-95 -52q-72 -33 -147 -33q-219 1 -219 269z" />
    <glyph glyph-name="u" unicode="u" horiz-adv-x="1136" 
d="M184 250v436q0 95 -16 117t-45 22h-76v54q146 27 244 61l39 12l8 -6q-18 -57 -19 -215v-446q0 -113 37 -157t111 -44q168 0 330 164v438q0 53 -3 78q-7 61 -59 61h-73v54q145 26 241 61l37 12l10 -6q-18 -57 -18 -215v-541q0 -80 26 -98t89 -18h59l-6 -51l-307 -41l-11 6
q20 59 21 110v113q-162 -236 -395 -236q-224 1 -224 275z" />
    <glyph glyph-name="v" unicode="v" horiz-adv-x="925" 
d="M12 918h92l172 8l9 -8q-39 -86 0 -189l159 -457q16 -49 37 -127l256 576q49 115 -100 149v48h268l10 -33q-33 -10 -77 -105l-357 -807l-69 27l-291 752q-18 46 -45 76t-45 36l-19 6v48z" />
    <glyph glyph-name="w" unicode="w" horiz-adv-x="1484" 
d="M10 918h94l168 8l9 -8q-37 -88 0 -189l168 -457q20 -63 30 -104l207 498q23 55 16 82l3 4q-15 46 -45 76t-50 36l-20 6v48h98l168 8l8 -8q-10 -26 -16 -87t14 -102l166 -446q18 -47 33 -115l231 555q25 55 -6 94t-94 53v48h266l10 -33q-39 -16 -75 -109l-338 -803l-60 27
l-245 633l-279 -660l-59 27l-291 752q-18 46 -46 76t-46 36l-19 6v48z" />
    <glyph glyph-name="x" unicode="x" horiz-adv-x="989" 
d="M590 53q72 -1 85 19t-16 57l-184 268l-256 -325l160 -19l-8 -47l-334 -12v55q78 8 141 86l254 320l-213 303q-33 46 -72 74t-61 32l-25 6v48h89l190 8l8 -8q-25 -68 29 -148l143 -211l168 211q53 80 -82 100v48h312l10 -33q-68 -10 -142 -103l-225 -282l309 -441l97 -8
l-9 -45l-368 -12v59z" />
    <glyph glyph-name="y" unicode="y" horiz-adv-x="940" 
d="M53 -406q-1 76 101 76q58 0 111 42q52 42 79 100l82 190q-10 37 -45 125l-256 625q-18 45 -49 76t-64 42v48h97l176 8l8 -8q-17 -38 -17 -92t17 -97l170 -432l41 -125l241 551q47 104 -112 147v48h278l11 -33q-39 -16 -76 -109l-371 -833q-4 -9 -29 -67
q-85 -200 -152 -275q-30 -33 -73 -60t-84 -27t-63 24t-21 56z" />
    <glyph glyph-name="z" unicode="z" horiz-adv-x="888" 
d="M332 858q-82 0 -130 -55t-67 -119h-51l37 234h514l141 8l17 -49l-62 -86q-4 -6 -8 -13l-397 -614q-23 -35 -76 -103h274q56 0 102 22t82 67t54 100l6 20h49l-55 -270h-535l-139 -8l-16 49q18 18 73 98l408 621q20 31 74 98h-295z" />
    <glyph glyph-name="braceleft" unicode="{" horiz-adv-x="712" 
d="M285 -135q0 285 -31 405q-59 229 -240 234v67q165 6 220 169q51 150 51 321v129q0 166 111 247q112 81 298 81l11 -70q-187 -12 -239 -88t-52 -279q0 -453 -228 -540v-4q94 -37 161 -171t67 -365t52 -305t239 -89l-11 -70q-409 0 -409 328z" />
    <glyph glyph-name="bar" unicode="|" horiz-adv-x="471" 
d="M178 -461v1995h115v-1995h-115z" />
    <glyph glyph-name="braceright" unicode="}" horiz-adv-x="714" 
d="M301 0q0 230 67 366q67 134 160 171v4q-227 88 -227 540q0 105 -9 163q-21 138 -127 176q-58 22 -157 28l10 70q186 0 299 -81t113 -247q0 -274 31 -389q57 -225 239 -230v-67q-103 -4 -173 -84q-44 -52 -70 -170q-27 -118 -27 -204v-181q0 -328 -412 -328l-10 70
q188 15 240 89t53 304z" />
    <glyph glyph-name="asciitilde" unicode="~" horiz-adv-x="1206" 
d="M141 362q0 160 68 235t188 75t199 -75q32 -31 62 -63q71 -76 149 -76q78 1 111 64t32 142h113q0 -160 -68 -235t-186 -75q-80 0 -141 34q-60 34 -92 73q-87 108 -172 107q-86 -1 -118 -64t-32 -142h-113z" />
    <glyph glyph-name="uni00A0" unicode="&#xa0;" horiz-adv-x="464" 
 />
    <glyph glyph-name="exclamdown" unicode="&#xa1;" horiz-adv-x="540" 
d="M385 831q0 -45 -33 -77t-78 -33q-46 0 -78 33q-32 34 -32 78t33 77t77 33t78 -33q33 -33 33 -78zM369 -424q-175 -53 -199 -70l-4 2q20 63 31 216l53 854h43z" />
    <glyph glyph-name="cent" unicode="&#xa2;" horiz-adv-x="870" 
d="M217 626q0 -108 50 -194t147 -125l32 621q-104 -10 -166 -102t-63 -200zM84 568q0 161 96 288t269 139l10 183h78l-11 -183q100 -8 186 -48t87 -97q0 -70 -81 -72q-40 0 -97 64t-99 78l-30 -633q37 -6 77 -6q135 0 232 88l20 -39q-12 -24 -45 -61q-110 -125 -289 -128h-4
l-8 -186h-78l9 192q-156 27 -239 143t-83 278z" />
    <glyph glyph-name="sterling" unicode="&#xa3;" horiz-adv-x="1026" 
d="M111 500v78h139l22 180q23 188 107 292t252 103q90 0 162 -28t71 -81q0 -34 -22 -58t-57 -24q-36 0 -97 55q-61 54 -133 54q-71 -1 -105 -65t-49 -254l-20 -174h395l-10 -78h-393v-8q-17 -199 -58 -306l-12 -39q172 -76 330 -75q233 0 274 184l15 66h57
q-28 -269 -170 -341q-63 -32 -132 -32t-177 22l-168 39q-76 16 -116 16t-107 -26l-25 55q68 34 103 114q15 34 20 71l33 260h-129z" />
    <glyph glyph-name="yen" unicode="&#xa5;" horiz-adv-x="1021" 
d="M147 553v78h244l-244 383q-31 52 -88 67v47h82l156 7l6 -7q-29 -59 4 -110l172 -277q20 -35 56 -110h2l223 352q51 82 -68 98v47h256l8 -32q-43 -6 -92 -84l-248 -381h269v-78h-307v-143h307v-78h-307v-150l-11 -110l191 -19l-8 -47l-437 -12v55q129 14 129 133v150h-295
v78h295v143h-295z" />
    <glyph glyph-name="brokenbar" unicode="&#xa6;" horiz-adv-x="444" 
d="M156 350h133v-733h-133v733zM156 668v733h133v-733h-133z" />
    <glyph glyph-name="section" unicode="&#xa7;" horiz-adv-x="954" 
d="M537 1391q92 0 175 -33t119 -66l37 -32l-32 -52q-29 29 -105 54t-153 24q-174 0 -240 -133t-33 -326l107 -585q41 -209 19 -323q-9 -46 -39 -93t-81 -68l-10 11q51 129 14 315l-129 727q-27 147 0 276t118 217t233 87zM326 -381q174 0 240 133t32 326l-106 586
q-42 212 -20 322q9 46 39 93t81 68l10 -10q-51 -129 -14 -316l129 -727q55 -324 -119 -492q-90 -87 -231 -87q-91 1 -175 33t-120 65l-37 33l33 51q30 -30 105 -54t153 -24z" />
    <glyph glyph-name="dieresis" unicode="&#xa8;" horiz-adv-x="1024" 
d="M680 1159q-39 0 -70 32t-30 71q0 38 30 70t70 32q39 0 70 -32q30 -32 30 -70t-30 -71q-30 -32 -70 -32zM342 1159q-39 0 -70 32t-30 71q0 38 30 70t70 32q39 0 69 -32q29 -32 29 -70t-30 -71q-30 -32 -68 -32z" />
    <glyph glyph-name="copyright" unicode="&#xa9;" horiz-adv-x="1560" 
d="M379 670q0 176 113 308t319 132q83 0 163 -26q81 -26 95 -29l-35 -211h-59q4 199 -195 198q-114 0 -188 -93t-74 -241t90 -245q90 -96 230 -96q61 -1 121 25t90 52l30 27l23 -55q-43 -64 -133 -104t-170 -40q-172 0 -296 111t-124 287zM166 682q0 -260 178 -443t436 -183
t438 182q180 184 179 444q0 260 -179 443q-180 183 -438 183t-436 -182q-178 -184 -178 -444zM74 682q0 293 207 500t499 207t500 -207q207 -207 207 -500t-207 -500t-500 -207q-294 0 -500 207t-206 500z" />
    <glyph glyph-name="ordfeminine" unicode="&#xaa;" horiz-adv-x="792" 
d="M229 879q1 -43 19 -67t48 -24t70 24t64 48l25 25v159q-88 -10 -157 -54t-69 -111zM600 793q33 0 86 38l27 -36q-74 -82 -152 -82q-100 0 -100 125q-9 -14 -27 -34t-72 -56q-54 -35 -118 -35q-66 0 -106 42t-40 99q0 96 104 160t253 80v65q0 180 -86 180q-39 -1 -76 -35
t-55 -69l-17 -35h-53l-23 113q102 78 256 78q99 0 137 -45t37 -162v-330q0 -61 25 -61z" />
    <glyph glyph-name="guillemotleft" unicode="&#xab;" horiz-adv-x="1069" 
d="M479 508v8q29 20 67 53t372 373l53 -20l-275 -410q23 -27 275 -410l-53 -20q-363 371 -439 426zM84 508v8q29 20 70 56t368 370l53 -20l-274 -410q23 -27 274 -410l-53 -20q-362 371 -438 426z" />
    <glyph glyph-name="logicalnot" unicode="&#xac;" 
d="M53 690v103h914v-566h-109v463h-805z" />
    <glyph glyph-name="registered" unicode="&#xae;" horiz-adv-x="860" 
d="M381 1233v-143h49q14 2 30 20q15 18 15 53q0 70 -72 70h-22zM303 973v229q0 18 -7 24t-36 15v25h152q145 0 145 -86q0 -47 -68 -90q10 -16 29 -48l45 -65q23 -31 55 -35l-2 -27l-106 -2q-10 27 -33 62l-55 82h-41v-84l-4 -25l51 -6l-2 -24l-160 -5v29q37 4 37 31z
M143 1086q0 -122 84 -208t202 -87q118 0 203 88q85 89 85 209t-85 207t-203 87t-202 -87t-84 -209zM430 733q-146 1 -250 105t-104 249t104 249t250 106q146 0 250 -104t104 -250t-104 -250t-250 -105z" />
    <glyph glyph-name="macron" unicode="&#xaf;" horiz-adv-x="1024" 
d="M289 1212v111h446v-111h-446z" />
    <glyph glyph-name="degree" unicode="&#xb0;" horiz-adv-x="671" 
d="M336 899q-104 0 -177 72t-73 174t73 174t177 72t177 -72t73 -174t-73 -174t-177 -72zM489 1145q0 65 -45 111t-108 46q-64 0 -108 -46t-44 -112t44 -110q44 -45 110 -45q64 0 108 45t43 111z" />
    <glyph glyph-name="plusminus" unicode="&#xb1;" 
d="M55 0v100h946v-100h-946zM66 657v101h417v385h111v-385h412v-101h-412v-411h-111v411h-417z" />
    <glyph glyph-name="twosuperior" unicode="&#xb2;" horiz-adv-x="667" 
d="M434 1345q0 93 -40 127t-97 33q-117 0 -199 -75l-37 40q13 16 33 40t89 63t153 39t154 -53t71 -149q0 -96 -53 -177q-20 -33 -34 -55t-43 -59q-30 -36 -44 -53t-50 -54t-47 -48q-11 -12 -49 -50l-44 -44h239q57 0 80 24t41 87h53l-32 -211h-517l-14 49l35 33
q96 81 129 117q32 36 60 67t50 61q113 154 113 248z" />
    <glyph glyph-name="threesuperior" unicode="&#xb3;" horiz-adv-x="649" 
d="M260 756q-76 0 -146 28t-69 72q0 45 57 45q35 0 84 -49q48 -49 104 -49t106 63t50 136t-56 119t-154 46l-52 -4v68q88 4 151 61q62 57 62 121q0 100 -102 100q-92 0 -170 -53l-37 41q10 13 28 31t84 49t136 31t131 -44t61 -128q0 -54 -58 -112t-130 -103q106 -15 175 -73
t69 -138q0 -110 -102 -184t-222 -74z" />
    <glyph glyph-name="acute" unicode="&#xb4;" horiz-adv-x="1013" 
d="M389 1032l-57 33l180 350l154 17v-56z" />
    <glyph glyph-name="mu" unicode="&#xb5;" horiz-adv-x="1083" 
d="M154 688q0 134 -11 193l-4 24l156 39l8 -6q-14 -55 -14 -213v-444q0 -197 133 -197q174 0 332 168v432q0 123 -13 193l-2 24l156 39l8 -6q-14 -55 -14 -213v-531q0 -70 10 -94t59 -22h82l7 -45q-113 -53 -173 -54q-115 0 -114 113v127q-168 -240 -371 -240
q-100 0 -164 64q6 -97 43 -241t37 -185q-1 -41 -23 -70t-57 -29t-54 22t-23 48t-3 78l9 221v805z" />
    <glyph glyph-name="paragraph" unicode="&#xb6;" horiz-adv-x="1306" 
d="M668 31v295h-29q-291 0 -443 152t-153 364q0 212 155 368t431 156h434q121 0 162 8l-19 -110h-157v-1264h-109v1264h-154v-1090q0 -187 -7 -253q-7 -65 -7 -66q-33 -143 -113 -241t-198 -99q-47 0 -70 25q-22 25 -22 62t26 57q27 19 58 19l94 -16q73 0 97 92t24 277z" />
    <glyph glyph-name="periodcentered" unicode="&#xb7;" horiz-adv-x="516" 
d="M258 410q-45 0 -78 32t-33 78q0 45 33 77t78 32t78 -32t33 -77q0 -46 -33 -78t-78 -32z" />
    <glyph glyph-name="cedilla" unicode="&#xb8;" horiz-adv-x="1024" 
d="M457 -164q0 27 19 68t40 67l21 29h59q-27 -63 -27 -91t27 -46q28 -17 58 -29t57 -43t26 -76q1 -76 -65 -138t-158 -62q-47 0 -92 17t-66 36l-20 18l29 62q70 -49 131 -49q61 1 91 23t29 54q0 44 -80 76q-30 12 -54 34t-25 50z" />
    <glyph glyph-name="onesuperior" unicode="&#xb9;" horiz-adv-x="528" 
d="M227 895v549q0 60 -19 58q-9 -1 -24 -3l-131 -29l-4 58l316 92l6 -8q-16 -43 -17 -139v-578l-4 -61l162 -11l-6 -49l-438 -8v53l86 4q47 3 60 21t13 51z" />
    <glyph glyph-name="ordmasculine" unicode="&#xba;" horiz-adv-x="837" 
d="M225 1066q1 -116 51 -207t141 -91t142 73t52 193t-49 212q-50 91 -146 91t-144 -77q-47 -78 -47 -194zM748 1074q0 -142 -90 -252t-246 -109q-156 0 -238 91t-82 233q0 141 83 247t246 106t245 -87t82 -229z" />
    <glyph glyph-name="guillemotright" unicode="&#xbb;" horiz-adv-x="1071" 
d="M100 102l275 410q-23 23 -275 410l54 20q331 -338 370 -372q39 -33 68 -54v-8q-76 -55 -438 -426zM496 102l274 410q-23 23 -274 410l53 20q331 -338 370 -372q39 -33 68 -54v-8q-76 -55 -438 -426z" />
    <glyph glyph-name="onequarter" unicode="&#xbc;" horiz-adv-x="1613" 
d="M508 0h-111l803 1395l92 -29zM246 1227q0 60 -20 58q-9 -1 -23 -3l-131 -29l-4 58l315 92l6 -8q-16 -43 -16 -140v-577l-4 -62l161 -10l-6 -49l-438 -8v53l86 4q47 2 60 20t14 52v549zM1292 319v345l-270 -345h270zM1417 700v-381h139l-22 -79h-117v-121l-4 -62l109 -10
l-4 -43l-318 -8v45q92 10 92 78v121h-350l-12 69l397 512l98 23q-8 -59 -8 -144z" />
    <glyph glyph-name="onehalf" unicode="&#xbd;" horiz-adv-x="1740" 
d="M494 0h-111l803 1395l92 -29zM242 1227q0 60 -20 58q-9 -1 -23 -3l-131 -29l-5 58l316 92l6 -8q-16 -43 -16 -140v-577l-4 -62l161 -10l-6 -49l-438 -8v53l86 4q47 2 60 20t14 52v549zM1501 575q0 94 -40 127t-97 33q-117 0 -199 -76l-37 41q12 16 32 40t90 63
q69 39 153 39t155 -54q70 -54 70 -149q0 -96 -53 -176q-19 -33 -33 -55t-44 -59q-30 -36 -44 -53t-50 -54t-47 -48q-11 -12 -49 -50l-44 -44h239q57 0 80 24t41 87h53l-32 -211h-517l-14 49l37 33q107 94 133 124q26 29 54 60t50 61q113 154 113 248z" />
    <glyph glyph-name="threequarters" unicode="&#xbe;" horiz-adv-x="1591" 
d="M1266 319v345l-271 -345h271zM481 0h-110l803 1395l92 -29zM279 539q-76 -1 -146 27t-70 73t58 45q35 0 84 -49t104 -49t106 63q50 63 50 136t-56 119t-155 46l-51 -4v68q88 4 150 61t63 121q0 100 -103 100q-92 0 -170 -53l-37 41q10 12 28 30t84 50q66 31 136 31
t131 -44t62 -128q-1 -53 -59 -111t-130 -104q106 -14 176 -72t68 -139q0 -111 -101 -185t-222 -73zM1391 700v-381h139l-23 -79h-116v-121l-5 -62l109 -10l-4 -43l-317 -8v45q92 10 92 78v121h-351l-12 69l397 512l99 23q-8 -59 -8 -144z" />
    <glyph glyph-name="questiondown" unicode="&#xbf;" horiz-adv-x="653" 
d="M530 831q0 -45 -32 -77t-78 -33q-45 0 -78 33q-33 34 -33 78t32 77t79 33q46 0 78 -33t32 -78zM461 466q0 -70 -29 -144q-28 -74 -68 -126t-81 -98q-99 -112 -99 -172t100 -134t199 -114l101 -40l-25 -150q-20 8 -56 22t-126 57q-90 44 -160 90t-126 112t-56 120t38 106
t92 107t109 120q132 156 132 358h45q10 -45 10 -114z" />
    <glyph glyph-name="Agrave" unicode="&#xc0;" horiz-adv-x="1286" 
d="M385 1616v47l59 94h11l352 -211l-23 -61zM645 1071q-16 41 -37 113l-235 -617h465zM-18 0v55q104 10 137 92l489 1215l70 14l457 -1161q23 -55 43 -93t73 -62q10 -3 43 -9l-8 -51h-90l-281 -6v67q53 3 79 19t10 59l-136 350h-508l-24 -16l-150 -395l174 -25l-8 -53h-370z
" />
    <glyph glyph-name="Aacute" unicode="&#xc1;" horiz-adv-x="1286" 
d="M481 1546l353 211h10l59 -94v-47l-399 -131zM645 1071q-16 41 -37 113l-235 -617h465zM-18 0v55q104 10 137 92l489 1215l70 14l457 -1161q23 -55 43 -93t73 -62q10 -3 43 -9l-8 -51h-90l-281 -6v67q53 3 79 19t10 59l-136 350h-508l-24 -16l-150 -395l174 -25l-8 -53
h-370z" />
    <glyph glyph-name="Acircumflex" unicode="&#xc2;" horiz-adv-x="1286" 
d="M332 1513l264 271h96l262 -271l-49 -43l-260 175h-4l-260 -175zM645 1071q-16 41 -37 113l-235 -617h465zM-18 0v55q104 10 137 92l489 1215l70 14l457 -1161q23 -55 43 -93t73 -62q10 -3 43 -9l-8 -51h-90l-281 -6v67q53 3 79 19t10 59l-136 350h-508l-24 -16l-150 -395
l174 -25l-8 -53h-370z" />
    <glyph glyph-name="Atilde" unicode="&#xc3;" horiz-adv-x="1286" 
d="M824 1618q42 0 70 31t36 63l8 31l66 -4q0 -25 -16 -74t-36 -80t-63 -57t-109 -25t-172 63q-104 62 -143 62t-68 -32t-39 -62l-10 -31l-63 13q0 25 16 78q45 149 185 149q58 -1 177 -63t161 -62zM645 1071q-16 41 -37 113l-235 -617h465zM-18 0v55q104 10 137 92l489 1215
l70 14l457 -1161q23 -55 43 -93t73 -62q10 -3 43 -9l-8 -51h-90l-281 -6v67q53 3 79 19t10 59l-136 350h-508l-24 -16l-150 -395l174 -25l-8 -53h-370z" />
    <glyph glyph-name="Adieresis" unicode="&#xc4;" horiz-adv-x="1286" 
d="M770 1624q0 39 31 70q31 30 69 30t70 -30q31 -30 31 -70q0 -39 -31 -71q-31 -31 -70 -31q-40 0 -70 32t-30 70zM311 1624q0 39 31 70q31 30 70 30q40 0 70 -30t30 -70q0 -39 -31 -71q-31 -31 -69 -31t-70 32q-31 32 -31 70zM645 1071q-16 41 -37 113l-235 -617h465z
M-18 0v55q104 10 137 92l489 1215l70 14l457 -1161q23 -55 43 -93t73 -62q10 -3 43 -9l-8 -51h-90l-281 -6v67q53 3 79 19t10 59l-136 350h-508l-24 -16l-150 -395l174 -25l-8 -53h-370z" />
    <glyph glyph-name="Aring" unicode="&#xc5;" horiz-adv-x="1286" 
d="M643 1524q47 0 74 28t27 69q0 40 -26 69q-26 28 -75 28t-74 -28t-25 -69q0 -40 26 -69q26 -28 73 -28zM643 1458q-90 0 -139 48t-49 115t49 115t139 48t139 -48t49 -115t-49 -115t-139 -48zM645 1071q-16 41 -37 113l-235 -617h465zM-18 0v55q104 10 137 92l489 1215
l70 14l457 -1161q23 -55 43 -93t73 -62q10 -3 43 -9l-8 -51h-90l-281 -6v67q53 3 79 19t10 59l-136 350h-508l-24 -16l-150 -395l174 -25l-8 -53h-370z" />
    <glyph glyph-name="AE" unicode="&#xc6;" horiz-adv-x="1798" 
d="M874 707v579q-48 -14 -83 -86l-277 -493h360zM-33 0v55q41 5 71 21t41 30t25 41l590 1061q27 41 13 66t-93 45v47h918l143 8l-63 -336h-66q8 152 -42 205t-179 53h-283l-20 -20v-569h393l17 137l71 12v-350h-92v131h-369l-20 -21v-432l-10 -114h336q127 0 174 44t129 216
h65l-76 -330h-639l-276 -6v61q150 16 149 127v455h-382l-27 -19l-301 -540l174 -25l-6 -53h-365z" />
    <glyph glyph-name="Ccedilla" unicode="&#xc7;" horiz-adv-x="1382" 
d="M651 -150q0 41 66 132q-254 30 -435 208q-182 178 -182 492t211 512t531 197q95 0 428 -43l-62 -310h-65q3 150 -99 216t-241 67q-233 0 -388 -170t-155 -436q0 -265 170 -443t428 -178q117 0 221 37t150 74l47 37l27 -39q-14 -24 -67 -71q-52 -48 -103 -78t-139 -54
t-185 -25h-29q-16 -41 -16 -67q0 -41 84 -75q32 -11 58 -42t26 -76q0 -76 -66 -138t-157 -62q-47 0 -93 17t-65 36l-21 18l29 62q70 -49 131 -49q61 1 91 23t30 50q0 45 -80 80q-80 31 -80 98z" />
    <glyph glyph-name="Egrave" unicode="&#xc8;" horiz-adv-x="1183" 
d="M262 1169q0 76 -28 102t-144 48v47h828l143 8l-64 -336h-65q8 152 -42 205t-179 53h-283l-18 -20v-549h391l16 117l72 12v-350h-92v151h-369l-18 -20v-453l-11 -114h334q127 0 174 44t129 216h66l-76 -330h-637l-278 -6v61q152 16 151 127v987zM356 1616v47l60 94h10
l352 -211l-22 -61z" />
    <glyph glyph-name="Eacute" unicode="&#xc9;" horiz-adv-x="1183" 
d="M453 1546l352 211h10l59 -94v-47l-399 -131zM262 1169q0 76 -28 102t-144 48v47h828l143 8l-64 -336h-65q8 152 -42 205t-179 53h-283l-18 -20v-549h391l16 117l72 12v-350h-92v151h-369l-18 -20v-453l-11 -114h334q127 0 174 44t129 216h66l-76 -330h-637l-278 -6v61
q152 16 151 127v987z" />
    <glyph glyph-name="Ecircumflex" unicode="&#xca;" horiz-adv-x="1183" 
d="M262 1169q0 76 -28 102t-144 48v47h828l143 8l-64 -336h-65q8 152 -42 205t-179 53h-283l-18 -20v-549h391l16 117l72 12v-350h-92v151h-369l-18 -20v-453l-11 -114h334q127 0 174 44t129 216h66l-76 -330h-637l-278 -6v61q152 16 151 127v987zM303 1513l264 271h97
l262 -271l-49 -43l-261 175h-4l-260 -175z" />
    <glyph glyph-name="Edieresis" unicode="&#xcb;" horiz-adv-x="1183" 
d="M741 1624q0 39 31 70q31 30 70 30q40 0 70 -30t30 -70q0 -39 -31 -71q-31 -31 -69 -31t-70 32q-31 32 -31 70zM283 1624q0 39 30 70q31 30 70 30t70 -30t31 -70q0 -39 -32 -71q-30 -31 -69 -31t-70 31q-30 32 -30 71zM262 1169q0 76 -28 102t-144 48v47h828l143 8
l-64 -336h-65q8 152 -42 205t-179 53h-283l-18 -20v-549h391l16 117l72 12v-350h-92v151h-369l-18 -20v-453l-11 -114h334q127 0 174 44t129 216h66l-76 -330h-637l-278 -6v61q152 16 151 127v987z" />
    <glyph glyph-name="Igrave" unicode="&#xcc;" horiz-adv-x="655" 
d="M57 1616v47l60 94h10l352 -211l-22 -61zM258 180v989q0 80 -22 104q-23 24 -134 46v47h164l197 8l10 -8q-68 -74 -67 -244v-942l-11 -102l201 -19l-8 -53l-482 -12v61q68 8 110 42t42 83z" />
    <glyph glyph-name="Iacute" unicode="&#xcd;" horiz-adv-x="655" 
d="M156 1546l352 211h10l60 -94v-47l-400 -131zM258 180v989q0 80 -22 104q-23 24 -134 46v47h164l197 8l10 -8q-68 -74 -67 -244v-942l-11 -102l201 -19l-8 -53l-482 -12v61q68 8 110 42t42 83z" />
    <glyph glyph-name="Icircumflex" unicode="&#xce;" horiz-adv-x="655" 
d="M6 1513l264 271h97l262 -271l-49 -43l-261 175h-4l-260 -175zM258 180v989q0 80 -22 104q-23 24 -134 46v47h164l197 8l10 -8q-68 -74 -67 -244v-942l-11 -102l201 -19l-8 -53l-482 -12v61q68 8 110 42t42 83z" />
    <glyph glyph-name="Idieresis" unicode="&#xcf;" horiz-adv-x="655" 
d="M258 180v989q0 80 -22 104q-23 24 -134 46v47h164l197 8l10 -8q-68 -74 -67 -244v-942l-11 -102l201 -19l-8 -53l-482 -12v61q68 8 110 42t42 83zM393 1624q0 39 31 70q31 30 70 30q38 0 68 -30t30 -71q0 -40 -30 -71q-30 -30 -68 -30t-70 32q-31 32 -31 70zM37 1623
q0 40 31 71q32 30 70 30t68 -30t30 -71q0 -40 -30 -71q-30 -30 -69 -30t-69 30t-31 71z" />
    <glyph glyph-name="Eth" unicode="&#xd0;" horiz-adv-x="1517" 
d="M553 70q532 0 656 382q36 108 36 236q0 283 -161 446t-459 162h-195l-20 -20v-543h356v-78h-356v-471l-11 -114h154zM74 655v78h188v436q0 76 -26 102q-27 26 -144 48v47h545q314 0 532 -130q115 -69 180 -198t64 -307q0 -343 -230 -537t-630 -194h-162l-278 -6v61
q150 16 149 127v473h-188z" />
    <glyph glyph-name="Ntilde" unicode="&#xd1;" horiz-adv-x="1554" 
d="M642 1743q58 -1 176 -63q120 -62 162 -62t70 31t35 63l9 31l65 -4q0 -28 -15 -76q-16 -47 -36 -78t-64 -57t-110 -25t-170 63t-143 62t-68 -32t-39 -62l-10 -31l-64 13q0 26 17 78q25 84 89 124q38 24 96 25zM264 182v936q0 109 -33 148t-135 53v47h62l184 8
q25 -47 74 -106l749 -891q45 -57 82 -113v895q0 41 -3 61q-9 59 -69 75q-36 11 -98 18v53h381l10 -25q-57 -19 -83 -51q-58 -70 -58 -160v-1140h-41l-870 1061q-45 57 -70 94v-963l-10 -110l184 -13l-8 -53l-395 -12v61q147 16 147 127z" />
    <glyph glyph-name="Ograve" unicode="&#xd2;" horiz-adv-x="1622" 
d="M98 668q0 188 84 351t254 267t393 105q303 1 499 -185t196 -475q0 -201 -93 -373t-265 -277t-384 -106q-296 0 -490 201t-194 492zM266 719q0 -159 64 -309t193 -254q130 -104 294 -104t290 95q126 97 188 239t63 296q0 248 -155 440t-399 193q-244 0 -390 -178
q-148 -178 -148 -418zM543 1616v47l59 94h10l353 -211l-23 -61z" />
    <glyph glyph-name="Oacute" unicode="&#xd3;" horiz-adv-x="1622" 
d="M98 668q0 188 84 351t254 267t393 105q303 1 499 -185t196 -475q0 -201 -93 -373t-265 -277t-384 -106q-296 0 -490 201t-194 492zM266 719q0 -159 64 -309t193 -254q130 -104 294 -104t290 95q126 97 188 239t63 296q0 248 -155 440t-399 193q-244 0 -390 -178
q-148 -178 -148 -418zM641 1546l352 211h11l59 -94v-47l-399 -131z" />
    <glyph glyph-name="Ocircumflex" unicode="&#xd4;" horiz-adv-x="1622" 
d="M98 668q0 188 84 351t254 267t393 105q303 1 499 -185t196 -475q0 -201 -93 -373t-265 -277t-384 -106q-296 0 -490 201t-194 492zM266 719q0 -159 64 -309t193 -254q130 -104 294 -104t290 95q126 97 188 239t63 296q0 248 -155 440t-399 193q-244 0 -390 -178
q-148 -178 -148 -418zM492 1513l264 271h96l262 -271l-49 -43l-260 175h-4l-260 -175z" />
    <glyph glyph-name="Otilde" unicode="&#xd5;" horiz-adv-x="1622" 
d="M646 1743q58 -1 176 -63q120 -62 162 -62t70 31t36 63l8 31l65 -4q0 -28 -15 -76q-16 -47 -36 -78t-63 -57t-110 -25t-171 63t-143 62t-68 -32t-39 -62l-10 -31l-64 13q0 26 17 78q45 149 185 149zM98 668q0 188 84 351t254 267t393 105q303 1 499 -185t196 -475
q0 -201 -93 -373t-265 -277t-384 -106q-296 0 -490 201t-194 492zM266 719q0 -159 64 -309t193 -254q130 -104 294 -104t290 95q126 97 188 239t63 296q0 248 -155 440t-399 193q-244 0 -390 -178q-148 -178 -148 -418z" />
    <glyph glyph-name="Odieresis" unicode="&#xd6;" horiz-adv-x="1622" 
d="M930 1624q0 39 31 70q31 30 69 30t70 -30q30 -30 30 -70q0 -39 -30 -71q-30 -31 -70 -31t-70 32t-30 70zM471 1624q0 39 31 70q32 30 70 30t69 -30t31 -70q0 -39 -31 -71q-31 -31 -70 -31t-69 32t-31 70zM98 668q0 188 84 351t254 267t393 105q303 1 499 -185t196 -475
q0 -201 -93 -373t-265 -277t-384 -106q-296 0 -490 201t-194 492zM266 719q0 -159 64 -309t193 -254q130 -104 294 -104t290 95q126 97 188 239t63 296q0 248 -155 440t-399 193q-244 0 -390 -178q-148 -178 -148 -418z" />
    <glyph glyph-name="multiply" unicode="&#xd7;" 
d="M74 895l71 78l387 -389l386 387l73 -76l-385 -387l381 -381l-74 -78l-383 383l-378 -381l-76 76l381 381z" />
    <glyph glyph-name="Oslash" unicode="&#xd8;" horiz-adv-x="1622" 
d="M799 1315q-237 0 -385 -178t-148 -429t158 -454l713 934q-143 127 -338 127zM1358 682q0 260 -160 444l-715 -938q143 -137 338 -137q160 0 286 96q127 97 189 239t62 296zM98 668q0 188 84 351t254 267t388 104t390 -100l105 137h108l-141 -186q238 -188 238 -510
q0 -201 -93 -373t-265 -277t-385 -105q-212 0 -375 108l-111 -145h-111l150 196q-236 203 -236 533z" />
    <glyph glyph-name="Ugrave" unicode="&#xd9;" horiz-adv-x="1505" 
d="M211 481v688q0 80 -23 104t-133 46v47h164l197 8l10 -8q-68 -76 -68 -244v-624q0 -215 122 -328t295 -113t305 114t132 312v676q0 41 -3 61q-9 59 -69 75q-36 11 -98 18v53h390l10 -25q-6 -2 -16 -5t-32 -18q-48 -31 -69 -83q-20 -53 -20 -100v-646q0 -241 -163 -377
q-164 -136 -388 -136t-378 111q-77 55 -121 157t-44 237zM512 1616v47l59 94h11l352 -211l-23 -61z" />
    <glyph glyph-name="Uacute" unicode="&#xda;" horiz-adv-x="1505" 
d="M610 1546l353 211h10l59 -94v-47l-399 -131zM211 481v688q0 80 -23 104t-133 46v47h164l197 8l10 -8q-68 -76 -68 -244v-624q0 -215 122 -328t295 -113t305 114t132 312v676q0 41 -3 61q-9 59 -69 75q-36 11 -98 18v53h390l10 -25q-6 -2 -16 -5t-32 -18q-48 -31 -69 -83
q-20 -53 -20 -100v-646q0 -241 -163 -377q-164 -136 -388 -136t-378 111q-77 55 -121 157t-44 237z" />
    <glyph glyph-name="Ucircumflex" unicode="&#xdb;" horiz-adv-x="1505" 
d="M211 481v688q0 80 -23 104t-133 46v47h164l197 8l10 -8q-68 -76 -68 -244v-624q0 -215 122 -328t295 -113t305 114t132 312v676q0 41 -3 61q-9 59 -69 75q-36 11 -98 18v53h390l10 -25q-6 -2 -16 -5t-32 -18q-48 -31 -69 -83q-20 -53 -20 -100v-646q0 -241 -163 -377
q-164 -136 -388 -136t-378 111q-77 55 -121 157t-44 237zM461 1513l264 271h96l262 -271l-49 -43l-260 175h-4l-260 -175z" />
    <glyph glyph-name="Udieresis" unicode="&#xdc;" horiz-adv-x="1505" 
d="M899 1624q0 39 31 70q32 30 70 30t69 -30t31 -70q0 -39 -31 -71q-31 -31 -70 -31t-69 32t-31 70zM440 1624q0 39 31 70q31 30 70 30t69 -30t31 -70q0 -39 -31 -71q-32 -31 -70 -31t-69 32t-31 70zM211 481v688q0 80 -23 104t-133 46v47h164l197 8l10 -8q-68 -76 -68 -244
v-624q0 -215 122 -328t295 -113t305 114t132 312v676q0 41 -3 61q-9 59 -69 75q-36 11 -98 18v53h390l10 -25q-6 -2 -16 -5t-32 -18q-48 -31 -69 -83q-20 -53 -20 -100v-646q0 -241 -163 -377q-164 -136 -388 -136t-378 111q-77 55 -121 157t-44 237z" />
    <glyph glyph-name="Yacute" unicode="&#xdd;" horiz-adv-x="1200" 
d="M451 1546l352 211h10l59 -94v-47l-399 -131zM530 180v424l-399 625q-47 67 -92 84l-16 6v47h94l182 8l8 -8q-41 -78 4 -147l262 -420q31 -49 62 -115l315 508q29 39 11 77t-93 50v47h328l8 -25q-86 -29 -147 -129l-379 -612v-420l-10 -102l188 -19l-8 -53l-469 -12v61
q71 8 111 41t40 84z" />
    <glyph glyph-name="Thorn" unicode="&#xde;" horiz-adv-x="1124" 
d="M899 666q0 162 -127 238t-323 75h-25l-18 -18v-781l-11 -102l201 -19l-8 -53l-482 -12v61q68 8 110 42t42 83v989q0 80 -22 104q-23 24 -134 46v47h164l197 8l10 -8q-68 -74 -67 -244v-71h172q189 0 328 -77q159 -86 159 -284q0 -104 -52 -186t-136 -122
q-158 -75 -340 -58v49q184 2 273 87t89 206z" />
    <glyph glyph-name="germandbls" unicode="&#xdf;" horiz-adv-x="1110" 
d="M465 119q0 47 29 114h57q27 -193 188 -192q76 0 138 38q61 39 61 107t-38 120t-91 95t-107 88q-129 110 -129 238q0 61 31 123t69 106q39 44 69 104t30 118q0 100 -58 153t-159 53t-156 -102t-55 -283v-890l8 -99l-6 -6l-268 -10v59q131 14 131 127v643h-131v51l131 46
v45q0 188 92 335q47 76 133 121t207 45t199 -64t78 -165q0 -57 -36 -119t-80 -106t-80 -104t-36 -115t39 -107t94 -95q55 -42 111 -88t94 -112q39 -66 39 -143q0 -135 -99 -204t-232 -69t-218 61q-49 36 -49 83z" />
    <glyph glyph-name="agrave" unicode="&#xe0;" horiz-adv-x="925" 
d="M182 1376v56l154 -17l180 -350l-57 -33zM334 76q86 0 260 143v238l-68 -11q-119 -18 -215 -76t-96 -163q0 -61 36 -96t83 -35zM729 176q0 -56 10 -76t54 -20t112 43l25 -39q-36 -43 -95 -76t-112 -33t-89 37t-36 111v55q-10 -20 -47 -63t-72 -70t-92 -49t-119 -21
q-98 -1 -152 59t-53 140q-1 133 137 217t324 113l70 10v2q4 152 -8 219q-29 143 -142 144q-101 0 -187 -122q-19 -28 -28 -48l-8 -19h-57l-31 144q55 41 160 75q104 33 221 33t166 -63t49 -230v-473z" />
    <glyph glyph-name="aacute" unicode="&#xe1;" horiz-adv-x="925" 
d="M424 1032l-57 33l180 350l153 17v-56zM334 76q86 0 260 143v238l-68 -11q-119 -18 -215 -76t-96 -163q0 -61 36 -96t83 -35zM729 176q0 -56 10 -76t54 -20t112 43l25 -39q-36 -43 -95 -76t-112 -33t-89 37t-36 111v55q-10 -20 -47 -63t-72 -70t-92 -49t-119 -21
q-98 -1 -152 59t-53 140q-1 133 137 217t324 113l70 10v2q4 152 -8 219q-29 143 -142 144q-101 0 -187 -122q-19 -28 -28 -48l-8 -19h-57l-31 144q55 41 160 75q104 33 221 33t166 -63t49 -230v-473z" />
    <glyph glyph-name="acircumflex" unicode="&#xe2;" horiz-adv-x="925" 
d="M174 1065l234 360h71l232 -360l-56 -35l-213 242l-213 -242zM334 76q86 0 260 143v238l-68 -11q-119 -18 -215 -76t-96 -163q0 -61 36 -96t83 -35zM729 176q0 -56 10 -76t54 -20t112 43l25 -39q-36 -43 -95 -76t-112 -33t-89 37t-36 111v55q-10 -20 -47 -63t-72 -70
t-92 -49t-119 -21q-98 -1 -152 59t-53 140q-1 133 137 217t324 113l70 10v2q4 152 -8 219q-29 143 -142 144q-101 0 -187 -122q-19 -28 -28 -48l-8 -19h-57l-31 144q55 41 160 75q104 33 221 33t166 -63t49 -230v-473z" />
    <glyph glyph-name="atilde" unicode="&#xe3;" horiz-adv-x="925" 
d="M156 1155v26q0 15 8 56t23 72t51 57t85 25q86 0 145 -75t102 -75t63 35t22 67l4 35h70q0 -91 -34 -159q-15 -33 -52 -60t-85 -27t-86 24t-58 52q-54 77 -109 76q-33 0 -53 -32t-23 -64l-4 -33h-69zM334 76q86 0 260 143v238l-68 -11q-119 -18 -215 -76t-96 -163
q0 -61 36 -96t83 -35zM729 176q0 -56 10 -76t54 -20t112 43l25 -39q-36 -43 -95 -76t-112 -33t-89 37t-36 111v55q-10 -20 -47 -63t-72 -70t-92 -49t-119 -21q-98 -1 -152 59t-53 140q-1 133 137 217t324 113l70 10v2q4 152 -8 219q-29 143 -142 144q-101 0 -187 -122
q-19 -28 -28 -48l-8 -19h-57l-31 144q55 41 160 75q104 33 221 33t166 -63t49 -230v-473z" />
    <glyph glyph-name="adieresis" unicode="&#xe4;" horiz-adv-x="925" 
d="M610 1159q-40 0 -70 32t-30 71q0 38 31 70t69 32t70 -32q31 -32 31 -70t-31 -71q-31 -32 -70 -32zM272 1159q-40 0 -70 32t-30 71q0 38 31 70t69 32t69 -32q30 -32 30 -70t-30 -71q-30 -32 -69 -32zM334 76q86 0 260 143v238l-68 -11q-119 -18 -215 -76t-96 -163
q0 -61 36 -96t83 -35zM729 176q0 -56 10 -76t54 -20t112 43l25 -39q-36 -43 -95 -76t-112 -33t-89 37t-36 111v55q-10 -20 -47 -63t-72 -70t-92 -49t-119 -21q-98 -1 -152 59t-53 140q-1 133 137 217t324 113l70 10v2q4 152 -8 219q-29 143 -142 144q-101 0 -187 -122
q-19 -28 -28 -48l-8 -19h-57l-31 144q55 41 160 75q104 33 221 33t166 -63t49 -230v-473z" />
    <glyph glyph-name="aring" unicode="&#xe5;" horiz-adv-x="925" 
d="M442 1161q47 0 74 31t27 72q0 40 -26 70t-75 30q-50 0 -74 -30t-24 -72t26 -71q26 -30 72 -30zM442 1098q-90 0 -139 50t-49 118t49 114t139 45q90 0 140 -46q50 -45 49 -113q1 -68 -49 -118t-140 -50zM334 76q86 0 260 143v238l-68 -11q-119 -18 -215 -76t-96 -163
q0 -61 36 -96t83 -35zM729 176q0 -56 10 -76t54 -20t112 43l25 -39q-36 -43 -95 -76t-112 -33t-89 37t-36 111v55q-10 -20 -47 -63t-72 -70t-92 -49t-119 -21q-98 -1 -152 59t-53 140q-1 133 137 217t324 113l70 10v2q4 152 -8 219q-29 143 -142 144q-101 0 -187 -122
q-19 -28 -28 -48l-8 -19h-57l-31 144q55 41 160 75q104 33 221 33t166 -63t49 -230v-473z" />
    <glyph glyph-name="ae" unicode="&#xe6;" horiz-adv-x="1449" 
d="M993 872q-109 0 -175 -89t-79 -220l457 86q0 20 -15 68q-15 49 -35 78t-62 53q-40 24 -91 24zM320 76q126 0 217 103q69 80 69 229v61q-215 -41 -297 -94q-37 -25 -67 -70t-31 -102q0 -57 33 -92t76 -35zM59 180q-1 131 147 222t402 135v51q0 141 -30 216q-31 75 -109 75
q-78 1 -134 -47t-79 -95l-23 -47h-57l-31 144q55 41 158 75q103 33 205 33t152 -35t69 -114q104 150 289 149q142 0 242 -87t102 -237q-49 -14 -80 -20l-545 -102q-2 -168 83 -284t253 -116q78 0 147 26t99 52l29 27l22 -37q-11 -23 -51 -61q-130 -126 -312 -127
q-132 -1 -228 69q-95 70 -132 209q-41 -121 -138 -200t-212 -79q-115 1 -177 61t-61 144z" />
    <glyph glyph-name="ccedilla" unicode="&#xe7;" horiz-adv-x="892" 
d="M371 -152q0 41 67 134q-170 26 -262 158t-92 318t114 335q114 150 306 149q111 0 216 -41t105 -110q0 -27 -18 -47t-55 -19q-37 0 -73 39t-80 78t-103 39q-125 0 -198 -113q-73 -114 -73 -272t78 -274q39 -58 109 -92t150 -34t138 22q59 22 82 44l25 22l22 -37
q-4 -6 -11 -18t-35 -42q-102 -109 -269 -112h-12q-18 -47 -18 -71q-1 -39 83 -73q31 -11 58 -42t26 -76q1 -76 -65 -138t-158 -62q-47 0 -92 18t-66 35l-20 18l29 62q70 -49 131 -49q61 1 91 23q29 22 29 50q-1 45 -79 80q-80 31 -80 98z" />
    <glyph glyph-name="egrave" unicode="&#xe8;" horiz-adv-x="940" 
d="M229 1376v56l154 -17l180 -350l-57 -33zM477 872q-104 0 -169 -82t-83 -210l463 59q0 23 -16 72t-36 80t-64 56q-42 25 -95 25zM84 449q0 201 120 347t300 146q140 0 244 -89t108 -243q-39 -14 -80 -20l-536 -78l-21 -25q2 -163 86 -277t250 -114q79 0 147 26t97 52
l30 27l23 -37q-10 -20 -47 -60t-73 -64t-97 -44t-127 -21q-204 0 -314 136t-110 338z" />
    <glyph glyph-name="eacute" unicode="&#xe9;" horiz-adv-x="940" 
d="M473 1032l-57 33l180 350l154 17v-56zM477 872q-104 0 -169 -82t-83 -210l463 59q0 23 -16 72t-36 80t-64 56q-42 25 -95 25zM84 449q0 201 120 347t300 146q140 0 244 -89t108 -243q-39 -14 -80 -20l-536 -78l-21 -25q2 -163 86 -277t250 -114q79 0 147 26t97 52l30 27
l23 -37q-10 -20 -47 -60t-73 -64t-97 -44t-127 -21q-204 0 -314 136t-110 338z" />
    <glyph glyph-name="ecircumflex" unicode="&#xea;" horiz-adv-x="940" 
d="M221 1065l234 360h71l232 -360l-56 -35l-213 242l-213 -242zM477 872q-104 0 -169 -82t-83 -210l463 59q0 23 -16 72t-36 80t-64 56q-42 25 -95 25zM84 449q0 201 120 347t300 146q140 0 244 -89t108 -243q-39 -14 -80 -20l-536 -78l-21 -25q2 -163 86 -277t250 -114
q79 0 147 26t97 52l30 27l23 -37q-10 -20 -47 -60t-73 -64t-97 -44t-127 -21q-204 0 -314 136t-110 338z" />
    <glyph glyph-name="edieresis" unicode="&#xeb;" horiz-adv-x="940" 
d="M319 1159q-39 0 -69 32t-31 71q0 38 31 70q32 32 70 32t68 -32t30 -70t-30 -71q-30 -32 -69 -32zM657 1159q-39 0 -69 32t-31 71q0 38 31 70q32 32 70 32t69 -32t31 -70t-31 -71q-31 -32 -70 -32zM477 872q-104 0 -169 -82t-83 -210l463 59q0 23 -16 72t-36 80t-64 56
q-42 25 -95 25zM84 449q0 201 120 347t300 146q140 0 244 -89t108 -243q-39 -14 -80 -20l-536 -78l-21 -25q2 -163 86 -277t250 -114q79 0 147 26t97 52l30 27l23 -37q-10 -20 -47 -60t-73 -64t-97 -44t-127 -21q-204 0 -314 136t-110 338z" />
    <glyph glyph-name="igrave" unicode="&#xec;" horiz-adv-x="550" 
d="M4 1376v56l154 -17l180 -350l-57 -33zM215 182v502q0 97 -16 119t-45 22h-97v52q317 82 316 94l2 -6q-25 -68 -25 -234v-549l-10 -110l178 -19l-8 -47l-426 -12v55q131 14 131 133z" />
    <glyph glyph-name="iacute" unicode="&#xed;" horiz-adv-x="550" 
d="M215 182v502q0 97 -16 119t-45 22h-97v52q317 82 316 94l2 -6q-25 -68 -25 -234v-549l-10 -110l178 -19l-8 -47l-426 -12v55q131 14 131 133zM250 1032l-57 33l180 350l153 17v-56z" />
    <glyph glyph-name="icircumflex" unicode="&#xee;" horiz-adv-x="550" 
d="M215 182v502q0 97 -16 119t-45 22h-97v52q317 82 316 94l2 -6q-25 -68 -25 -234v-549l-10 -110l178 -19l-8 -47l-426 -12v55q131 14 131 133zM-4 1065l233 360h72l231 -360l-55 -35l-213 242l-213 -242z" />
    <glyph glyph-name="idieresis" unicode="&#xef;" horiz-adv-x="550" 
d="M215 182v502q0 97 -16 119t-45 22h-97v52q317 82 316 94l2 -6q-25 -68 -25 -234v-549l-10 -110l178 -19l-8 -47l-426 -12v55q131 14 131 133zM330 1262q0 38 30 70t70 32q39 0 69 -32q29 -32 29 -70t-30 -71q-30 -32 -68 -32q-39 0 -70 32q-30 32 -30 71zM-4 1262
q0 38 31 70t69 32t70 -32q31 -32 31 -70t-31 -71q-31 -32 -70 -32q-40 0 -70 32t-30 71z" />
    <glyph glyph-name="eth" unicode="&#xf0;" horiz-adv-x="1071" 
d="M817 532q0 144 -56 244t-202 100t-237 -115q-91 -116 -91 -288t75 -303t206 -131t218 131t87 362zM965 578q0 -264 -124 -434t-332 -169q-208 0 -318 131q-109 131 -109 327q0 197 126 353t339 156q115 0 205 -39q-63 184 -193 324l-278 -172l-37 65l260 160
q-141 129 -324 186l19 47q225 -45 397 -174l266 166l37 -65l-244 -152q147 -135 229 -322t81 -388z" />
    <glyph glyph-name="ntilde" unicode="&#xf1;" horiz-adv-x="1159" 
d="M305 1155v26q0 15 8 56q17 88 75 128q36 26 84 26q86 0 145 -75t102 -75t63 35t25 67l2 35h70q0 -156 -86 -219q-37 -27 -85 -27t-86 24t-59 52q-54 78 -108 76q-33 0 -53 -32t-25 -64l-2 -33h-70zM215 182v502q0 97 -16 119t-45 22h-97v52q133 29 267 79l32 15l6 -6
q-18 -76 -18 -258q62 95 168 165t229 70q229 0 230 -276v-484l-10 -108l178 -21l-9 -47l-419 -12v55q73 8 99 41t26 92v451q0 205 -150 205q-80 0 -174 -47t-162 -121v-488l-10 -108l176 -21l-8 -47l-424 -12v55q131 14 131 133z" />
    <glyph glyph-name="ograve" unicode="&#xf2;" horiz-adv-x="1075" 
d="M272 1376v56l154 -17l180 -350l-57 -33zM240 483q0 -248 131 -374q72 -70 174 -70q133 0 212 105t79 288q4 246 -130 378q-73 71 -178 71q-144 0 -216 -116t-72 -282zM84 438q0 287 198 426q110 78 271 78q213 0 326 -125t113 -327t-125 -358q-124 -157 -340 -157
q-215 0 -329 130t-114 333z" />
    <glyph glyph-name="oacute" unicode="&#xf3;" horiz-adv-x="1075" 
d="M240 483q0 -248 131 -374q72 -70 174 -70q133 0 212 105t79 288q4 246 -130 378q-73 71 -178 71q-144 0 -216 -116t-72 -282zM84 438q0 287 198 426q110 78 271 78q213 0 326 -125t113 -327t-125 -358q-124 -157 -340 -157q-215 0 -329 130t-114 333zM514 1032l-57 33
l180 350l154 17v-56z" />
    <glyph glyph-name="ocircumflex" unicode="&#xf4;" horiz-adv-x="1075" 
d="M240 483q0 -248 131 -374q72 -70 174 -70q133 0 212 105t79 288q4 246 -130 378q-73 71 -178 71q-144 0 -216 -116t-72 -282zM84 438q0 287 198 426q110 78 271 78q213 0 326 -125t113 -327t-125 -358q-124 -157 -340 -157q-215 0 -329 130t-114 333zM262 1065l234 360
h71l232 -360l-56 -35l-213 242l-213 -242z" />
    <glyph glyph-name="otilde" unicode="&#xf5;" horiz-adv-x="1075" 
d="M244 1155v26q0 15 8 56t23 72t51 57t85 25q86 0 145 -75t102 -75t63 35t24 67l3 35h69q0 -91 -34 -159q-15 -33 -52 -60t-85 -27t-86 24t-58 52q-54 77 -109 76q-33 0 -53 -32t-25 -64l-2 -33h-69zM240 483q0 -248 131 -374q72 -70 174 -70q133 0 212 105t79 288
q4 246 -130 378q-73 71 -178 71q-144 0 -216 -116t-72 -282zM84 438q0 287 198 426q110 78 271 78q213 0 326 -125t113 -327t-125 -358q-124 -157 -340 -157q-215 0 -329 130t-114 333z" />
    <glyph glyph-name="odieresis" unicode="&#xf6;" horiz-adv-x="1075" 
d="M240 483q0 -248 131 -374q72 -70 174 -70q133 0 212 105t79 288q4 246 -130 378q-73 71 -178 71q-144 0 -216 -116t-72 -282zM84 438q0 287 198 426q110 78 271 78q213 0 326 -125t113 -327t-125 -358q-124 -157 -340 -157q-215 0 -329 130t-114 333zM698 1159
q-40 0 -70 32t-30 71q0 38 31 70t69 32t70 -32q31 -32 31 -70t-31 -71q-31 -32 -70 -32zM360 1159q-40 0 -70 32t-30 71q0 38 31 70t69 32t69 -32q30 -32 30 -70t-30 -71q-30 -32 -69 -32z" />
    <glyph glyph-name="divide" unicode="&#xf7;" 
d="M532 791q-48 -1 -82 33t-34 82t35 82t81 34t82 -34q35 -34 35 -82t-35 -82t-82 -33zM532 0q-48 0 -82 34t-34 82t35 82t81 34t82 -34q35 -34 35 -82t-35 -82t-82 -34zM74 461v100h917v-100h-917z" />
    <glyph glyph-name="oslash" unicode="&#xf8;" horiz-adv-x="1075" 
d="M551 39q127 -1 206 105t79 276t-58 291l-430 -580q76 -92 203 -92zM240 486q0 -163 59 -281l432 579q-82 96 -214 96q-133 0 -205 -115q-72 -116 -72 -279zM84 438q0 287 198 426q110 78 263 78t256 -63l76 100h100l-111 -150q125 -123 125 -331t-124 -366
q-124 -157 -349 -157q-139 0 -239 62l-74 -98h-105l113 149q-129 127 -129 350z" />
    <glyph glyph-name="ugrave" unicode="&#xf9;" horiz-adv-x="1136" 
d="M297 1376v56l154 -17l180 -350l-58 -33zM184 250v436q0 95 -16 117t-45 22h-76v54q146 27 244 61l39 12l8 -6q-18 -57 -19 -215v-446q0 -113 37 -157t111 -44q168 0 330 164v438q0 53 -3 78q-7 61 -59 61h-73v54q145 26 241 61l37 12l10 -6q-18 -57 -18 -215v-541
q0 -80 26 -98t89 -18h59l-6 -51l-307 -41l-11 6q20 59 21 110v113q-162 -236 -395 -236q-224 1 -224 275z" />
    <glyph glyph-name="uacute" unicode="&#xfa;" horiz-adv-x="1136" 
d="M184 250v436q0 95 -16 117t-45 22h-76v54q146 27 244 61l39 12l8 -6q-18 -57 -19 -215v-446q0 -113 37 -157t111 -44q168 0 330 164v438q0 53 -3 78q-7 61 -59 61h-73v54q145 26 241 61l37 12l10 -6q-18 -57 -18 -215v-541q0 -80 26 -98t89 -18h59l-6 -51l-307 -41l-11 6
q20 59 21 110v113q-162 -236 -395 -236q-224 1 -224 275zM541 1032l-58 33l181 350l153 17v-56z" />
    <glyph glyph-name="ucircumflex" unicode="&#xfb;" horiz-adv-x="1136" 
d="M184 250v436q0 95 -16 117t-45 22h-76v54q146 27 244 61l39 12l8 -6q-18 -57 -19 -215v-446q0 -113 37 -157t111 -44q168 0 330 164v438q0 53 -3 78q-7 61 -59 61h-73v54q145 26 241 61l37 12l10 -6q-18 -57 -18 -215v-541q0 -80 26 -98t89 -18h59l-6 -51l-307 -41l-11 6
q20 59 21 110v113q-162 -236 -395 -236q-224 1 -224 275zM287 1065l233 360h72l231 -360l-55 -35l-213 242l-213 -242z" />
    <glyph glyph-name="udieresis" unicode="&#xfc;" horiz-adv-x="1136" 
d="M184 250v436q0 95 -16 117t-45 22h-76v54q146 27 244 61l39 12l8 -6q-18 -57 -19 -215v-446q0 -113 37 -157t111 -44q168 0 330 164v438q0 53 -3 78q-7 61 -59 61h-73v54q145 26 241 61l37 12l10 -6q-18 -57 -18 -215v-541q0 -80 26 -98t89 -18h59l-6 -51l-307 -41l-11 6
q20 59 21 110v113q-162 -236 -395 -236q-224 1 -224 275zM723 1159q-39 0 -70 32t-30 71q1 38 31 70t69 32t70 -32t31 -70t-32 -71q-30 -32 -69 -32zM385 1159q-39 0 -70 32t-30 71q1 38 31 70t69 32t69 -32t30 -70t-30 -71q-30 -32 -69 -32z" />
    <glyph glyph-name="yacute" unicode="&#xfd;" horiz-adv-x="940" 
d="M467 1032l-57 33l180 350l153 17v-56zM53 -406q-1 76 101 76q58 0 111 42q52 42 79 100l82 190q-10 37 -45 125l-256 625q-18 45 -49 76t-64 42v48h97l176 8l8 -8q-17 -38 -17 -92t17 -97l170 -432l41 -125l241 551q47 104 -112 147v48h278l11 -33q-39 -16 -76 -109
l-371 -833q-4 -9 -29 -67q-85 -200 -152 -275q-30 -33 -73 -60t-84 -27t-63 24t-21 56z" />
    <glyph glyph-name="thorn" unicode="&#xfe;" horiz-adv-x="1052" 
d="M162 -254v1481q0 53 -3 79q-7 62 -59 62h-88v51q114 25 271 76l28 12l6 -6q-20 -76 -20 -233v-303l-2 -183q2 2 23 30t66 63q84 67 212 67q182 0 277 -133t95 -331t-133 -350q-134 -153 -391 -153q-76 0 -147 15v-242l-10 -117h219l-8 -47q-309 -37 -445 -86v58
q69 38 89 76t20 114zM297 158q0 -115 167 -115t263 105q96 104 96 282t-73 295q-74 117 -203 117t-250 -103v-581z" />
    <glyph glyph-name="ydieresis" unicode="&#xff;" horiz-adv-x="940" 
d="M313 1159q-39 0 -69 32t-31 71q0 38 31 70q32 32 70 32t68 -32t30 -70t-30 -71q-30 -32 -69 -32zM651 1159q-39 0 -69 32t-31 71q0 38 31 70q32 32 70 32t69 -32t31 -70t-31 -71q-31 -32 -70 -32zM53 -406q-1 76 101 76q58 0 111 42q52 42 79 100l82 190q-10 37 -45 125
l-256 625q-18 45 -49 76t-64 42v48h97l176 8l8 -8q-17 -38 -17 -92t17 -97l170 -432l41 -125l241 551q47 104 -112 147v48h278l11 -33q-39 -16 -76 -109l-371 -833q-4 -9 -29 -67q-85 -200 -152 -275q-30 -33 -73 -60t-84 -27t-63 24t-21 56z" />
    <glyph glyph-name="Amacron" unicode="&#x100;" horiz-adv-x="1286" 
d="M389 1573v110h508v-110h-508zM645 1071q-16 41 -37 113l-235 -617h465zM-18 0v55q104 10 137 92l489 1215l70 14l457 -1161q23 -55 43 -93t73 -62q10 -3 43 -9l-8 -51h-90l-281 -6v67q53 3 79 19t10 59l-136 350h-508l-24 -16l-150 -395l174 -25l-8 -53h-370z" />
    <glyph glyph-name="amacron" unicode="&#x101;" horiz-adv-x="925" 
d="M219 1212v111h447v-111h-447zM334 76q86 0 260 143v238l-68 -11q-119 -18 -215 -76t-96 -163q0 -61 36 -96t83 -35zM729 176q0 -56 10 -76t54 -20t112 43l25 -39q-36 -43 -95 -76t-112 -33t-89 37t-36 111v55q-10 -20 -47 -63t-72 -70t-92 -49t-119 -21q-98 -1 -152 59
t-53 140q-1 133 137 217t324 113l70 10v2q4 152 -8 219q-29 143 -142 144q-101 0 -187 -122q-19 -28 -28 -48l-8 -19h-57l-31 144q55 41 160 75q104 33 221 33t166 -63t49 -230v-473z" />
    <glyph glyph-name="Abreve" unicode="&#x102;" horiz-adv-x="1286" 
d="M642 1479q-126 0 -205 59t-79 156q0 39 15 80h63q-14 -92 51 -139q66 -46 155 -46t152 43q62 43 54 142h65q12 -35 13 -82q0 -96 -79 -154t-205 -59zM645 1071q-16 41 -37 113l-235 -617h465zM-18 0v55q104 10 137 92l489 1215l70 14l457 -1161q23 -55 43 -93t73 -62
q10 -3 43 -9l-8 -51h-90l-281 -6v67q53 3 79 19t10 59l-136 350h-508l-24 -16l-150 -395l174 -25l-8 -53h-370z" />
    <glyph glyph-name="abreve" unicode="&#x103;" horiz-adv-x="925" 
d="M258 1419v-20q0 -86 42 -132t142 -46q54 0 94 18t62 43t29 91v46h65q10 -45 10 -73q0 -104 -72 -171t-188 -67t-188 67t-72 171q0 41 11 73h65zM334 76q86 0 260 143v238l-68 -11q-119 -18 -215 -76t-96 -163q0 -61 36 -96t83 -35zM729 176q0 -56 10 -76t54 -20t112 43
l25 -39q-36 -43 -95 -76t-112 -33t-89 37t-36 111v55q-10 -20 -47 -63t-72 -70t-92 -49t-119 -21q-98 -1 -152 59t-53 140q-1 133 137 217t324 113l70 10v2q4 152 -8 219q-29 143 -142 144q-101 0 -187 -122q-19 -28 -28 -48l-8 -19h-57l-31 144q55 41 160 75q104 33 221 33
t166 -63t49 -230v-473z" />
    <glyph glyph-name="Aogonek" unicode="&#x104;" horiz-adv-x="1286" 
d="M645 1071q-16 41 -37 113l-235 -617h465zM-18 0v55q104 10 137 92l489 1215l70 14l457 -1161q23 -55 43 -93t73 -62q10 -3 43 -9l-8 -51h-51q-57 -6 -133 -103t-76 -171t43 -104q43 -32 102 -32l43 4l13 -45q-100 -35 -174 -35t-125 50q-51 48 -51 112q0 105 94 202
q33 34 77 74t52 48l-185 -6v67q53 3 79 19t10 59l-136 350h-508l-24 -16l-150 -395l174 -25l-8 -53h-370z" />
    <glyph glyph-name="aogonek" unicode="&#x105;" horiz-adv-x="925" 
d="M334 76q86 0 260 143v238l-68 -11q-119 -18 -215 -76t-96 -163q0 -61 36 -96t83 -35zM729 176q0 -56 10 -76t54 -20t112 43l25 -39q-33 -37 -80 -68q-72 -55 -131 -135t-60 -157q0 -133 142 -134l45 4l14 -45q-100 -35 -174 -35t-125 50q-51 48 -51 112q0 100 93 202
q34 36 106 99q-111 10 -111 146v55q-10 -20 -47 -63t-72 -70t-92 -49t-119 -21q-98 -1 -152 59t-53 140q-1 133 137 217t324 113l70 10v2q4 152 -8 219q-29 143 -142 144q-101 0 -187 -122q-19 -28 -28 -48l-8 -19h-57l-31 144q55 41 160 75q104 33 221 33t166 -63t49 -230
v-473z" />
    <glyph glyph-name="Cacute" unicode="&#x106;" horiz-adv-x="1382" 
d="M606 1546l352 211h11l59 -94v-47l-399 -131zM100 670q0 326 211 524t531 197q95 0 428 -43l-62 -310h-65q3 150 -99 216t-241 67q-233 0 -388 -170t-155 -436q0 -265 170 -443t428 -178q117 0 221 37t150 74l47 37l27 -39q-14 -24 -67 -71q-52 -48 -103 -78t-139 -54
t-202 -25q-112 0 -235 43q-278 97 -393 344q-64 138 -64 308z" />
    <glyph glyph-name="cacute" unicode="&#x107;" horiz-adv-x="892" 
d="M84 448q0 196 114 345q114 150 306 149q111 0 216 -41t105 -110q0 -27 -18 -47t-55 -19q-37 0 -73 39t-80 78t-103 39q-125 0 -198 -113q-73 -114 -73 -272t78 -274q39 -58 109 -92t150 -34t138 22q59 22 82 44l25 22l22 -37q-4 -6 -11 -18t-35 -42q-102 -109 -269 -112
q-206 1 -318 139t-112 334zM475 1032l-57 33l180 350l154 17v-56z" />
    <glyph glyph-name="Ccircumflex" unicode="&#x108;" horiz-adv-x="1382" 
d="M457 1513l264 271h96l262 -271l-49 -43l-260 175h-4l-260 -175zM100 670q0 326 211 524t531 197q95 0 428 -43l-62 -310h-65q3 150 -99 216t-241 67q-233 0 -388 -170t-155 -436q0 -265 170 -443t428 -178q117 0 221 37t150 74l47 37l27 -39q-14 -24 -67 -71
q-52 -48 -103 -78t-139 -54t-202 -25q-112 0 -235 43q-278 97 -393 344q-64 138 -64 308z" />
    <glyph glyph-name="ccircumflex" unicode="&#x109;" horiz-adv-x="892" 
d="M84 448q0 196 114 345q114 150 306 149q111 0 216 -41t105 -110q0 -27 -18 -47t-55 -19q-37 0 -73 39t-80 78t-103 39q-125 0 -198 -113q-73 -114 -73 -272t78 -274q39 -58 109 -92t150 -34t138 22q59 22 82 44l25 22l22 -37q-4 -6 -11 -18t-35 -42q-102 -109 -269 -112
q-206 1 -318 139t-112 334zM225 1065l234 360h71l232 -360l-55 -35l-213 242l-213 -242z" />
    <glyph glyph-name="Cdotaccent" unicode="&#x10a;" horiz-adv-x="1382" 
d="M100 670q0 326 211 524t531 197q95 0 428 -43l-62 -310h-65q3 150 -99 216t-241 67q-233 0 -388 -170t-155 -436q0 -265 170 -443t428 -178q117 0 221 37t150 74l47 37l27 -39q-14 -24 -67 -71q-52 -48 -103 -78t-139 -54t-202 -25q-112 0 -235 43q-278 97 -393 344
q-64 138 -64 308zM768 1528q-37 0 -67 30q-29 30 -29 68t29 68q30 30 67 30t67 -30q29 -30 29 -69q0 -37 -30 -67t-66 -30z" />
    <glyph glyph-name="cdotaccent" unicode="&#x10b;" horiz-adv-x="892" 
d="M494 1161q-37 0 -67 31t-30 69q0 39 30 69t67 30q36 0 66 -31t30 -69t-30 -68q-30 -31 -66 -31zM84 448q0 196 114 345q114 150 306 149q111 0 216 -41t105 -110q0 -27 -18 -47t-55 -19q-37 0 -73 39t-80 78t-103 39q-125 0 -198 -113q-73 -114 -73 -272t78 -274
q39 -58 109 -92t150 -34t138 22q59 22 82 44l25 22l22 -37q-4 -6 -11 -18t-35 -42q-102 -109 -269 -112q-206 1 -318 139t-112 334z" />
    <glyph glyph-name="Ccaron" unicode="&#x10c;" horiz-adv-x="1382" 
d="M457 1741l49 43l260 -172h4l260 172l49 -43l-262 -271h-94zM100 670q0 326 211 524t531 197q95 0 428 -43l-62 -310h-65q3 150 -99 216t-241 67q-233 0 -388 -170t-155 -436q0 -265 170 -443t428 -178q117 0 221 37t150 74l47 37l27 -39q-14 -24 -67 -71
q-52 -48 -103 -78t-139 -54t-202 -25q-112 0 -235 43q-278 97 -393 344q-64 138 -64 308z" />
    <glyph glyph-name="ccaron" unicode="&#x10d;" horiz-adv-x="892" 
d="M84 448q0 196 114 345q114 150 306 149q111 0 216 -41t105 -110q0 -27 -18 -47t-55 -19q-37 0 -73 39t-80 78t-103 39q-125 0 -198 -113q-73 -114 -73 -272t78 -274q39 -58 109 -92t150 -34t138 22q59 22 82 44l25 22l22 -37q-4 -6 -11 -18t-35 -42q-102 -109 -269 -112
q-206 1 -318 139t-112 334zM459 1071l-234 338l56 35l213 -225l213 225l55 -35l-232 -338h-71z" />
    <glyph glyph-name="Dcaron" unicode="&#x10e;" horiz-adv-x="1515" 
d="M406 1741l49 43l260 -172h4l260 172l49 -43l-262 -271h-94zM551 70q532 0 656 382q36 108 36 236q0 283 -160 446t-460 162h-195l-18 -20v-1092l-11 -114h152zM262 1169q0 76 -28 102t-144 48v47h545q314 0 532 -130q115 -69 180 -198t64 -307q0 -343 -230 -537
t-630 -194h-162l-278 -6v61q152 16 151 127v987z" />
    <glyph glyph-name="dcaron" unicode="&#x10f;" horiz-adv-x="1093" 
d="M526 78q78 0 142 35t94 71v580q0 110 -166 110t-266 -103t-100 -281t79 -296q80 -116 217 -116zM473 -25q-185 1 -287 135t-102 328t135 350q135 154 383 154l160 -12v297q0 53 -3 79q-7 62 -59 62h-90v51q142 32 271 76l30 12l7 -6q-20 -76 -21 -233v-1078q0 -80 27 -98
t88 -18h61l-6 -51l-297 -39l-6 8q6 55 6 106v47q-34 -51 -64 -82t-92 -59t-141 -29zM1016 1130l51 379l139 21v-35l-133 -365h-57z" />
    <glyph glyph-name="Dcroat" unicode="&#x110;" horiz-adv-x="1517" 
d="M553 70q532 0 656 382q36 108 36 236q0 283 -161 446t-459 162h-195l-20 -20v-543h356v-78h-356v-471l-11 -114h154zM74 655v78h188v436q0 76 -26 102q-27 26 -144 48v47h545q314 0 532 -130q115 -69 180 -198t64 -307q0 -343 -230 -537t-630 -194h-162l-278 -6v61
q150 16 149 127v473h-188z" />
    <glyph glyph-name="dcroat" unicode="&#x111;" horiz-adv-x="1093" 
d="M526 78q78 0 142 35t94 71v580q0 110 -166 110t-266 -103t-100 -281t79 -296q80 -116 217 -116zM477 1079v76h285v72q0 53 -3 79q-7 62 -59 62h-90v51q142 32 271 76l30 12l7 -6q-20 -76 -21 -233v-113h154v-76h-154v-889q0 -80 27 -98t88 -18h61l-6 -51l-297 -39l-6 8
q6 55 6 106v47q-34 -51 -64 -82t-92 -59t-141 -29q-185 1 -287 135t-102 328t135 350q135 154 383 154l160 -12v149h-285z" />
    <glyph glyph-name="Emacron" unicode="&#x112;" horiz-adv-x="1183" 
d="M360 1573v110h508v-110h-508zM262 1169q0 76 -28 102t-144 48v47h828l143 8l-64 -336h-65q8 152 -42 205t-179 53h-283l-18 -20v-549h391l16 117l72 12v-350h-92v151h-369l-18 -20v-453l-11 -114h334q127 0 174 44t129 216h66l-76 -330h-637l-278 -6v61q152 16 151 127
v987z" />
    <glyph glyph-name="emacron" unicode="&#x113;" horiz-adv-x="940" 
d="M266 1212v111h447v-111h-447zM477 872q-104 0 -169 -82t-83 -210l463 59q0 23 -16 72t-36 80t-64 56q-42 25 -95 25zM84 449q0 201 120 347t300 146q140 0 244 -89t108 -243q-39 -14 -80 -20l-536 -78l-21 -25q2 -163 86 -277t250 -114q79 0 147 26t97 52l30 27l23 -37
q-10 -20 -47 -60t-73 -64t-97 -44t-127 -21q-204 0 -314 136t-110 338z" />
    <glyph glyph-name="Ebreve" unicode="&#x114;" horiz-adv-x="1183" 
d="M897 1692q0 -96 -79 -154t-205 -59q-127 0 -205 59t-78 156q0 39 14 80h64q-14 -92 51 -139q67 -46 155 -46t151 43q62 43 54 142h66q12 -35 12 -82zM262 1169q0 76 -28 102t-144 48v47h828l143 8l-64 -336h-65q8 152 -42 205t-179 53h-283l-18 -20v-549h391l16 117
l72 12v-350h-92v151h-369l-18 -20v-453l-11 -114h334q127 0 174 44t129 216h66l-76 -330h-637l-278 -6v61q152 16 151 127v987z" />
    <glyph glyph-name="ebreve" unicode="&#x115;" horiz-adv-x="940" 
d="M305 1419v-20q0 -86 42 -132t142 -46q55 0 95 18q40 19 55 37q16 18 26 53q9 35 9 44v46h65q10 -45 11 -73q0 -104 -73 -171t-188 -67t-187 67t-73 171q0 41 11 73h65zM477 872q-104 0 -169 -82t-83 -210l463 59q0 23 -16 72t-36 80t-64 56q-42 25 -95 25zM84 449
q0 201 120 347t300 146q140 0 244 -89t108 -243q-39 -14 -80 -20l-536 -78l-21 -25q2 -163 86 -277t250 -114q79 0 147 26t97 52l30 27l23 -37q-10 -20 -47 -60t-73 -64t-97 -44t-127 -21q-204 0 -314 136t-110 338z" />
    <glyph glyph-name="Edotaccent" unicode="&#x116;" horiz-adv-x="1183" 
d="M262 1169q0 76 -28 102t-144 48v47h828l143 8l-64 -336h-65q8 152 -42 205t-179 53h-283l-18 -20v-549h391l16 117l72 12v-350h-92v151h-369l-18 -20v-453l-11 -114h334q127 0 174 44t129 216h66l-76 -330h-637l-278 -6v61q152 16 151 127v987zM614 1528q-36 0 -66 30
t-30 68t30 68t66 30t67 -30q30 -30 30 -69q0 -37 -30 -67t-67 -30z" />
    <glyph glyph-name="edotaccent" unicode="&#x117;" horiz-adv-x="940" 
d="M489 1161q-37 0 -67 31t-29 69q0 39 30 69q31 30 67 30t66 -31t30 -69t-30 -68q-30 -31 -67 -31zM477 872q-104 0 -169 -82t-83 -210l463 59q0 23 -16 72t-36 80t-64 56q-42 25 -95 25zM84 449q0 201 120 347t300 146q140 0 244 -89t108 -243q-39 -14 -80 -20l-536 -78
l-21 -25q2 -163 86 -277t250 -114q79 0 147 26t97 52l30 27l23 -37q-10 -20 -47 -60t-73 -64t-97 -44t-127 -21q-204 0 -314 136t-110 338z" />
    <glyph glyph-name="Eogonek" unicode="&#x118;" horiz-adv-x="1183" 
d="M262 1169q0 76 -28 102t-144 48v47h828l143 8l-64 -336h-65q8 152 -42 205t-179 53h-283l-18 -20v-549h391l16 117l72 12v-350h-92v151h-369l-18 -20v-453l-11 -114h334q127 0 174 44t129 216h66l-76 -330h-8q-57 -6 -133 -102t-76 -172q0 -136 145 -136l41 4l15 -45
q-100 -35 -174 -35t-125 50t-51 108t16 102q17 44 118 142q22 20 91 84h-496l-278 -6v61q152 16 151 127v987z" />
    <glyph glyph-name="eogonek" unicode="&#x119;" horiz-adv-x="940" 
d="M477 872q-104 0 -169 -82t-83 -210l463 59q0 23 -16 72t-36 80t-64 56q-42 25 -95 25zM84 449q0 201 120 347t300 146q140 0 244 -89t108 -243q-39 -14 -80 -20l-536 -78l-21 -25q2 -163 86 -277t250 -114q79 0 147 26t97 52l30 27l23 -37q-41 -66 -115 -119
q-69 -43 -149 -136t-80 -185q0 -133 141 -134l45 4l13 -45q-207 -74 -299 15q-52 49 -52 123t48 136t153 157q-33 -4 -49 -5q-204 0 -314 136t-110 338z" />
    <glyph glyph-name="Ecaron" unicode="&#x11a;" horiz-adv-x="1183" 
d="M303 1741l49 43l260 -172h4l261 172l49 -43l-262 -271h-95zM262 1169q0 76 -28 102t-144 48v47h828l143 8l-64 -336h-65q8 152 -42 205t-179 53h-283l-18 -20v-549h391l16 117l72 12v-350h-92v151h-369l-18 -20v-453l-11 -114h334q127 0 174 44t129 216h66l-76 -330h-637
l-278 -6v61q152 16 151 127v987z" />
    <glyph glyph-name="ecaron" unicode="&#x11b;" horiz-adv-x="940" 
d="M455 1071l-234 338l55 35l213 -225l213 225l56 -35l-232 -338h-71zM477 872q-104 0 -169 -82t-83 -210l463 59q0 23 -16 72t-36 80t-64 56q-42 25 -95 25zM84 449q0 201 120 347t300 146q140 0 244 -89t108 -243q-39 -14 -80 -20l-536 -78l-21 -25q2 -163 86 -277
t250 -114q79 0 147 26t97 52l30 27l23 -37q-10 -20 -47 -60t-73 -64t-97 -44t-127 -21q-204 0 -314 136t-110 338z" />
    <glyph glyph-name="Gcircumflex" unicode="&#x11c;" horiz-adv-x="1449" 
d="M829 1321q-261 0 -411 -179t-150 -452q0 -272 182 -454t476 -183q90 0 219 27v309q0 78 -30 105t-159 45v47h408l10 -25q-8 -4 -21 -14q-13 -11 -36 -61t-23 -119v-338q-285 -53 -454 -54q-320 1 -530 181t-210 486t179 518q88 106 234 168t301 62t315 -20
q161 -22 169 -24l-61 -308h-66q-2 154 -99 218t-243 65zM487 1513l265 271h96l262 -271l-49 -43l-260 175h-4l-260 -175z" />
    <glyph glyph-name="gcircumflex" unicode="&#x11d;" horiz-adv-x="976" 
d="M178 1065l234 360h71l232 -360l-56 -35l-213 242l-213 -242zM240 616q0 -108 57 -184t169 -76t166 71t54 177t-60 190q-60 83 -169 83t-163 -76t-54 -185zM543 -14q-33 8 -98 19t-87 15q-166 -96 -165 -235q-1 -94 77 -146q78 -53 197 -53t221 62t103 157q0 128 -248 181
zM145 154q1 26 21 52q47 58 162 103q-108 31 -174 109t-66 194q0 154 108 242t265 88q59 0 136 -20t124 -21h98q73 0 115 21l20 6l-16 -123h-117l-71 6q28 -23 58 -88t30 -125q0 -137 -111 -222t-266 -85q-59 0 -101 10q-59 -59 -59 -93t55 -51t134 -33l130 -26
q120 -25 210 -75q110 -61 110 -175q0 -141 -159 -237t-335 -96t-286 63t-109 190q0 127 133 203q56 32 125 60q-164 39 -164 123z" />
    <glyph glyph-name="Gbreve" unicode="&#x11e;" horiz-adv-x="1449" 
d="M1081 1692q-1 -96 -79 -154t-204 -59q-126 0 -205 59t-79 156q0 39 14 80h64q-14 -92 51 -139q66 -46 155 -46t151 43t55 142h65q12 -35 12 -82zM829 1321q-261 0 -411 -179t-150 -452q0 -272 182 -454t476 -183q90 0 219 27v309q0 78 -30 105t-159 45v47h408l10 -25
q-8 -4 -21 -14q-13 -11 -36 -61t-23 -119v-338q-285 -53 -454 -54q-320 1 -530 181t-210 486t179 518q88 106 234 168t301 62t315 -20q161 -22 169 -24l-61 -308h-66q-2 154 -99 218t-243 65z" />
    <glyph glyph-name="gbreve" unicode="&#x11f;" horiz-adv-x="976" 
d="M262 1419v-20q0 -86 42 -132t142 -46q54 0 94 18q40 19 56 37t26 53q9 35 9 44v46h65q10 -45 11 -73q0 -104 -73 -171t-188 -67q-116 0 -188 67t-72 171q0 41 11 73h65zM240 616q0 -108 57 -184t169 -76t166 71t54 177t-60 190q-60 83 -169 83t-163 -76t-54 -185z
M543 -14q-33 8 -98 19t-87 15q-166 -96 -165 -235q-1 -94 77 -146q78 -53 197 -53t221 62t103 157q0 128 -248 181zM145 154q1 26 21 52q47 58 162 103q-108 31 -174 109t-66 194q0 154 108 242t265 88q59 0 136 -20t124 -21h98q73 0 115 21l20 6l-16 -123h-117l-71 6
q28 -23 58 -88t30 -125q0 -137 -111 -222t-266 -85q-59 0 -101 10q-59 -59 -59 -93t55 -51t134 -33l130 -26q120 -25 210 -75q110 -61 110 -175q0 -141 -159 -237t-335 -96t-286 63t-109 190q0 127 133 203q56 32 125 60q-164 39 -164 123z" />
    <glyph glyph-name="Gdotaccent" unicode="&#x120;" horiz-adv-x="1449" 
d="M829 1321q-261 0 -411 -179t-150 -452q0 -272 182 -454t476 -183q90 0 219 27v309q0 78 -30 105t-159 45v47h408l10 -25q-8 -4 -21 -14q-13 -11 -36 -61t-23 -119v-338q-285 -53 -454 -54q-320 1 -530 181t-210 486t179 518q88 106 234 168t301 62t315 -20
q161 -22 169 -24l-61 -308h-66q-2 154 -99 218t-243 65zM799 1528q-37 0 -67 30t-30 68t30 68t67 30t67 -30t29 -69q1 -37 -29 -67t-67 -30z" />
    <glyph glyph-name="gdotaccent" unicode="&#x121;" horiz-adv-x="976" 
d="M446 1161q-36 0 -66 31t-30 69q0 39 30 69t66 30t67 -31q30 -31 30 -69t-30 -68q-30 -31 -67 -31zM240 616q0 -108 57 -184t169 -76t166 71t54 177t-60 190q-60 83 -169 83t-163 -76t-54 -185zM543 -14q-33 8 -98 19t-87 15q-166 -96 -165 -235q-1 -94 77 -146
q78 -53 197 -53t221 62t103 157q0 128 -248 181zM145 154q1 26 21 52q47 58 162 103q-108 31 -174 109t-66 194q0 154 108 242t265 88q59 0 136 -20t124 -21h98q73 0 115 21l20 6l-16 -123h-117l-71 6q28 -23 58 -88t30 -125q0 -137 -111 -222t-266 -85q-59 0 -101 10
q-59 -59 -59 -93t55 -51t134 -33l130 -26q120 -25 210 -75q110 -61 110 -175q0 -141 -159 -237t-335 -96t-286 63t-109 190q0 127 133 203q56 32 125 60q-164 39 -164 123z" />
    <glyph glyph-name="Gcommaaccent" unicode="&#x122;" horiz-adv-x="1449" 
d="M829 1321q-261 0 -411 -179t-150 -452q0 -272 182 -454t476 -183q90 0 219 27v309q0 78 -30 105t-159 45v47h408l10 -25q-8 -4 -21 -14q-13 -11 -36 -61t-23 -119v-338q-285 -53 -454 -54q-320 1 -530 181t-210 486t179 518q88 106 234 168t301 62t315 -20
q161 -22 169 -24l-61 -308h-66q-2 154 -99 218t-243 65zM805 -302q0 66 -84 167l24 47h123q52 -74 52 -154t-60 -146t-131 -106l-39 58q115 68 115 134z" />
    <glyph glyph-name="gcommaaccent" unicode="&#x123;" horiz-adv-x="976" 
d="M240 616q0 -108 57 -184t169 -76t166 71t54 177t-60 190q-60 83 -169 83t-163 -76t-54 -185zM543 -14q-33 8 -98 19t-87 15q-166 -96 -165 -235q-1 -94 77 -146q78 -53 197 -53t221 62t103 157q0 128 -248 181zM145 154q1 26 21 52q47 58 162 103q-108 31 -174 109
t-66 194q0 154 108 242t265 88q59 0 136 -20t124 -21h98q73 0 115 21l20 6l-16 -123h-117l-71 6q28 -23 58 -88t30 -125q0 -137 -111 -222t-266 -85q-59 0 -101 10q-59 -59 -59 -93t55 -51t134 -33l130 -26q120 -25 210 -75q110 -61 110 -175q0 -141 -159 -237t-335 -96
t-286 63t-109 190q0 127 133 203q56 32 125 60q-164 39 -164 123zM346 1200q0 80 60 147t131 105l38 -57q-115 -67 -115 -133t85 -168l-25 -47h-123q-51 73 -51 153z" />
    <glyph glyph-name="Hcircumflex" unicode="&#x124;" horiz-adv-x="1617" 
d="M502 1513l264 271h96l262 -271l-49 -43l-260 175h-4l-260 -175zM258 188v981q0 80 -22 104q-23 24 -134 46v47h164l197 8l10 -8q-68 -74 -67 -244v-389h800l19 19v417q0 80 -23 104t-133 46v47h164l197 6l10 -8q-27 -27 -47 -96t-21 -146v-934l-10 -110l188 -19l-8 -53
l-469 -12v61q70 8 111 42t41 85v473h-801l-18 -18v-449l-11 -110l187 -19l-9 -53l-467 -12v61q72 8 112 43t40 90z" />
    <glyph glyph-name="hcircumflex" unicode="&#x125;" horiz-adv-x="1134" 
d="M12 1554l-41 54l250 235h76l250 -235l-39 -54l-246 140h-8zM190 182v1045q0 97 -16 119t-45 22h-90v51q126 28 270 76l31 12l6 -6q-20 -76 -20 -233v-412q0 -84 -4 -110q-4 -27 -5 -31q61 91 169 159t231 68q229 0 229 -276v-484l-10 -110l178 -19l-8 -47l-420 -12v55
q125 14 125 133v451q0 205 -149 205q-78 0 -172 -46t-164 -116v-494l-11 -110l177 -19l-9 -47l-424 -12v55q131 14 131 133z" />
    <glyph glyph-name="Hbar" unicode="&#x126;" horiz-adv-x="1617" 
d="M1225 979h-819v-246h800l19 19v227zM84 979v74h174v116q0 80 -22 104q-23 24 -134 46v47h164l197 8l10 -8q-68 -74 -67 -244v-69h819v116q0 80 -23 104t-133 46v47h164l197 6l10 -8q-27 -27 -47 -96t-21 -146v-69h178v-74h-178v-791l-10 -110l188 -19l-8 -53l-469 -12v61
q70 8 111 42t41 85v473h-801l-18 -18v-449l-11 -110l187 -19l-9 -53l-467 -12v61q72 8 112 43t40 90v791h-174z" />
    <glyph glyph-name="hbar" unicode="&#x127;" horiz-adv-x="1134" 
d="M57 1079v76h133v72q0 97 -16 119t-45 22h-90v51q126 28 270 76l31 12l6 -6q-20 -76 -20 -233v-113h303v-76h-303v-223q0 -84 -4 -110q-4 -27 -5 -31q61 91 169 159t231 68q229 0 229 -276v-484l-10 -110l178 -19l-8 -47l-420 -12v55q125 14 125 133v451q0 205 -149 205
q-78 0 -172 -46t-164 -116v-494l-11 -110l177 -19l-9 -47l-424 -12v55q131 14 131 133v897h-133z" />
    <glyph glyph-name="Itilde" unicode="&#x128;" horiz-adv-x="655" 
d="M160 1743q58 -1 178 -63t161 -62q43 0 71 31t36 63l6 31l66 -4q0 -29 -16 -76t-35 -78t-63 -57t-110 -25t-169 63q-105 62 -145 62t-68 -32t-39 -62l-10 -31l-64 13q0 25 14 71q13 47 33 77t58 54t96 25zM258 180v989q0 80 -22 104q-23 24 -134 46v47h164l197 8l10 -8
q-68 -74 -67 -244v-942l-11 -102l201 -19l-8 -53l-482 -12v61q68 8 110 42t42 83z" />
    <glyph glyph-name="itilde" unicode="&#x129;" horiz-adv-x="550" 
d="M-20 1155v26q0 15 8 56t23 72t51 57t84 25q85 0 145 -75t102 -75q43 0 64 35q20 35 22 67l4 35h70q0 -91 -34 -159q-15 -33 -52 -60t-85 -27t-86 24t-58 52q-54 77 -109 76q-33 0 -53 -32t-23 -64l-4 -33h-69zM217 182v502q0 97 -16 119t-45 22h-97v52q317 82 316 94
l2 -6q-25 -68 -25 -234v-549l-10 -110l178 -19l-8 -47l-426 -12v55q131 14 131 133z" />
    <glyph glyph-name="Imacron" unicode="&#x12a;" horiz-adv-x="655" 
d="M63 1573v110h508v-110h-508zM258 180v989q0 80 -22 104q-23 24 -134 46v47h164l197 8l10 -8q-68 -74 -67 -244v-942l-11 -102l201 -19l-8 -53l-482 -12v61q68 8 110 42t42 83z" />
    <glyph glyph-name="imacron" unicode="&#x12b;" horiz-adv-x="550" 
d="M41 1212v111h446v-111h-446zM215 182v502q0 97 -16 119t-45 22h-97v52q317 82 316 94l2 -6q-25 -68 -25 -234v-549l-10 -110l178 -19l-8 -47l-426 -12v55q131 14 131 133z" />
    <glyph glyph-name="Ibreve" unicode="&#x12c;" horiz-adv-x="655" 
d="M600 1692q0 -96 -79 -154t-205 -59q-126 0 -204 59t-79 156q0 39 14 80h64q-14 -92 51 -139q66 -46 154 -46t152 43q62 43 54 142h66q12 -35 12 -82zM258 180v989q0 80 -22 104q-23 24 -134 46v47h164l197 8l10 -8q-68 -74 -67 -244v-942l-11 -102l201 -19l-8 -53
l-482 -12v61q68 8 110 42t42 83z" />
    <glyph glyph-name="ibreve" unicode="&#x12d;" horiz-adv-x="550" 
d="M80 1419v-20q0 -86 42 -132t142 -46q55 0 94 18t61 43t30 91v46h65q10 -45 10 -73q0 -104 -72 -171t-188 -67t-188 67t-72 171q0 41 10 73h66zM215 182v502q0 97 -16 119t-45 22h-97v52q317 82 316 94l2 -6q-25 -68 -25 -234v-549l-10 -110l178 -19l-8 -47l-426 -12v55
q131 14 131 133z" />
    <glyph glyph-name="Iogonek" unicode="&#x12e;" horiz-adv-x="655" 
d="M258 180v989q0 80 -22 104q-23 24 -134 46v47h164l197 8l10 -8q-68 -74 -67 -244v-942l-11 -102l201 -19l-8 -53l-94 -2q-56 -4 -136 -103t-80 -175t43 -106q42 -30 101 -30l43 4l12 -45q-101 -35 -173 -35t-125 51q-52 49 -52 113t35 121t70 91q36 34 120 110l-246 -6
v61q68 8 110 42t42 83z" />
    <glyph glyph-name="iogonek" unicode="&#x12f;" horiz-adv-x="550" 
d="M264 1161q-36 0 -66 31t-30 69q0 39 30 69t66 30t67 -31q29 -31 29 -69t-30 -68q-30 -31 -66 -31zM215 182v502q0 97 -16 119t-45 22h-97v52q317 82 316 94l2 -6q-25 -68 -25 -234v-549l-10 -110l178 -19l-8 -47l-80 -2q-55 -4 -135 -103t-80 -173t43 -106t102 -32l43 4
l13 -45q-100 -35 -174 -35t-125 50q-51 49 -51 129t66 153t157 154l-205 -6v55q131 14 131 133z" />
    <glyph glyph-name="Idotaccent" unicode="&#x130;" horiz-adv-x="655" 
d="M317 1528q-37 0 -67 30t-29 68q0 38 30 68q31 30 67 30t66 -30t30 -69q0 -37 -30 -67t-67 -30zM258 180v989q0 80 -22 104q-23 24 -134 46v47h164l197 8l10 -8q-68 -74 -67 -244v-942l-11 -102l201 -19l-8 -53l-482 -12v61q68 8 110 42t42 83z" />
    <glyph glyph-name="dotlessi" unicode="&#x131;" horiz-adv-x="550" 
d="M215 182v502q0 97 -16 119t-45 22h-97v52q317 82 316 94l2 -6q-25 -68 -25 -234v-549l-10 -110l178 -19l-8 -47l-426 -12v55q131 14 131 133z" />
    <glyph glyph-name="IJ" unicode="&#x132;" horiz-adv-x="1261" 
d="M895 88v1081q0 80 -23 104t-133 46v47h164l197 8l10 -8q-68 -78 -68 -248v-942q0 -240 -91 -375t-249 -135l-24 45q86 12 152 121t65 256zM258 180v989q0 80 -22 104q-23 24 -134 46v47h164l197 8l10 -8q-68 -74 -67 -244v-942l-11 -102l201 -19l-8 -53l-482 -12v61
q68 8 110 42t42 83z" />
    <glyph glyph-name="ij" unicode="&#x133;" horiz-adv-x="1048" 
d="M702 1261q0 39 30 69t68 30t68 -31t29 -69q1 -38 -29 -68q-30 -31 -68 -31t-68 31t-30 69zM752 -53v737q0 53 -3 79q-7 62 -59 62h-96v52l315 94v-6q-23 -55 -22 -222v-700q0 -246 -86 -387t-242 -141l-24 45q85 12 151 124t66 263zM264 1161q-36 0 -66 31t-30 69
q0 39 30 69t66 30t67 -31q29 -31 29 -69t-30 -68q-30 -31 -66 -31zM215 182v502q0 97 -16 119t-45 22h-97v52q317 82 316 94l2 -6q-25 -68 -25 -234v-549l-10 -110l178 -19l-8 -47l-426 -12v55q131 14 131 133z" />
    <glyph glyph-name="Jcircumflex" unicode="&#x134;" horiz-adv-x="608" 
d="M4 1513l264 271h97l262 -271l-49 -43l-261 175h-4l-260 -175zM242 88v1081q0 80 -23 104t-133 46v47h164l196 8l11 -8q-68 -78 -68 -248v-942q0 -240 -91 -375t-249 -135l-24 45q85 12 151 121t66 256z" />
    <glyph glyph-name="jcircumflex" unicode="&#x135;" horiz-adv-x="495" 
d="M-20 1065l233 360h72l231 -360l-55 -35l-213 242l-213 -242zM199 -53v737q0 53 -3 79q-7 62 -59 62h-96v52l315 94v-6q-23 -55 -22 -222v-700q0 -246 -86 -387t-242 -141l-24 45q86 12 152 124t65 263z" />
    <glyph glyph-name="Kcommaaccent" unicode="&#x136;" horiz-adv-x="1277" 
d="M258 182v987q0 80 -22 104q-23 24 -134 46v47h164l197 8l10 -8q-68 -78 -67 -248v-360h38q29 18 60 47l414 407q36 29 24 64t-78 43v47h373l10 -25q-41 -7 -125 -64q-84 -58 -161 -136l-394 -385v-15l508 -561q69 -76 97 -93t85 -24l23 -2l-8 -61h-271l-4 6
q-23 59 -161 217l-402 451h-28v-492l-11 -104l187 -19l-9 -53l-467 -12v61q70 8 111 42t41 85zM821 -242q0 -80 -59 -146t-131 -106l-39 58q115 68 115 134t-84 167l24 47h123q51 -74 51 -154z" />
    <glyph glyph-name="kcommaaccent" unicode="&#x137;" horiz-adv-x="1034" 
d="M190 182v1045q0 97 -16 119t-45 22h-90v51q126 28 270 76l31 12l6 -6q-20 -76 -20 -233v-723h20l209 172q3 4 23 20q56 46 57 81q0 34 -70 52v48h369l10 -33q-111 -25 -215 -113l-254 -213v-18q20 -27 35 -41l311 -316q76 -80 105 -99t90 -26l22 -2l-8 -57l-268 -6
q-29 74 -88 141l-328 348h-20v-301l-11 -110l170 -19l-8 -47l-418 -12v55q131 14 131 133zM643 -242q0 -80 -59 -146t-131 -106l-39 58q114 68 114 134t-84 167l25 47h123q51 -74 51 -154z" />
    <glyph glyph-name="kgreenlandic" unicode="&#x138;" horiz-adv-x="1044" 
d="M215 182v502q0 97 -16 119t-45 22h-97v52q317 82 316 94l2 -6q-25 -68 -25 -234v-227h19l260 213q4 4 18 16t36 34t24 50q0 35 -68 53v48h346l10 -33q-94 -29 -194 -113l-301 -252v-18q20 -27 35 -41l272 -277q77 -80 105 -99t89 -26l23 -2l-8 -57l-268 -6
q-25 76 -89 141l-286 307h-23v-260l-10 -110l164 -19l-8 -47l-412 -12v55q131 14 131 133z" />
    <glyph glyph-name="Lacute" unicode="&#x139;" horiz-adv-x="1148" 
d="M258 182v987q0 80 -22 104q-23 24 -134 46v47h164l197 8l10 -8q-68 -74 -67 -244v-940l-11 -112h359q127 0 177 53t132 248h67l-83 -371h-662l-264 -6v61q137 14 137 127zM170 1546l352 211h10l60 -94v-47l-399 -131z" />
    <glyph glyph-name="lacute" unicode="&#x13a;" horiz-adv-x="526" 
d="M190 182v1045q0 97 -16 119t-45 22h-90v51q126 28 270 76l31 12l6 -6q-20 -76 -20 -233v-1086l-11 -110l179 -19l-9 -47l-426 -12v55q131 14 131 133z" />
    <glyph glyph-name="Lcommaaccent" unicode="&#x13b;" horiz-adv-x="1148" 
d="M258 182v987q0 80 -22 104q-23 24 -134 46v47h164l197 8l10 -8q-68 -74 -67 -244v-940l-11 -112h359q127 0 177 53t132 248h67l-83 -371h-662l-264 -6v61q137 14 137 127zM745 -242q0 -80 -59 -146t-131 -106l-39 58q115 68 115 134t-84 167l24 47h123q51 -74 51 -154z
" />
    <glyph glyph-name="lcommaaccent" unicode="&#x13c;" horiz-adv-x="526" 
d="M190 182v1045q0 97 -16 119t-45 22h-90v51q126 28 270 76l31 12l6 -6q-20 -76 -20 -233v-1086l-11 -110l179 -19l-9 -47l-426 -12v55q131 14 131 133zM379 -242q1 -80 -59 -146t-132 -106l-38 58q114 68 114 134t-84 167l25 47h123q51 -74 51 -154z" />
    <glyph glyph-name="Lcaron" unicode="&#x13d;" horiz-adv-x="1148" 
d="M258 182v987q0 80 -22 104q-23 24 -134 46v47h164l197 8l10 -8q-68 -74 -67 -244v-940l-11 -112h359q127 0 177 53t132 248h67l-83 -371h-662l-264 -6v61q137 14 137 127zM588 1130l51 379l139 21v-35l-133 -365h-57z" />
    <glyph glyph-name="lcaron" unicode="&#x13e;" horiz-adv-x="526" 
d="M190 182v1045q0 97 -16 119t-45 22h-90v51q126 28 270 76l31 12l6 -6q-20 -76 -20 -233v-1086l-11 -110l179 -19l-9 -47l-426 -12v55q131 14 131 133zM449 1130l51 379l139 21v-35l-133 -365h-57z" />
    <glyph glyph-name="Ldot" unicode="&#x13f;" horiz-adv-x="1148" 
d="M901 614q-45 0 -78 33t-32 78q0 45 32 77q33 32 78 32t78 -32t33 -77t-33 -78t-78 -33zM258 182v987q0 80 -22 104q-23 24 -134 46v47h164l197 8l10 -8q-68 -74 -67 -244v-940l-11 -112h359q127 0 177 53t132 248h67l-83 -371h-662l-264 -6v61q137 14 137 127z" />
    <glyph glyph-name="ldot" unicode="&#x140;" horiz-adv-x="718" 
d="M612 614q-46 0 -78 33t-32 78t33 77t77 32t78 -32q33 -32 33 -77t-32 -78t-79 -33zM190 182v1045q0 97 -16 119t-45 22h-90v51q126 28 270 76l31 12l6 -6q-20 -76 -20 -233v-1086l-11 -110l179 -19l-9 -47l-426 -12v55q131 14 131 133z" />
    <glyph glyph-name="Lslash" unicode="&#x141;" horiz-adv-x="1148" 
d="M258 1169q0 80 -22 104q-23 24 -134 46v47h164l197 8l10 -8q-68 -74 -67 -244v-311l335 233v-98l-335 -231v-533l-11 -112h359q127 0 177 53t132 248h67l-83 -371h-662l-264 -6v61q137 14 137 127v441l-188 -127v96l188 127v450z" />
    <glyph glyph-name="lslash" unicode="&#x142;" horiz-adv-x="579" 
d="M221 1227q0 97 -16 119t-45 22h-90v51q151 34 270 76l31 12l6 -6q-20 -76 -21 -233v-457l195 145v-96l-195 -145v-533l-10 -110l178 -19l-8 -47l-426 -12v55q131 14 131 133v445l-190 -140v95l190 139v506z" />
    <glyph glyph-name="Nacute" unicode="&#x143;" horiz-adv-x="1554" 
d="M264 182v936q0 109 -33 148t-135 53v47h62l184 8q25 -47 74 -106l749 -891q45 -57 82 -113v895q0 41 -3 61q-9 59 -69 75q-36 11 -98 18v53h381l10 -25q-57 -19 -83 -51q-58 -70 -58 -160v-1140h-41l-870 1061q-45 57 -70 94v-963l-10 -110l184 -13l-8 -53l-395 -12v61
q147 16 147 127zM637 1546l352 211h10l60 -94v-47l-400 -131z" />
    <glyph glyph-name="nacute" unicode="&#x144;" horiz-adv-x="1159" 
d="M215 182v502q0 97 -16 119t-45 22h-97v52q133 29 267 79l32 15l6 -6q-18 -76 -18 -258q62 95 168 165t229 70q229 0 230 -276v-484l-10 -108l178 -21l-9 -47l-419 -12v55q73 8 99 41t26 92v451q0 205 -150 205q-80 0 -174 -47t-162 -121v-488l-10 -108l176 -21l-8 -47
l-424 -12v55q131 14 131 133zM578 1032l-58 33l180 350l154 17v-56z" />
    <glyph glyph-name="Ncommaaccent" unicode="&#x145;" horiz-adv-x="1554" 
d="M805 -302q0 66 -84 167l24 47h123q52 -74 52 -154t-60 -146t-131 -106l-39 58q115 68 115 134zM264 182v936q0 109 -33 148t-135 53v47h62l184 8q25 -47 74 -106l749 -891q45 -57 82 -113v895q0 41 -3 61q-9 59 -69 75q-36 11 -98 18v53h381l10 -25q-57 -19 -83 -51
q-58 -70 -58 -160v-1140h-41l-870 1061q-45 57 -70 94v-963l-10 -110l184 -13l-8 -53l-395 -12v61q147 16 147 127z" />
    <glyph glyph-name="ncommaaccent" unicode="&#x146;" horiz-adv-x="1159" 
d="M215 182v502q0 97 -16 119t-45 22h-97v52q133 29 267 79l32 15l6 -6q-18 -76 -18 -258q62 95 168 165t229 70q229 0 230 -276v-484l-10 -108l178 -21l-9 -47l-419 -12v55q73 8 99 41t26 92v451q0 205 -150 205q-80 0 -174 -47t-162 -121v-488l-10 -108l176 -21l-8 -47
l-424 -12v55q131 14 131 133zM713 -242q1 -80 -59 -146t-132 -106l-39 58q115 68 115 134t-84 167l25 47h123q51 -74 51 -154z" />
    <glyph glyph-name="Ncaron" unicode="&#x147;" horiz-adv-x="1554" 
d="M487 1741l50 43l260 -172h4l260 172l49 -43l-262 -271h-94zM264 182v936q0 109 -33 148t-135 53v47h62l184 8q25 -47 74 -106l749 -891q45 -57 82 -113v895q0 41 -3 61q-9 59 -69 75q-36 11 -98 18v53h381l10 -25q-57 -19 -83 -51q-58 -70 -58 -160v-1140h-41l-870 1061
q-45 57 -70 94v-963l-10 -110l184 -13l-8 -53l-395 -12v61q147 16 147 127z" />
    <glyph glyph-name="ncaron" unicode="&#x148;" horiz-adv-x="1159" 
d="M215 182v502q0 97 -16 119t-45 22h-97v52q133 29 267 79l32 15l6 -6q-18 -76 -18 -258q62 95 168 165t229 70q229 0 230 -276v-484l-10 -108l178 -21l-9 -47l-419 -12v55q73 8 99 41t26 92v451q0 205 -150 205q-80 0 -174 -47t-162 -121v-488l-10 -108l176 -21l-8 -47
l-424 -12v55q131 14 131 133zM557 1071l-233 338l55 35l213 -225l213 225l55 -35l-231 -338h-72z" />
    <glyph glyph-name="napostrophe" unicode="&#x149;" horiz-adv-x="1159" 
d="M215 182v502q0 97 -16 119t-45 22h-97v52q133 29 267 79l32 15l6 -6q-18 -76 -18 -258q62 95 168 165t229 70q229 0 230 -276v-484l-10 -108l178 -21l-9 -47l-419 -12v55q73 8 99 41t26 92v451q0 205 -150 205q-80 0 -174 -47t-162 -121v-488l-10 -108l176 -21l-8 -47
l-424 -12v55q131 14 131 133zM207 1292q0 66 -84 168l24 47h123q52 -73 52 -153t-60 -147t-131 -105l-39 57q115 67 115 133z" />
    <glyph glyph-name="Eng" unicode="&#x14a;" horiz-adv-x="1554" 
d="M1327 1130v-1048q-1 -140 -29 -245t-69 -149t-91 -44t-74 24q-22 24 -22 58q0 59 66 79q2 3 17 9t23 11l26 15q22 14 45 55q22 41 22 111v35l-825 1010q-45 57 -70 94v-963l-10 -110l184 -13l-8 -53l-395 -12v61q147 16 147 127v936q0 109 -33 148t-135 53v47h62l184 8
q25 -47 74 -106l749 -891q45 -57 82 -113v895q0 41 -3 61q-9 59 -69 75q-36 11 -98 18v53h381l10 -25q-57 -19 -83 -51q-58 -71 -58 -160z" />
    <glyph glyph-name="eng" unicode="&#x14b;" horiz-adv-x="1118" 
d="M215 182v502q0 97 -16 119t-45 22h-97v52q313 76 299 94l6 -6q-18 -76 -18 -258q62 95 168 165t229 70q229 0 230 -276v-617q0 -188 -64 -306q-64 -117 -135 -165t-108 -57l-19 -6l-24 45l22 11q14 7 52 36q79 61 117 172q24 68 24 147v707q0 205 -150 205
q-80 0 -174 -47t-162 -121v-488l-10 -108l176 -21l-8 -47l-424 -12v55q131 14 131 133z" />
    <glyph glyph-name="Omacron" unicode="&#x14c;" horiz-adv-x="1622" 
d="M549 1573v110h508v-110h-508zM98 668q0 188 84 351t254 267t393 105q303 1 499 -185t196 -475q0 -201 -93 -373t-265 -277t-384 -106q-296 0 -490 201t-194 492zM266 719q0 -159 64 -309t193 -254q130 -104 294 -104t290 95q126 97 188 239t63 296q0 248 -155 440
t-399 193q-244 0 -390 -178q-148 -178 -148 -418z" />
    <glyph glyph-name="omacron" unicode="&#x14d;" horiz-adv-x="1075" 
d="M240 483q0 -248 131 -374q72 -70 174 -70q133 0 212 105t79 288q4 246 -130 378q-73 71 -178 71q-144 0 -216 -116t-72 -282zM84 438q0 287 198 426q110 78 271 78q213 0 326 -125t113 -327t-125 -358q-124 -157 -340 -157q-215 0 -329 130t-114 333zM307 1212v111h447
v-111h-447z" />
    <glyph glyph-name="Obreve" unicode="&#x14e;" horiz-adv-x="1622" 
d="M802 1479q-126 0 -205 59t-79 156q0 39 14 80h64q-14 -92 51 -139q66 -46 155 -46t151 43t55 142h65q12 -35 12 -82q0 -96 -78 -155q-79 -58 -205 -58zM98 668q0 188 84 351t254 267t393 105q303 1 499 -185t196 -475q0 -201 -93 -373t-265 -277t-384 -106
q-296 0 -490 201t-194 492zM266 719q0 -159 64 -309t193 -254q130 -104 294 -104t290 95q126 97 188 239t63 296q0 248 -155 440t-399 193q-244 0 -390 -178q-148 -178 -148 -418z" />
    <glyph glyph-name="obreve" unicode="&#x14f;" horiz-adv-x="1075" 
d="M346 1419v-20q0 -86 42 -132t142 -46q54 0 94 18q40 19 56 37t26 53q9 35 9 44v46h65q10 -45 11 -73q0 -104 -73 -171t-188 -67q-116 0 -188 67t-72 171q0 41 11 73h65zM240 483q0 -248 131 -374q72 -70 174 -70q133 0 212 105t79 288q4 246 -130 378q-73 71 -178 71
q-144 0 -216 -116t-72 -282zM84 438q0 287 198 426q110 78 271 78q213 0 326 -125t113 -327t-125 -358q-124 -157 -340 -157q-215 0 -329 130t-114 333z" />
    <glyph glyph-name="Ohungarumlaut" unicode="&#x150;" horiz-adv-x="1622" 
d="M98 668q0 188 84 351t254 267t393 105q303 1 499 -185t196 -475q0 -201 -93 -373t-265 -277t-384 -106q-296 0 -490 201t-194 492zM266 719q0 -159 64 -309t193 -254q130 -104 294 -104t290 95q126 97 188 239t63 296q0 248 -155 440t-399 193q-244 0 -390 -178
q-148 -178 -148 -418zM950 1470l-55 35l152 267l182 18v-55zM616 1470l-57 35l133 267l180 18v-55z" />
    <glyph glyph-name="ohungarumlaut" unicode="&#x151;" horiz-adv-x="1075" 
d="M240 483q0 -248 131 -374q72 -70 174 -70q133 0 212 105t79 288q4 246 -130 378q-73 71 -178 71q-144 0 -216 -116t-72 -282zM84 438q0 287 198 426q110 78 271 78q213 0 326 -125t113 -327t-125 -358q-124 -157 -340 -157q-215 0 -329 130t-114 333zM674 1032l-58 33
l164 350l142 17v-56zM395 1032l-57 33l164 350l141 17v-56z" />
    <glyph glyph-name="OE" unicode="&#x152;" horiz-adv-x="2023" 
d="M411 1129q-145 -174 -145 -415t149 -443q73 -99 193 -159t269 -61q223 0 223 133v1022q0 40 -20 58q-55 51 -137 51h-69q-154 0 -274 -50t-189 -136zM98 665q0 292 205 509t541 217q62 -1 162 -13t157 -12h592l146 8l-64 -336h-68q8 152 -42 205t-179 53h-280l-21 -20
v-549h391l17 117l74 12v-350h-95v151h-366l-21 -20v-453l-10 -114h334q127 0 174 44t129 216h68l-76 -330h-733q-88 0 -167 -12t-139 -13q-325 0 -527 199t-202 491z" />
    <glyph glyph-name="oe" unicode="&#x153;" horiz-adv-x="1712" 
d="M1251 872q-104 0 -170 -84t-82 -208l463 59q0 23 -16 72t-36 80t-64 56q-42 25 -95 25zM240 483q0 -248 131 -374q72 -70 174 -70q133 0 212 105t79 288q4 246 -130 378q-73 71 -178 71q-144 0 -216 -116t-72 -282zM926 735q120 207 366 207q126 0 230 -89t108 -243
q-39 -14 -80 -20l-534 -80l-23 -25q2 -165 86 -277t250 -112q78 0 147 26t97 52l31 27l20 -37q-12 -22 -50 -60q-126 -126 -308 -129q-238 0 -351 205q-135 -205 -397 -205q-206 0 -320 130t-114 333q0 287 198 426q110 78 271 78q270 0 373 -207z" />
    <glyph glyph-name="Racute" unicode="&#x154;" horiz-adv-x="1255" 
d="M428 1546l352 211h11l59 -94v-47l-399 -131zM412 686h178q113 0 201 80t88 215t-88 225t-277 90h-84l-18 -20v-590zM264 182v987q0 76 -27 102q-28 26 -145 48v47h438q262 0 386 -91t124 -231t-89 -241q-89 -100 -187 -150v-22l295 -428q61 -88 99 -112t91 -28l23 -2
l-8 -61h-263l-8 6q-49 106 -131 225l-262 383h-170l-18 -18v-414l-11 -104l185 -19l-8 -53l-465 -12v61q71 8 111 42t40 85z" />
    <glyph glyph-name="racute" unicode="&#x155;" horiz-adv-x="741" 
d="M215 182v504q0 95 -16 117t-45 22h-97v54q151 33 269 77l34 15l7 -6q-18 -76 -23 -263q61 112 133 176t137 64q106 0 107 -84q0 -42 -26 -66t-52 -24t-51 16q-53 34 -112 -3t-130 -117v-482l-10 -110l199 -19l-9 -47l-446 -12v55q131 14 131 133zM375 1032l-58 33
l181 350l153 17v-56z" />
    <glyph glyph-name="Rcommaaccent" unicode="&#x156;" horiz-adv-x="1255" 
d="M412 686h178q113 0 201 80t88 215t-88 225t-277 90h-84l-18 -20v-590zM264 182v987q0 76 -27 102q-28 26 -145 48v47h438q262 0 386 -91t124 -231t-89 -241q-89 -100 -187 -150v-22l295 -428q61 -88 99 -112t91 -28l23 -2l-8 -61h-263l-8 6q-49 106 -131 225l-262 383
h-170l-18 -18v-414l-11 -104l185 -19l-8 -53l-465 -12v61q71 8 111 42t40 85zM678 -302q0 66 -84 167l24 47h123q51 -74 51 -154t-58 -146q-60 -66 -132 -106l-39 58q115 68 115 134z" />
    <glyph glyph-name="rcommaaccent" unicode="&#x157;" horiz-adv-x="741" 
d="M215 182v504q0 95 -16 117t-45 22h-97v54q151 33 269 77l34 15l7 -6q-18 -76 -23 -263q61 112 133 176t137 64q106 0 107 -84q0 -42 -26 -66t-52 -24t-51 16q-53 34 -112 -3t-130 -117v-482l-10 -110l199 -19l-9 -47l-446 -12v55q131 14 131 133zM403 -242
q0 -80 -59 -146t-131 -106l-39 58q115 68 115 134t-84 167l24 47h123q51 -74 51 -154z" />
    <glyph glyph-name="Rcaron" unicode="&#x158;" horiz-adv-x="1255" 
d="M279 1741l49 43l260 -172h4l260 172l49 -43l-262 -271h-94zM412 686h178q113 0 201 80t88 215t-88 225t-277 90h-84l-18 -20v-590zM264 182v987q0 76 -27 102q-28 26 -145 48v47h438q262 0 386 -91t124 -231t-89 -241q-89 -100 -187 -150v-22l295 -428q61 -88 99 -112
t91 -28l23 -2l-8 -61h-263l-8 6q-49 106 -131 225l-262 383h-170l-18 -18v-414l-11 -104l185 -19l-8 -53l-465 -12v61q71 8 111 42t40 85z" />
    <glyph glyph-name="rcaron" unicode="&#x159;" horiz-adv-x="741" 
d="M215 182v504q0 95 -16 117t-45 22h-97v54q151 33 269 77l34 15l7 -6q-18 -76 -23 -263q61 112 133 176t137 64q106 0 107 -84q0 -42 -26 -66t-52 -24t-51 16q-53 34 -112 -3t-130 -117v-482l-10 -110l199 -19l-9 -47l-446 -12v55q131 14 131 133zM356 1071l-233 338
l55 35l213 -225l213 225l55 -35l-231 -338h-72z" />
    <glyph glyph-name="Sacute" unicode="&#x15a;" horiz-adv-x="1028" 
d="M369 1546l352 211h10l60 -94v-47l-400 -131zM207 354q0 -168 85 -238t207 -71q121 0 199 54q78 53 78 163q0 193 -227 326q-93 55 -189 112q-96 56 -162 144t-67 200q0 154 117 250t332 97q133 1 228 -19t99 -20l-61 -314h-66q20 119 -41 201t-181 82t-194 -55
q-74 -56 -75 -164q0 -190 227 -315q94 -52 188 -108t162 -145q66 -89 66 -210q0 -170 -129 -259t-301 -89t-288 54q-118 54 -116 156q0 31 41 168h68z" />
    <glyph glyph-name="sacute" unicode="&#x15b;" horiz-adv-x="784" 
d="M400 39q86 0 136 40t50 105q0 66 -49 114t-121 83t-143 73t-119 98t-50 156q0 96 84 164q84 70 246 70q108 0 213 -24l35 -11l-39 -205h-61q0 60 -23 100t-70 57t-115 19q-69 1 -109 -40q-40 -40 -40 -98t49 -104t120 -78t142 -69q72 -37 120 -103t48 -168
q0 -104 -84 -174q-85 -70 -231 -69q-77 -1 -156 17q-147 33 -147 121l23 151h59q8 -119 77 -172t155 -53zM389 1032l-57 33l180 350l154 17v-56z" />
    <glyph glyph-name="Scircumflex" unicode="&#x15c;" horiz-adv-x="1028" 
d="M219 1513l264 271h97l262 -271l-49 -43l-261 175h-4l-260 -175zM207 354q0 -168 85 -238t207 -71q121 0 199 54q78 53 78 163q0 193 -227 326q-93 55 -189 112q-96 56 -162 144t-67 200q0 154 117 250t332 97q133 1 228 -19t99 -20l-61 -314h-66q20 119 -41 201t-181 82
t-194 -55q-74 -56 -75 -164q0 -190 227 -315q94 -52 188 -108t162 -145q66 -89 66 -210q0 -170 -129 -259t-301 -89t-288 54q-118 54 -116 156q0 31 41 168h68z" />
    <glyph glyph-name="scircumflex" unicode="&#x15d;" horiz-adv-x="784" 
d="M400 39q86 0 136 40t50 105q0 66 -49 114t-121 83t-143 73t-119 98t-50 156q0 96 84 164q84 70 246 70q108 0 213 -24l35 -11l-39 -205h-61q0 60 -23 100t-70 57t-115 19q-69 1 -109 -40q-40 -40 -40 -98t49 -104t120 -78t142 -69q72 -37 120 -103t48 -168
q0 -104 -84 -174q-85 -70 -231 -69q-77 -1 -156 17q-147 33 -147 121l23 151h59q8 -119 77 -172t155 -53zM137 1065l234 360h71l232 -360l-56 -35l-212 242l-213 -242z" />
    <glyph glyph-name="Scedilla" unicode="&#x15e;" horiz-adv-x="1028" 
d="M408 -153q0 38 61 128q-149 3 -261 57t-110 154q0 31 41 168h68q0 -168 85 -238t207 -71q121 0 199 54q78 53 78 163q0 193 -227 326q-93 55 -189 112q-96 56 -162 144t-67 200q0 154 117 250t332 97q133 1 228 -19t99 -20l-61 -314h-66q20 119 -41 201t-181 82t-194 -55
q-74 -56 -75 -164q0 -190 227 -315q94 -52 188 -108t162 -145q66 -89 66 -210q0 -156 -111 -245t-282 -102q-19 -45 -19 -71q-1 -40 84 -73q31 -11 58 -42t26 -76q0 -76 -66 -138t-157 -62q-47 0 -92 17t-66 36l-20 18l28 62q69 -49 131 -49q62 1 92 23t30 50q-1 46 -81 80
q-79 31 -79 95z" />
    <glyph glyph-name="scedilla" unicode="&#x15f;" horiz-adv-x="784" 
d="M299 -153q0 38 61 128q-274 12 -274 138l23 151h59q8 -119 77 -172t155 -53t136 40t50 105q0 66 -49 114t-121 83t-143 73t-119 98t-50 156q0 96 84 164q84 70 246 70q108 0 213 -24l35 -11l-39 -205h-61q0 60 -23 100t-70 57t-115 19q-69 1 -109 -40q-40 -40 -40 -98
t49 -104t120 -78t142 -69q72 -37 120 -103t48 -164q0 -100 -73 -168q-74 -68 -201 -77q-18 -47 -18 -71q0 -40 84 -73q32 -11 58 -42t26 -76q0 -76 -66 -138t-158 -62q-47 0 -92 17t-65 36l-21 18l29 62q70 -49 131 -49q61 1 91 23t30 50q0 45 -80 80q-80 31 -80 95z" />
    <glyph glyph-name="Scaron" unicode="&#x160;" horiz-adv-x="1028" 
d="M219 1741l49 43l260 -172h4l261 172l49 -43l-262 -271h-95zM207 354q0 -168 85 -238t207 -71q121 0 199 54q78 53 78 163q0 193 -227 326q-93 55 -189 112q-96 56 -162 144t-67 200q0 154 117 250t332 97q133 1 228 -19t99 -20l-61 -314h-66q20 119 -41 201t-181 82
t-194 -55q-74 -56 -75 -164q0 -190 227 -315q94 -52 188 -108t162 -145q66 -89 66 -210q0 -170 -129 -259t-301 -89t-288 54q-118 54 -116 156q0 31 41 168h68z" />
    <glyph glyph-name="scaron" unicode="&#x161;" horiz-adv-x="784" 
d="M400 39q86 0 136 40t50 105q0 66 -49 114t-121 83t-143 73t-119 98t-50 156q0 96 84 164q84 70 246 70q108 0 213 -24l35 -11l-39 -205h-61q0 60 -23 100t-70 57t-115 19q-69 1 -109 -40q-40 -40 -40 -98t49 -104t120 -78t142 -69q72 -37 120 -103t48 -168
q0 -104 -84 -174q-85 -70 -231 -69q-77 -1 -156 17q-147 33 -147 121l23 151h59q8 -119 77 -172t155 -53zM371 1071l-234 338l56 35l213 -225l212 225l56 -35l-232 -338h-71z" />
    <glyph glyph-name="Tcommaaccent" unicode="&#x162;" horiz-adv-x="1310" 
d="M530 -162q0 53 78 162l-184 -6v61q72 8 112 43t39 90v1108h-213q-114 0 -170 -51t-112 -207h-66l64 340q53 -12 137 -12h940q84 0 129 10l19 2l-64 -340h-65q10 154 -39 206t-177 52h-217l-18 -20v-1088l-10 -110l205 -19l-9 -53l-239 -6q-27 -63 -27 -91t27 -46
q28 -17 58 -29t56 -43t27 -76q0 -76 -66 -138t-157 -62q-47 0 -92 17t-66 36l-20 18l28 62q70 -49 132 -49q62 1 90 23q30 22 30 50q0 46 -80 80q-32 12 -56 35t-24 51z" />
    <glyph glyph-name="tcommaaccent" unicode="&#x163;" horiz-adv-x="692" 
d="M301 -162q0 55 64 139q-180 23 -181 267v446l6 133h-137v51q90 18 140 64l73 221h64l6 -6q-18 -66 -19 -207v-28h330l-14 -89h-295l-19 -20v-543q0 -92 35 -137t117 -45t158 31l26 10l25 -33q-97 -97 -250 -115q-16 -45 -16 -71q0 -41 84 -73q32 -11 58 -42t26 -76
q0 -76 -66 -138t-158 -62q-47 0 -92 17t-65 36l-21 18l29 62q70 -49 131 -49q61 1 91 23t30 50q0 45 -80 80q-31 12 -55 34t-25 52z" />
    <glyph glyph-name="Tcaron" unicode="&#x164;" horiz-adv-x="1310" 
d="M336 1741l49 43l260 -172h4l260 172l49 -43l-262 -271h-94zM575 1296h-213q-114 0 -170 -51t-112 -207h-66l64 340q53 -12 137 -12h940q84 0 129 10l19 2l-64 -340h-65q10 154 -39 206t-177 52h-217l-18 -20v-1088l-10 -110l205 -19l-9 -53l-485 -12v61q72 8 112 43
t39 90v1108z" />
    <glyph glyph-name="tcaron" unicode="&#x165;" horiz-adv-x="692" 
d="M184 244v446l6 133h-137v51q90 18 140 64l73 221h64l6 -6q-18 -66 -19 -207v-28h330l-14 -89h-295l-19 -20v-543q0 -92 35 -137t117 -45t158 31l26 10l25 -33q-12 -12 -35 -32t-95 -52q-72 -33 -147 -33q-219 1 -219 269zM465 1128l51 379l139 21v-35l-133 -365h-57z" />
    <glyph glyph-name="Tbar" unicode="&#x166;" horiz-adv-x="1310" 
d="M248 672v78h327v546h-213q-114 0 -170 -51t-112 -207h-66l64 340q53 -12 137 -12h940q84 0 129 10l19 2l-64 -340h-65q10 154 -39 206t-177 52h-217l-18 -20v-526h317v-78h-317v-484l-10 -110l205 -19l-9 -53l-485 -12v61q72 8 112 43t39 90v484h-327z" />
    <glyph glyph-name="tbar" unicode="&#x167;" horiz-adv-x="692" 
d="M53 510v76h131v104l6 133h-137v51q90 18 140 64l73 221h64l6 -6q-18 -66 -19 -207v-28h330l-14 -89h-295l-19 -20v-223h316v-76h-316v-244q0 -92 35 -137t117 -45t158 31l26 10l25 -33q-12 -12 -35 -32t-95 -52q-72 -33 -147 -33q-219 0 -219 269v266h-131z" />
    <glyph glyph-name="Utilde" unicode="&#x168;" horiz-adv-x="1505" 
d="M954 1618q42 0 70 31q29 31 37 63l6 31l66 -4q1 -25 -15 -74t-36 -80t-64 -57q-42 -26 -108 -25t-170 63t-145 62q-40 0 -69 -32t-39 -62l-10 -31l-63 13q0 25 16 78q44 149 184 149q58 -1 178 -63t162 -62zM211 481v688q0 80 -23 104t-133 46v47h164l197 8l10 -8
q-68 -76 -68 -244v-624q0 -215 122 -328t295 -113t305 114t132 312v676q0 41 -3 61q-9 59 -69 75q-36 11 -98 18v53h390l10 -25q-6 -2 -16 -5t-32 -18q-48 -31 -69 -83q-20 -53 -20 -100v-646q0 -241 -163 -377q-164 -136 -388 -136t-378 111q-77 55 -121 157t-44 237z" />
    <glyph glyph-name="utilde" unicode="&#x169;" horiz-adv-x="1136" 
d="M268 1155v26q0 15 8 56q17 88 75 128q36 26 84 26q85 0 145 -75t102 -75q43 0 63 35t25 67l2 35h70q0 -156 -86 -219q-37 -27 -85 -27t-86 24t-59 52q-54 78 -108 76q-33 0 -53 -32t-25 -64l-2 -33h-70zM184 250v436q0 95 -16 117t-45 22h-76v54q146 27 244 61l39 12
l8 -6q-18 -57 -19 -215v-446q0 -113 37 -157t111 -44q168 0 330 164v438q0 53 -3 78q-7 61 -59 61h-73v54q145 26 241 61l37 12l10 -6q-18 -57 -18 -215v-541q0 -80 26 -98t89 -18h59l-6 -51l-307 -41l-11 6q20 59 21 110v113q-162 -236 -395 -236q-224 1 -224 275z" />
    <glyph glyph-name="Umacron" unicode="&#x16a;" horiz-adv-x="1505" 
d="M518 1573v110h508v-110h-508zM211 481v688q0 80 -23 104t-133 46v47h164l197 8l10 -8q-68 -76 -68 -244v-624q0 -215 122 -328t295 -113t305 114t132 312v676q0 41 -3 61q-9 59 -69 75q-36 11 -98 18v53h390l10 -25q-6 -2 -16 -5t-32 -18q-48 -31 -69 -83
q-20 -53 -20 -100v-646q0 -241 -163 -377q-164 -136 -388 -136t-378 111q-77 55 -121 157t-44 237z" />
    <glyph glyph-name="umacron" unicode="&#x16b;" horiz-adv-x="1136" 
d="M332 1212v111h446v-111h-446zM184 250v436q0 95 -16 117t-45 22h-76v54q146 27 244 61l39 12l8 -6q-18 -57 -19 -215v-446q0 -113 37 -157t111 -44q168 0 330 164v438q0 53 -3 78q-7 61 -59 61h-73v54q145 26 241 61l37 12l10 -6q-18 -57 -18 -215v-541q0 -80 26 -98
t89 -18h59l-6 -51l-307 -41l-11 6q20 59 21 110v113q-162 -236 -395 -236q-224 1 -224 275z" />
    <glyph glyph-name="Ubreve" unicode="&#x16c;" horiz-adv-x="1505" 
d="M771 1479q-126 0 -205 59t-79 156q0 39 15 80h63q-14 -92 51 -139q66 -46 155 -46t152 43q62 43 54 142h65q12 -35 13 -82q0 -96 -79 -154t-205 -59zM211 481v688q0 80 -23 104t-133 46v47h164l197 8l10 -8q-68 -76 -68 -244v-624q0 -215 122 -328t295 -113t305 114
t132 312v676q0 41 -3 61q-9 59 -69 75q-36 11 -98 18v53h390l10 -25q-6 -2 -16 -5t-32 -18q-48 -31 -69 -83q-20 -53 -20 -100v-646q0 -241 -163 -377q-164 -136 -388 -136t-378 111q-77 55 -121 157t-44 237z" />
    <glyph glyph-name="ubreve" unicode="&#x16d;" horiz-adv-x="1136" 
d="M371 1419v-20q0 -86 42 -132t142 -46q55 0 94 18q39 19 55 37t26 53q9 35 9 44v46h66q10 -45 10 -73q-1 -104 -73 -171t-187 -67t-187 67t-73 171q0 41 10 73h66zM184 250v436q0 95 -16 117t-45 22h-76v54q146 27 244 61l39 12l8 -6q-18 -57 -19 -215v-446
q0 -113 37 -157t111 -44q168 0 330 164v438q0 53 -3 78q-7 61 -59 61h-73v54q145 26 241 61l37 12l10 -6q-18 -57 -18 -215v-541q0 -80 26 -98t89 -18h59l-6 -51l-307 -41l-11 6q20 59 21 110v113q-162 -236 -395 -236q-224 1 -224 275z" />
    <glyph glyph-name="Uring" unicode="&#x16e;" horiz-adv-x="1505" 
d="M211 481v688q0 80 -23 104t-133 46v47h164l197 8l10 -8q-68 -76 -68 -244v-624q0 -215 122 -328t295 -113t305 114t132 312v676q0 41 -3 61q-9 59 -69 75q-36 11 -98 18v53h390l10 -25q-6 -2 -16 -5t-32 -18q-48 -31 -69 -83q-20 -53 -20 -100v-646q0 -241 -163 -377
q-164 -136 -388 -136t-378 111q-77 55 -121 157t-44 237zM772 1468q47 0 74 31t26 72q0 41 -26 71t-74 29q-49 0 -74 -30q-24 -29 -24 -71t26 -72t72 -30zM772 1405q-90 0 -139 50t-49 118t49 114t139 46t139 -46t49 -114t-48 -118q-50 -50 -140 -50z" />
    <glyph glyph-name="uring" unicode="&#x16f;" horiz-adv-x="1136" 
d="M184 250v436q0 95 -16 117t-45 22h-76v54q146 27 244 61l39 12l8 -6q-18 -57 -19 -215v-446q0 -113 37 -157t111 -44q168 0 330 164v438q0 53 -3 78q-7 61 -59 61h-73v54q145 26 241 61l37 12l10 -6q-18 -57 -18 -215v-541q0 -80 26 -98t89 -18h59l-6 -51l-307 -41l-11 6
q20 59 21 110v113q-162 -236 -395 -236q-224 1 -224 275zM555 1161q47 0 74 31t26 72q1 40 -25 70t-75 30t-74 -30t-25 -72t26 -71q26 -30 73 -30zM555 1098q-90 0 -139 50t-49 118t49 114t139 45q90 0 139 -46q49 -45 49 -113t-49 -118t-139 -50z" />
    <glyph glyph-name="Uhungarumlaut" unicode="&#x170;" horiz-adv-x="1505" 
d="M211 481v688q0 80 -23 104t-133 46v47h164l197 8l10 -8q-68 -76 -68 -244v-624q0 -215 122 -328t295 -113t305 114t132 312v676q0 41 -3 61q-9 59 -69 75q-36 11 -98 18v53h390l10 -25q-6 -2 -16 -5t-32 -18q-48 -31 -69 -83q-20 -53 -20 -100v-646q0 -241 -163 -377
q-164 -136 -388 -136t-378 111q-77 55 -121 157t-44 237zM920 1470l-56 35l152 267l182 18v-55zM586 1470l-58 35l134 267l180 18v-55z" />
    <glyph glyph-name="uhungarumlaut" unicode="&#x171;" horiz-adv-x="1136" 
d="M700 1032l-57 33l164 350l141 17v-56zM422 1032l-57 33l163 350l142 17v-56zM184 250v436q0 95 -16 117t-45 22h-76v54q146 27 244 61l39 12l8 -6q-18 -57 -19 -215v-446q0 -113 37 -157t111 -44q168 0 330 164v438q0 53 -3 78q-7 61 -59 61h-73v54q145 26 241 61l37 12
l10 -6q-18 -57 -18 -215v-541q0 -80 26 -98t89 -18h59l-6 -51l-307 -41l-11 6q20 59 21 110v113q-162 -236 -395 -236q-224 1 -224 275z" />
    <glyph glyph-name="Uogonek" unicode="&#x172;" horiz-adv-x="1509" 
d="M211 481v688q0 80 -23 104t-133 46v47h164l197 8l10 -8q-68 -76 -68 -244v-624q0 -215 122 -328t295 -113t305 114t132 312v676q0 41 -3 61q-9 59 -69 75q-36 11 -98 18v53h390l10 -25q-6 -2 -16 -5t-32 -18q-48 -31 -69 -83q-20 -53 -20 -100v-646q0 -153 -71 -267
t-192 -177q-68 -43 -150 -136t-81 -185q0 -133 143 -134l45 4l13 -45q-100 -35 -174 -35t-125 50q-51 49 -51 127t57 144q57 67 153 153q-288 -52 -496 99q-77 55 -121 157t-44 237z" />
    <glyph glyph-name="uogonek" unicode="&#x173;" horiz-adv-x="1136" 
d="M184 250v436q0 95 -16 117t-45 22h-76v54q146 27 244 61l39 12l8 -6q-18 -57 -19 -215v-446q0 -113 37 -157t111 -44q168 0 330 164v438q0 53 -3 78q-7 61 -59 61h-73v54q145 26 241 61l37 12l10 -6q-18 -57 -18 -215v-541q0 -80 26 -98t89 -18h59l-6 -51
q-82 -8 -189 -23q-59 -20 -127 -112t-68 -165t43 -103q42 -30 103 -30l41 4l12 -45q-101 -35 -173 -35t-125 51q-52 49 -52 113t35 120t68 88t116 108q18 55 19 104v113q-162 -236 -395 -236q-224 1 -224 275z" />
    <glyph glyph-name="Wcircumflex" unicode="&#x174;" horiz-adv-x="1976" 
d="M-6 1366h129l182 8l8 -8q-45 -100 -12 -188l305 -824q20 -55 41 -133l285 895l-35 90q-16 39 -47 67t-53 38l-23 8v47h129l182 8l9 -8q-45 -100 -13 -188l305 -828q27 -78 39 -127l289 918q25 71 1 113t-101 65v47h303l8 -25q-23 -12 -63 -76q-39 -65 -68 -147
l-362 -1136l-66 24l-389 993l-322 -1017l-67 24l-471 1200q-16 39 -47 67t-54 38l-22 8v47zM657 1513l265 271h96l262 -271l-49 -43l-260 175h-4l-260 -175z" />
    <glyph glyph-name="wcircumflex" unicode="&#x175;" horiz-adv-x="1484" 
d="M10 918h94l168 8l9 -8q-37 -88 0 -189l168 -457q20 -63 30 -104l207 498q23 55 16 82l3 4q-15 46 -45 76t-50 36l-20 6v48h98l168 8l8 -8q-10 -26 -16 -87t14 -102l166 -446q18 -47 33 -115l231 555q25 55 -6 94t-94 53v48h266l10 -33q-39 -16 -75 -109l-338 -803l-60 27
l-245 633l-279 -660l-59 27l-291 752q-18 46 -46 76t-46 36l-19 6v48zM494 1065l233 360h72l231 -360l-55 -35l-213 242l-213 -242z" />
    <glyph glyph-name="Ycircumflex" unicode="&#x176;" horiz-adv-x="1200" 
d="M301 1513l264 271h97l262 -271l-50 -43l-260 175h-4l-260 -175zM530 180v424l-399 625q-47 67 -92 84l-16 6v47h94l182 8l8 -8q-41 -78 4 -147l262 -420q31 -49 62 -115l315 508q29 39 11 77t-93 50v47h328l8 -25q-86 -29 -147 -129l-379 -612v-420l-10 -102l188 -19
l-8 -53l-469 -12v61q71 8 111 41t40 84z" />
    <glyph glyph-name="ycircumflex" unicode="&#x177;" horiz-adv-x="940" 
d="M215 1065l234 360h71l232 -360l-56 -35l-213 242l-213 -242zM53 -406q-1 76 101 76q58 0 111 42q52 42 79 100l82 190q-10 37 -45 125l-256 625q-18 45 -49 76t-64 42v48h97l176 8l8 -8q-17 -38 -17 -92t17 -97l170 -432l41 -125l241 551q47 104 -112 147v48h278l11 -33
q-39 -16 -76 -109l-371 -833q-4 -9 -29 -67q-85 -200 -152 -275q-30 -33 -73 -60t-84 -27t-63 24t-21 56z" />
    <glyph glyph-name="Ydieresis" unicode="&#x178;" horiz-adv-x="1200" 
d="M281 1624q0 39 30 70q31 30 70 30t70 -30t31 -70q0 -39 -32 -71q-30 -31 -69 -31t-70 31q-30 32 -30 71zM739 1624q0 39 31 70q31 30 70 30q40 0 70 -30t30 -70q0 -39 -31 -71q-31 -31 -69 -31t-70 32q-31 32 -31 70zM530 180v424l-399 625q-47 67 -92 84l-16 6v47h94
l182 8l8 -8q-41 -78 4 -147l262 -420q31 -49 62 -115l315 508q29 39 11 77t-93 50v47h328l8 -25q-86 -29 -147 -129l-379 -612v-420l-10 -102l188 -19l-8 -53l-469 -12v61q71 8 111 41t40 84z" />
    <glyph glyph-name="Zacute" unicode="&#x179;" horiz-adv-x="1255" 
d="M487 1546l353 211h10l59 -94v-47l-399 -131zM481 1296q-131 0 -185 -49t-112 -209h-65l49 328h836l131 8l8 -74q-25 -39 -103 -145l-712 -985q-14 -18 -84 -100h559q123 0 172 50t125 226q6 16 10 25h66l-84 -371h-887l-131 -8l-13 74q43 49 113 145l719 985q12 18 44 55
t38 45h-494z" />
    <glyph glyph-name="zacute" unicode="&#x17a;" horiz-adv-x="888" 
d="M453 1032l-58 33l180 350l154 17v-56zM332 858q-82 0 -130 -55t-67 -119h-51l37 234h514l141 8l17 -49l-62 -86q-4 -6 -8 -13l-397 -614q-23 -35 -76 -103h274q56 0 102 22t82 67t54 100l6 20h49l-55 -270h-535l-139 -8l-16 49q18 18 73 98l408 621q20 31 74 98h-295z
" />
    <glyph glyph-name="Zdotaccent" unicode="&#x17b;" horiz-adv-x="1255" 
d="M481 1296q-131 0 -185 -49t-112 -209h-65l49 328h836l131 8l8 -74q-25 -39 -103 -145l-712 -985q-14 -18 -84 -100h559q123 0 172 50t125 226q6 16 10 25h66l-84 -371h-887l-131 -8l-13 74q43 49 113 145l719 985q12 18 44 55t38 45h-494zM649 1528q-37 0 -67 30t-29 68
q0 38 30 68q31 30 67 30t66 -30t30 -69q0 -37 -30 -67t-67 -30z" />
    <glyph glyph-name="zdotaccent" unicode="&#x17c;" horiz-adv-x="888" 
d="M471 1161q-37 0 -67 31t-30 69q0 39 30 69t67 30t67 -31t30 -69t-30 -68q-30 -31 -67 -31zM332 858q-82 0 -130 -55t-67 -119h-51l37 234h514l141 8l17 -49l-62 -86q-4 -6 -8 -13l-397 -614q-23 -35 -76 -103h274q56 0 102 22t82 67t54 100l6 20h49l-55 -270h-535
l-139 -8l-16 49q18 18 73 98l408 621q20 31 74 98h-295z" />
    <glyph glyph-name="Zcaron" unicode="&#x17d;" horiz-adv-x="1255" 
d="M338 1741l49 43l260 -172h4l260 172l50 -43l-263 -271h-94zM481 1296q-131 0 -185 -49t-112 -209h-65l49 328h836l131 8l8 -74q-25 -39 -103 -145l-712 -985q-14 -18 -84 -100h559q123 0 172 50t125 226q6 16 10 25h66l-84 -371h-887l-131 -8l-13 74q43 49 113 145
l719 985q12 18 44 55t38 45h-494z" />
    <glyph glyph-name="zcaron" unicode="&#x17e;" horiz-adv-x="888" 
d="M332 858q-82 0 -130 -55t-67 -119h-51l37 234h514l141 8l17 -49l-62 -86q-4 -6 -8 -13l-397 -614q-23 -35 -76 -103h274q56 0 102 22t82 67t54 100l6 20h49l-55 -270h-535l-139 -8l-16 49q18 18 73 98l408 621q20 31 74 98h-295zM436 1071l-233 338l55 35l213 -225
l213 225l55 -35l-231 -338h-72z" />
    <glyph glyph-name="longs" unicode="&#x17f;" horiz-adv-x="559" 
d="M209 182v641h-131v51l131 46v53q0 238 102 375t301 137q78 0 140 -29t61 -84q0 -27 -20 -47q-19 -20 -51 -20t-98 45t-142 45q-78 0 -118 -84t-40 -279v-850l-10 -110l215 -19l-8 -47l-463 -12v55q131 14 131 133z" />
    <glyph glyph-name="florin" unicode="&#x192;" horiz-adv-x="909" 
d="M100 625v77h279q51 375 140 532t256 157t167 -88q0 -33 -24 -55q-50 -47 -166 9q-62 31 -94 31t-49 -28q-43 -72 -97 -558h315l-26 -77h-297q-4 -29 -8 -86q-56 -531 -150 -739t-291 -208q-156 0 -155 89q0 33 24 55q50 46 168 -10q63 -31 94 -31t52 41q49 101 122 803
q2 29 11 86h-271z" />
    <glyph glyph-name="Aringacute" unicode="&#x1fa;" horiz-adv-x="1286" 
d="M643 1372q47 0 74 29t27 69t-26 68q-26 29 -75 29t-74 -29t-25 -69q0 -41 26 -69t73 -28zM428 1702l352 211h11l59 -94v-47l-399 -132zM645 1071q-16 41 -37 113l-235 -617h465zM-18 0v55q104 10 137 92l469 1166q-63 12 -99 57q-35 46 -35 106t50 108q49 48 139 48
t139 -48t49 -108q1 -60 -33 -103q-34 -44 -96 -60l433 -1098q23 -55 43 -93t73 -62q10 -3 43 -9l-8 -51h-90l-281 -6v67q53 3 79 19t10 59l-136 350h-508l-24 -16l-150 -395l174 -25l-8 -53h-370z" />
    <glyph glyph-name="aringacute" unicode="&#x1fb;" horiz-adv-x="925" 
d="M465 989q47 0 74 31t26 72q1 40 -25 70t-75 30t-74 -30t-25 -72t26 -71q26 -30 73 -30zM274 1272l-22 61l352 209h10l60 -92v-49zM334 76q86 0 260 143v238l-68 -11q-119 -18 -215 -76t-96 -163q0 -61 36 -96t83 -35zM729 176q0 -56 10 -76t54 -20t112 43l25 -39
q-36 -43 -95 -76t-112 -33t-89 37t-36 111v55q-10 -20 -47 -63t-72 -70t-92 -49t-119 -21q-98 -1 -152 59t-53 140q-1 133 137 217t324 113l70 10v2q4 152 -8 219q-29 143 -142 144q-101 0 -187 -122q-19 -28 -28 -48l-8 -19h-57l-31 144q102 76 262 100q-57 18 -88 62
t-31 105t50 107t139 45q90 0 139 -46t49 -104q0 -126 -106 -163q104 -12 143 -78t39 -213v-473z" />
    <glyph glyph-name="AEacute" unicode="&#x1fc;" horiz-adv-x="1798" 
d="M1006 1546l352 211h10l59 -94v-47l-399 -131zM874 707v579q-48 -14 -83 -86l-277 -493h360zM-33 0v55q41 5 71 21t41 30t25 41l590 1061q27 41 13 66t-93 45v47h918l143 8l-63 -336h-66q8 152 -42 205t-179 53h-283l-20 -20v-569h393l17 137l71 12v-350h-92v131h-369
l-20 -21v-432l-10 -114h336q127 0 174 44t129 216h65l-76 -330h-639l-276 -6v61q150 16 149 127v455h-382l-27 -19l-301 -540l174 -25l-6 -53h-365z" />
    <glyph glyph-name="aeacute" unicode="&#x1fd;" horiz-adv-x="1449" 
d="M993 872q-109 0 -175 -89t-79 -220l457 86q0 20 -15 68q-15 49 -35 78t-62 53q-40 24 -91 24zM320 76q126 0 217 103q69 80 69 229v61q-215 -41 -297 -94q-37 -25 -67 -70t-31 -102q0 -57 33 -92t76 -35zM59 180q-1 131 147 222t402 135v51q0 141 -30 216q-31 75 -109 75
q-78 1 -134 -47t-79 -95l-23 -47h-57l-31 144q55 41 158 75q103 33 205 33t152 -35t69 -114q104 150 289 149q142 0 242 -87t102 -237q-49 -14 -80 -20l-545 -102q-2 -168 83 -284t253 -116q78 0 147 26t99 52l29 27l22 -37q-11 -23 -51 -61q-130 -126 -312 -127
q-132 -1 -228 69q-95 70 -132 209q-41 -121 -138 -200t-212 -79q-115 1 -177 61t-61 144zM739 1032l-57 33l180 350l154 17v-56z" />
    <glyph glyph-name="Oslashacute" unicode="&#x1fe;" horiz-adv-x="1622" 
d="M651 1546l353 211h10l59 -94v-47l-399 -131zM799 1315q-237 0 -385 -178t-148 -429t158 -454l713 934q-143 127 -338 127zM1358 682q0 260 -160 444l-715 -938q143 -137 338 -137q160 0 286 96q127 97 189 239t62 296zM98 668q0 188 84 351t254 267t388 104t390 -100
l105 137h108l-141 -186q238 -188 238 -510q0 -201 -93 -373t-265 -277t-385 -105q-212 0 -375 108l-111 -145h-111l150 196q-236 203 -236 533z" />
    <glyph glyph-name="oslashacute" unicode="&#x1ff;" horiz-adv-x="1075" 
d="M520 1032l-57 33l180 350l154 17v-56zM551 39q127 -1 206 105t79 276t-58 291l-430 -580q76 -92 203 -92zM240 486q0 -163 59 -281l432 579q-82 96 -214 96q-133 0 -205 -115q-72 -116 -72 -279zM84 438q0 287 198 426q110 78 263 78t256 -63l76 100h100l-111 -150
q125 -123 125 -331t-124 -366q-124 -157 -349 -157q-139 0 -239 62l-74 -98h-105l113 149q-129 127 -129 350z" />
    <glyph glyph-name="Scommaaccent" unicode="&#x218;" horiz-adv-x="1028" 
d="M207 354q0 -168 85 -238t207 -71q121 0 199 54q78 53 78 163q0 193 -227 326q-93 55 -189 112q-96 56 -162 144t-67 200q0 154 117 250t332 97q133 1 228 -19t99 -20l-61 -314h-66q20 119 -41 201t-181 82t-194 -55q-74 -56 -75 -164q0 -190 227 -315q94 -52 188 -108
t162 -145q66 -89 66 -210q0 -170 -129 -259t-301 -89t-288 54q-118 54 -116 156q0 31 41 168h68zM631 -242q1 -80 -59 -146t-132 -106l-39 58q115 68 115 134t-84 167l25 47h123q51 -74 51 -154z" />
    <glyph glyph-name="scommaaccent" unicode="&#x219;" horiz-adv-x="784" 
d="M400 39q86 0 136 40t50 105q0 66 -49 114t-121 83t-143 73t-119 98t-50 156q0 96 84 164q84 70 246 70q108 0 213 -24l35 -11l-39 -205h-61q0 60 -23 100t-70 57t-115 19q-69 1 -109 -40q-40 -40 -40 -98t49 -104t120 -78t142 -69q72 -37 120 -103t48 -168
q0 -104 -84 -174q-85 -70 -231 -69q-77 -1 -156 17q-147 33 -147 121l23 151h59q8 -119 77 -172t155 -53zM522 -242q0 -80 -59 -146t-131 -106l-39 58q115 68 115 134t-84 167l24 47h123q51 -74 51 -154z" />
    <glyph glyph-name="uni021A" unicode="&#x21a;" horiz-adv-x="1310" 
d="M575 1296h-213q-114 0 -170 -51t-112 -207h-66l64 340q53 -12 137 -12h940q84 0 129 10l19 2l-64 -340h-65q10 154 -39 206t-177 52h-217l-18 -20v-1088l-10 -110l205 -19l-9 -53l-485 -12v61q72 8 112 43t39 90v1108zM764 -242q0 -80 -59 -146t-132 -106l-38 58
q115 68 115 134t-85 167l25 47h123q51 -74 51 -154z" />
    <glyph glyph-name="uni021B" unicode="&#x21b;" horiz-adv-x="692" 
d="M184 244v446l6 133h-137v51q90 18 140 64l73 221h64l6 -6q-18 -66 -19 -207v-28h330l-14 -89h-295l-19 -20v-543q0 -92 35 -137t117 -45t158 31l26 10l25 -33q-12 -12 -35 -32t-95 -52q-72 -33 -147 -33q-219 1 -219 269zM524 -242q0 -80 -59 -146t-131 -106l-39 58
q115 68 115 134t-84 167l24 47h123q51 -74 51 -154z" />
    <glyph glyph-name="circumflex" unicode="&#x2c6;" horiz-adv-x="1024" 
d="M244 1065l233 360h72l231 -360l-55 -35l-213 242l-213 -242z" />
    <glyph glyph-name="caron" unicode="&#x2c7;" horiz-adv-x="1024" 
d="M477 1071l-233 338l55 35l213 -225l213 225l55 -35l-231 -338h-72z" />
    <glyph glyph-name="breve" unicode="&#x2d8;" horiz-adv-x="1024" 
d="M328 1419v-20q0 -86 42 -132t142 -46q55 0 94 18q40 19 56 37t25 53t9 44v46h66q10 -45 10 -73q0 -104 -72 -171t-188 -67t-188 67t-72 171q0 41 10 73h66z" />
    <glyph glyph-name="dotaccent" unicode="&#x2d9;" horiz-adv-x="1024" 
d="M512 1161q-37 0 -67 31q-29 31 -29 69q0 39 30 69t66 30q37 0 67 -31q29 -31 29 -69t-30 -68q-30 -31 -66 -31z" />
    <glyph glyph-name="ring" unicode="&#x2da;" horiz-adv-x="1024" 
d="M512 1161q47 0 74 31t26 72q0 40 -26 70t-74 30q-49 0 -74 -30q-24 -30 -24 -72t26 -71q26 -30 72 -30zM512 1098q-90 0 -139 50t-49 118t49 114t139 45q90 0 139 -46q49 -45 49 -113t-49 -118t-139 -50z" />
    <glyph glyph-name="ogonek" unicode="&#x2db;" horiz-adv-x="1024" 
d="M496 -276q0 -133 141 -134l45 4l14 -45q-204 -74 -300 16q-52 50 -52 116t22 101q45 69 89 112q43 43 151 139l109 22l10 -10q-69 -45 -149 -137t-80 -184z" />
    <glyph glyph-name="tilde" unicode="&#x2dc;" horiz-adv-x="1024" 
d="M225 1155v26q0 15 8 56q17 88 75 128q36 26 84 26q85 0 145 -75t102 -75q43 0 63 35t23 67l4 35h70q0 -156 -86 -219q-37 -27 -85 -27t-86 24t-59 52q-54 78 -108 76q-33 0 -53 -32t-23 -64l-4 -33h-70z" />
    <glyph glyph-name="hungarumlaut" unicode="&#x2dd;" horiz-adv-x="1024" 
d="M547 1032l-58 33l164 350l142 17v-56zM268 1032l-57 33l164 350l141 17v-56z" />
    <glyph glyph-name="Omega" unicode="&#x3a9;" horiz-adv-x="1591" 
d="M453 145h51l-38 38q-116 115 -138 151t-54 82q-32 45 -67 140t-35 194q0 280 180 460t448 180t445 -176q176 -176 176 -458q0 -173 -84 -303t-159 -211q-74 -82 -86 -97h47q139 0 191 27t112 137h69l-75 -309h-486l-10 37q2 4 79 108t106 161q28 57 61 127t49 166
q16 95 16 155q0 252 -123 408q-124 156 -334 157q-210 0 -331 -154t-121 -417q0 -115 43 -240t83 -193t114 -170t75 -106l-16 -39h-485l-76 309h70q59 -111 112 -137t191 -27z" />
    <glyph glyph-name="pi" unicode="&#x3c0;" horiz-adv-x="1167" 
d="M379 918h702v-115h-186l-21 -21v-592q0 -68 12 -92t62 -24h78l6 -45q-121 -53 -177 -53t-86 22q-30 23 -30 86v719h-264l-20 -21v-71q0 -240 -57 -462q-30 -118 -83 -196t-120 -78q-35 1 -57 19t-22 52t28 60t64 42t74 52t52 87q35 119 44 201t9 241v74q-164 -2 -262 -82
l-49 31q92 166 303 166z" />
    <glyph glyph-name="Wgrave" unicode="&#x1e80;" horiz-adv-x="1976" 
d="M-6 1366h129l182 8l8 -8q-45 -100 -12 -188l305 -824q20 -55 41 -133l285 895l-35 90q-16 39 -47 67t-53 38l-23 8v47h129l182 8l9 -8q-45 -100 -13 -188l305 -828q27 -78 39 -127l289 918q25 71 1 113t-101 65v47h303l8 -25q-23 -12 -63 -76q-39 -65 -68 -147
l-362 -1136l-66 24l-389 993l-322 -1017l-67 24l-471 1200q-16 39 -47 67t-54 38l-22 8v47zM709 1616v47l59 94h10l352 -211l-22 -61z" />
    <glyph glyph-name="wgrave" unicode="&#x1e81;" horiz-adv-x="1484" 
d="M502 1376v56l153 -17l181 -350l-58 -33zM10 918h94l168 8l9 -8q-37 -88 0 -189l168 -457q20 -63 30 -104l207 498q23 55 16 82l3 4q-15 46 -45 76t-50 36l-20 6v48h98l168 8l8 -8q-10 -26 -16 -87t14 -102l166 -446q18 -47 33 -115l231 555q25 55 -6 94t-94 53v48h266
l10 -33q-39 -16 -75 -109l-338 -803l-60 27l-245 633l-279 -660l-59 27l-291 752q-18 46 -46 76t-46 36l-19 6v48z" />
    <glyph glyph-name="Wacute" unicode="&#x1e82;" horiz-adv-x="1976" 
d="M-6 1366h129l182 8l8 -8q-45 -100 -12 -188l305 -824q20 -55 41 -133l285 895l-35 90q-16 39 -47 67t-53 38l-23 8v47h129l182 8l9 -8q-45 -100 -13 -188l305 -828q27 -78 39 -127l289 918q25 71 1 113t-101 65v47h303l8 -25q-23 -12 -63 -76q-39 -65 -68 -147
l-362 -1136l-66 24l-389 993l-322 -1017l-67 24l-471 1200q-16 39 -47 67t-54 38l-22 8v47zM807 1546l352 211h10l60 -94v-47l-400 -131z" />
    <glyph glyph-name="wacute" unicode="&#x1e83;" horiz-adv-x="1484" 
d="M10 918h94l168 8l9 -8q-37 -88 0 -189l168 -457q20 -63 30 -104l207 498q23 55 16 82l3 4q-15 46 -45 76t-50 36l-20 6v48h98l168 8l8 -8q-10 -26 -16 -87t14 -102l166 -446q18 -47 33 -115l231 555q25 55 -6 94t-94 53v48h266l10 -33q-39 -16 -75 -109l-338 -803l-60 27
l-245 633l-279 -660l-59 27l-291 752q-18 46 -46 76t-46 36l-19 6v48zM745 1032l-57 33l180 350l154 17v-56z" />
    <glyph glyph-name="Wdieresis" unicode="&#x1e84;" horiz-adv-x="1976" 
d="M1096 1624q0 39 30 70q31 30 70 30t70 -30q30 -30 30 -70q0 -39 -30 -71q-30 -31 -70 -31q-39 0 -70 31q-30 32 -30 71zM637 1624q0 39 31 70q32 30 70 30t69 -30t31 -70q0 -39 -31 -71q-31 -31 -70 -31t-69 32t-31 70zM-6 1366h129l182 8l8 -8q-45 -100 -12 -188
l305 -824q20 -55 41 -133l285 895l-35 90q-16 39 -47 67t-53 38l-23 8v47h129l182 8l9 -8q-45 -100 -13 -188l305 -828q27 -78 39 -127l289 918q25 71 1 113t-101 65v47h303l8 -25q-23 -12 -63 -76q-39 -65 -68 -147l-362 -1136l-66 24l-389 993l-322 -1017l-67 24
l-471 1200q-16 39 -47 67t-54 38l-22 8v47z" />
    <glyph glyph-name="wdieresis" unicode="&#x1e85;" horiz-adv-x="1484" 
d="M10 918h94l168 8l9 -8q-37 -88 0 -189l168 -457q20 -63 30 -104l207 498q23 55 16 82l3 4q-15 46 -45 76t-50 36l-20 6v48h98l168 8l8 -8q-10 -26 -16 -87t14 -102l166 -446q18 -47 33 -115l231 555q25 55 -6 94t-94 53v48h266l10 -33q-39 -16 -75 -109l-338 -803l-60 27
l-245 633l-279 -660l-59 27l-291 752q-18 46 -46 76t-46 36l-19 6v48zM930 1159q-39 0 -70 32t-31 71q0 38 31 70t70 32q40 0 70 -32t30 -70t-30 -71q-30 -32 -70 -32zM592 1159q-39 0 -70 32t-30 71q0 38 30 70t70 32q38 0 68 -32t30 -70t-30 -71q-30 -32 -68 -32z" />
    <glyph glyph-name="uni1E9E" unicode="&#x1e9e;" horiz-adv-x="1388" 
d="M199 188v514q0 346 150 518q151 171 417 171q90 -1 243 -13t171 -12l20 -49q-51 -61 -113 -146l-239 -342q180 -48 304 -141q69 -51 110 -126t41 -163q0 -162 -116 -293t-300 -131q-111 0 -210 40t-99 111t79 71q31 0 54 -25q23 -24 35 -54t50 -55t93 -24q127 0 208 95
t81 216q0 150 -148 245t-323 118l-9 61q59 61 119 146l187 264l36 57q-113 80 -280 80q-414 0 -414 -584v-549l-10 -110l135 -19l-8 -53l-395 -12v61q61 8 96 43t35 90z" />
    <glyph glyph-name="Ygrave" unicode="&#x1ef2;" horiz-adv-x="1200" 
d="M354 1616v47l60 94h10l352 -211l-22 -61zM530 180v424l-399 625q-47 67 -92 84l-16 6v47h94l182 8l8 -8q-41 -78 4 -147l262 -420q31 -49 62 -115l315 508q29 39 11 77t-93 50v47h328l8 -25q-86 -29 -147 -129l-379 -612v-420l-10 -102l188 -19l-8 -53l-469 -12v61
q71 8 111 41t40 84z" />
    <glyph glyph-name="ygrave" unicode="&#x1ef3;" horiz-adv-x="940" 
d="M223 1376v56l154 -17l180 -350l-57 -33zM53 -406q-1 76 101 76q58 0 111 42q52 42 79 100l82 190q-10 37 -45 125l-256 625q-18 45 -49 76t-64 42v48h97l176 8l8 -8q-17 -38 -17 -92t17 -97l170 -432l41 -125l241 551q47 104 -112 147v48h278l11 -33q-39 -16 -76 -109
l-371 -833q-4 -9 -29 -67q-85 -200 -152 -275q-30 -33 -73 -60t-84 -27t-63 24t-21 56z" />
    <glyph glyph-name="thinspace" unicode="&#x2009;" horiz-adv-x="30" 
 />
    <glyph glyph-name="endash" unicode="&#x2013;" horiz-adv-x="1105" 
d="M133 467v100h840v-100h-840z" />
    <glyph glyph-name="emdash" unicode="&#x2014;" horiz-adv-x="1904" 
d="M133 467v100h1639v-100h-1639z" />
    <glyph glyph-name="quoteleft" unicode="&#x2018;" horiz-adv-x="409" 
d="M96 1202q0 172 189 291l41 -43q-131 -94 -131 -163t135 -134v-63l-148 -78q-86 77 -86 190z" />
    <glyph glyph-name="quoteright" unicode="&#x2019;" horiz-adv-x="401" 
d="M326 1307q0 -174 -187 -291l-43 43q131 94 131 163t-135 132v63l148 78q86 -74 86 -188z" />
    <glyph glyph-name="quotesinglbase" unicode="&#x201a;" horiz-adv-x="468" 
d="M350 31q0 -172 -186 -291l-41 43q131 94 131 163t-135 132v65l145 78q86 -78 86 -190z" />
    <glyph glyph-name="quotedblleft" unicode="&#x201c;" horiz-adv-x="720" 
d="M96 1202q0 172 189 291l41 -43q-131 -94 -131 -163t135 -134v-63l-148 -78q-86 77 -86 190zM408 1202q0 172 188 291l41 -43q-131 -94 -131 -163t135 -134v-63l-145 -78q-88 77 -88 190z" />
    <glyph glyph-name="quotedblright" unicode="&#x201d;" horiz-adv-x="712" 
d="M637 1307q0 -174 -186 -291l-41 43q131 97 131 163t-135 132v63l145 78q86 -74 86 -188zM326 1307q0 -174 -187 -291l-43 43q131 94 131 163t-135 132v63l148 78q86 -74 86 -188z" />
    <glyph glyph-name="quotedblbase" unicode="&#x201e;" horiz-adv-x="774" 
d="M655 31q0 -172 -186 -291l-41 43q131 94 131 163t-135 132v65l145 78q86 -76 86 -190zM350 31q0 -172 -186 -291l-41 43q131 94 131 163t-135 132v65l145 78q86 -78 86 -190z" />
    <glyph glyph-name="dagger" unicode="&#x2020;" horiz-adv-x="1060" 
d="M146 760q-35 0 -59 28t-24 62q0 36 24 64t58 28q35 0 151 -24t196 -29q-2 92 -26 230t-24 170q0 33 28 55t60 22t59 -23q25 -23 25 -53t-22 -170t-23 -231q80 4 197 29q116 24 150 24t58 -29t24 -63t-24 -63q-24 -27 -59 -27t-151 24t-195 29v-612q5 -91 25 -233t20 -175
t-26 -55t-58 -23q-32 0 -60 23t-28 53q0 31 25 173t25 237v612q-78 -5 -194 -29t-152 -24z" />
    <glyph glyph-name="daggerdbl" unicode="&#x2021;" horiz-adv-x="1060" 
d="M146 760q-35 0 -59 28t-24 62q0 36 24 64t58 28q35 0 151 -24t196 -29q-4 94 -27 230t-23 169q0 34 28 56t60 22t59 -23q25 -23 25 -53t-22 -170t-23 -231q80 4 197 29q116 24 150 24t58 -29t24 -63t-24 -63q-24 -27 -59 -27t-151 24t-195 29v-537q80 4 197 29
q116 25 150 25t58 -29t24 -63t-24 -63q-24 -28 -58 -28t-152 23t-195 29q2 -101 24 -239q21 -138 21 -169t-26 -53t-58 -23q-32 0 -60 23q-28 24 -28 56t23 168t27 237q-78 -6 -196 -29t-152 -23t-57 28q-24 28 -24 63q0 36 24 64t58 28q35 0 151 -25t196 -29v537
q-78 -5 -194 -29t-152 -24z" />
    <glyph glyph-name="bullet" unicode="&#x2022;" horiz-adv-x="765" 
d="M383 252q-115 0 -194 79t-79 193t79 194q79 79 194 79t194 -79t79 -194q0 -116 -80 -194q-78 -78 -193 -78z" />
    <glyph glyph-name="ellipsis" unicode="&#x2026;" horiz-adv-x="1564" 
d="M1219 86q0 45 31 78q32 33 78 33t78 -33t32 -78t-32 -78t-78 -33t-78 33q-31 33 -31 78zM672 86q0 45 33 78t77 33t78 -33q33 -33 33 -78t-33 -78t-78 -33q-46 0 -78 33t-32 78zM125 86q0 45 32 78t78 33q47 0 79 -33t32 -78t-33 -78t-79 -33t-77 33q-32 33 -32 78z" />
    <glyph glyph-name="perthousand" unicode="&#x2030;" horiz-adv-x="2160" 
d="M1808 494q-88 0 -150 -66t-61 -155q-1 -89 61 -153t149 -65q87 0 149 65q61 66 61 154t-61 154q-60 66 -148 66zM1507 274q0 125 88 213t212 88t212 -88t88 -213t-88 -213t-212 -88t-212 88t-88 213zM879 273q0 -89 61 -153t148 -65q87 0 148 65q60 66 60 154t-60 154
t-148 66t-148 -66q-61 -66 -61 -155zM788 274q0 125 88 213t212 88t212 -88t88 -213t-88 -213t-212 -88t-212 88t-88 213zM201 0l954 1372l76 -53l-918 -1319h-112zM166 1036q0 -88 60 -154t148 -65q88 0 148 66q62 65 62 153t-62 154t-148 66q-87 0 -148 -66
q-60 -66 -60 -154zM74 1036q0 125 88 214t212 89t212 -89t88 -214t-88 -213t-212 -88t-212 88t-88 213z" />
    <glyph glyph-name="guilsinglleft" unicode="&#x2039;" horiz-adv-x="684" 
d="M84 508v8q78 55 446 426l56 -20l-277 -410q23 -27 277 -410l-56 -20q-372 375 -446 426z" />
    <glyph glyph-name="guilsinglright" unicode="&#x203a;" horiz-adv-x="686" 
d="M100 102l275 410q-23 23 -275 410l54 20q371 -371 448 -426v-8q-74 -51 -448 -426z" />
    <glyph glyph-name="fraction" unicode="&#x2044;" horiz-adv-x="256" 
d="M-209 0h-110l802 1395l92 -29z" />
    <glyph glyph-name="zerosuperior" unicode="&#x2070;" horiz-adv-x="745" 
d="M366 756q-146 0 -216 118t-70 297q0 177 77 309t224 132t217 -117t70 -295t-78 -311t-224 -133zM221 1184q0 -372 152 -373q151 0 151 373t-149 372q-154 0 -154 -372z" />
    <glyph glyph-name="foursuperior" unicode="&#x2074;" horiz-adv-x="694" 
d="M387 1090v344l-270 -344h270zM512 1470v-380h139l-22 -80h-117v-121l-4 -62l108 -10l-4 -43l-317 -8v45q92 10 92 78v121h-350l-12 69l397 512l98 23q-8 -59 -8 -144z" />
    <glyph glyph-name="fivesuperior" unicode="&#x2075;" horiz-adv-x="608" 
d="M254 756q-61 0 -124 25q-62 26 -62 69q0 51 57 51q29 0 70 -49t85 -49t95 60q51 59 51 123t-34 108t-107 77q-73 32 -158 37l-33 2l21 387h291l108 13l-20 -109h-318l-8 -184q95 -8 191 -45q188 -72 188 -242q0 -106 -86 -190t-207 -84z" />
    <glyph glyph-name="sixsuperior" unicode="&#x2076;" horiz-adv-x="702" 
d="M70 1104q0 196 128 352t355 156l8 -56q-121 -6 -202 -78q-144 -129 -144 -360q0 -123 46 -215q45 -92 109 -92t100 66q36 67 36 155t-47 154t-140 47l-6 55q45 12 90 12q117 0 181 -72q63 -72 63 -180t-78 -200t-214 -92t-211 102q-74 103 -74 246z" />
    <glyph glyph-name="sevensuperior" unicode="&#x2077;" horiz-adv-x="632" 
d="M154 797q0 35 14 51q133 172 250 452l67 166h-278q-57 0 -77 -11t-38 -64h-55l35 206h467l84 11l2 -47q-41 -49 -58 -86l-231 -519q-6 -12 -16 -38t-18 -40q-7 -15 -17 -37q-39 -85 -85 -85t-46 41z" />
    <glyph glyph-name="eightsuperior" unicode="&#x2078;" horiz-adv-x="673" 
d="M236 1446q0 -82 135 -184q80 70 80 176q0 57 -31 88t-80 30q-104 1 -104 -110zM195 977q0 -82 38 -124t94 -42t96 38t40 91t-31 96t-57 65q-27 22 -90 68q-90 -74 -90 -192zM600 979q0 -103 -77 -163t-187 -60t-186 50t-76 142t41 144t127 110q-141 115 -142 238
q0 76 69 124t175 48t166 -46t61 -110q-1 -64 -27 -107q-26 -44 -51 -65q-26 -20 -77 -55q59 -45 92 -74q32 -29 62 -78t30 -98z" />
    <glyph glyph-name="ninesuperior" unicode="&#x2079;" horiz-adv-x="698" 
d="M330 1556q-61 0 -97 -66q-35 -68 -35 -154t45 -151q44 -65 134 -50l8 -56q-45 -12 -90 -12q-113 0 -176 74q-63 75 -63 181t77 198q78 92 212 92t209 -102t75 -246q0 -197 -128 -353q-129 -155 -356 -155l-8 55q121 6 202 79q146 132 144 359q0 123 -46 215t-107 92z" />
    <glyph glyph-name="n.sups" unicode="&#x207f;" horiz-adv-x="845" 
d="M156 1087q0 51 -8 73t-35 22h-68v41l231 73l7 -6q-12 -8 -13 -149q26 33 98 81t164 48q174 0 175 -195v-334l-7 -71l121 -17l-6 -41l-317 -8v43q51 8 69 31t19 63v308q0 143 -92 143q-50 0 -112 -28t-108 -68v-355l-6 -71l127 -17l-8 -41l-324 -8v43q92 14 93 94v346z
" />
    <glyph glyph-name="zeroinferior" unicode="&#x2080;" horiz-adv-x="741" 
d="M377 610q147 0 217 -116t70 -295q0 -177 -78 -311t-224 -134t-217 119q-69 119 -69 297t77 309t224 131zM371 555q-154 -1 -154 -373t152 -372q151 0 151 372t-149 373z" />
    <glyph glyph-name="oneinferior" unicode="&#x2081;" horiz-adv-x="528" 
d="M225 -106v548q0 59 -19 59q-9 -1 -24 -3l-131 -29l-4 57l315 92l7 -8q-16 -43 -17 -139v-577l-4 -62l162 -10l-6 -49l-438 -9v54l86 4q47 2 60 20t13 52z" />
    <glyph glyph-name="twoinferior" unicode="&#x2082;" horiz-adv-x="665" 
d="M432 344q0 94 -40 127t-97 33q-117 0 -199 -76l-37 41q13 16 33 40q20 25 89 63t153 38t154 -53t71 -148q0 -95 -53 -178q-20 -33 -34 -55t-43 -58q-30 -36 -44 -53q-28 -34 -86 -92l-104 -104h239q57 -1 80 23t41 88h53l-33 -211h-516l-14 49l37 30q35 33 76 70t62 62
q21 24 49 55t49 60q114 155 114 249z" />
    <glyph glyph-name="threeinferior" unicode="&#x2083;" horiz-adv-x="645" 
d="M258 -246q-76 0 -146 28t-69 73q0 45 57 45q35 0 84 -50q48 -50 104 -49q56 -1 106 63t50 137t-56 119t-155 46l-51 -4v67q88 3 150 61t63 122q0 100 -102 100q-92 0 -170 -53l-37 41q10 12 28 30t84 50t136 30q70 0 131 -44t61 -128q0 -53 -58 -111t-130 -104
q106 -14 175 -72t69 -139q0 -110 -102 -184t-222 -74z" />
    <glyph glyph-name="fourinferior" unicode="&#x2084;" horiz-adv-x="692" 
d="M387 88v344l-270 -344h270zM512 469v-381h139l-22 -80h-117v-121l-4 -61l108 -10l-4 -43l-317 -9v46q92 10 92 77v121h-350l-12 70l397 512l98 22q-8 -59 -8 -143z" />
    <glyph glyph-name="fiveinferior" unicode="&#x2085;" horiz-adv-x="610" 
d="M256 -246q-61 0 -124 26q-62 26 -62 68q0 51 57 52q29 0 70 -50t85 -49t94 61q52 60 52 124t-34 107q-34 44 -106 76t-157 38l-35 2l21 387h291l108 12l-20 -108h-318l-8 -185q95 -8 191 -45q188 -72 188 -241q0 -107 -86 -191t-207 -84z" />
    <glyph glyph-name="sixinferior" unicode="&#x2086;" horiz-adv-x="700" 
d="M68 102q0 197 128 353t355 155l8 -55q-121 -6 -202 -79q-144 -130 -144 -359q0 -125 46 -216q45 -91 109 -91t100 66t36 154t-47 154t-140 47l-6 56q45 12 90 12q117 0 181 -73q64 -72 63 -180q0 -108 -78 -200t-214 -92q-137 0 -211 102t-74 246z" />
    <glyph glyph-name="seveninferior" unicode="&#x2087;" horiz-adv-x="634" 
d="M154 -205q0 35 14 51q133 172 250 453l67 166h-278q-57 0 -77 -11t-38 -65h-55l35 207h467l84 10l2 -47q-41 -49 -58 -86l-231 -518q-6 -12 -16 -38t-18 -41q-7 -15 -17 -37q-39 -85 -84 -85q-47 0 -47 41z" />
    <glyph glyph-name="eightinferior" unicode="&#x2088;" horiz-adv-x="671" 
d="M236 444q0 -84 135 -184q80 70 80 176q0 57 -31 88t-80 31q-104 0 -104 -111zM195 -25q0 -81 38 -123t94 -42t96 38t40 90q0 54 -31 97q-32 43 -58 65t-89 68q-90 -74 -90 -193zM600 -23q0 -103 -77 -163t-187 -60t-186 50t-76 142t41 145q41 52 127 110
q-141 115 -142 237q0 76 69 124t175 48t166 -46t61 -110q-1 -64 -27 -107q-26 -44 -52 -64t-76 -56q59 -45 92 -73q32 -28 62 -78q30 -49 30 -99z" />
    <glyph glyph-name="nineinferior" unicode="&#x2089;" horiz-adv-x="696" 
d="M330 555q-60 0 -96 -67q-36 -68 -36 -154t45 -151q44 -65 134 -50l8 -55q-45 -12 -90 -12q-113 0 -176 74t-63 180t77 198q78 92 212 92t209 -102t75 -246q-1 -196 -129 -352t-355 -156l-8 56q121 6 202 78q146 131 144 360q0 125 -46 216t-107 91z" />
    <glyph glyph-name="Euro" unicode="&#x20ac;" horiz-adv-x="1069" 
d="M68 406v77h104q-2 17 -2 65t4 79h-106v78h120q43 195 173 321t327 127q138 0 279 -51l45 -17l-66 -213h-57q2 102 -49 154q-52 52 -184 53q-132 0 -216 -106t-106 -268h565l-25 -78h-546v-25q0 -68 8 -119h500l-25 -77h-461q37 -144 121 -236t211 -92q90 0 163 18t99 35
l27 19l28 -41q-14 -14 -40 -37q-25 -23 -113 -60t-187 -37q-199 0 -321 121t-158 310h-112z" />
    <glyph glyph-name="trademark" unicode="&#x2122;" horiz-adv-x="1423" 
d="M610 1366h72l147 4v-4q12 -37 27 -76l94 -272l13 -45l127 336l20 57h25l135 4l4 -4q-25 -35 -25 -104l17 -365l-2 -41l69 -6l-6 -33l-215 -4v37q53 4 53 47l-14 414l-186 -496l-47 8l-177 475l-16 -397l-4 -45l72 -6l-5 -33l-182 -4v37q55 4 60 51l16 369q2 31 -10 41
t-62 20v35zM260 903v414h-49q-39 -1 -64 -21t-51 -77h-43l27 151q31 -4 65 -4h363l65 4l-24 -151h-41q0 55 -20 77t-70 21h-58v-414l-4 -45l78 -8l-2 -33l-225 -4v37q53 4 53 53z" />
    <glyph glyph-name="arrowleft" unicode="&#x2190;" horiz-adv-x="1292" 
d="M1124 752v-101h-684q35 -49 314 -463l-70 -24q-465 465 -559 532v11q41 29 87 68t472 464l70 -27q-248 -373 -312 -460h682z" />
    <glyph glyph-name="arrowup" unicode="&#x2191;" horiz-adv-x="1292" 
d="M594 178v748q-111 -78 -461 -312l-24 70q463 463 532 559h10q31 -41 44 -59q44 -60 489 -500l-29 -70q-328 215 -459 310v-746h-102z" />
    <glyph glyph-name="arrowright" unicode="&#x2192;" horiz-adv-x="1292" 
d="M168 651v101h682q-51 72 -311 462l67 25q446 -442 484 -472q39 -31 77 -60v-11q-37 -25 -108 -88t-453 -444l-67 24q236 354 311 463h-682z" />
    <glyph glyph-name="arrowdown" unicode="&#x2193;" horiz-adv-x="1292" 
d="M594 1243h102v-747q61 45 459 311l29 -72q-441 -437 -473 -477q-31 -40 -60 -80h-10q-80 106 -532 557l24 72q365 -246 461 -315v751z" />
    <glyph glyph-name="partialdiff" unicode="&#x2202;" horiz-adv-x="985" 
d="M414 43q139 0 227 184t102 453q-88 84 -221 84t-228 -132t-95 -268q-1 -136 59 -229q60 -92 156 -92zM360 1444q-46 0 -112 -28t-81 -28t-35 18q-19 17 -19 44q0 82 169 82t311 -115t223 -297t81 -393t-94 -459q-49 -127 -149 -210t-232 -83q-172 1 -270 129t-97 306
q0 178 110 313t301 135t277 -133l2 43q0 190 -42 332t-107 213q-124 131 -236 131z" />
    <glyph glyph-name="Delta" unicode="&#x2206;" horiz-adv-x="1259" 
d="M203 109h825l-403 1042zM59 0v70l553 1296h60l520 -1296v-70h-1133z" />
    <glyph glyph-name="product" unicode="&#x220f;" horiz-adv-x="1472" 
d="M63 1296v70h1348v-70h-166l-18 -20v-1274l-10 -111l184 -18l-8 -53l-461 -13v62q68 8 108 42t39 83v1302h-665l-19 -20v-1274l-10 -111l184 -18l-8 -53l-461 -13v62q70 8 109 43t39 90v1294h-185z" />
    <glyph glyph-name="summation" unicode="&#x2211;" horiz-adv-x="1222" 
d="M61 1366h940l54 -322l-62 -12q-82 158 -116 197q-66 68 -195 67h-408l510 -657l-561 -686h529q134 0 200 40t133 175h64l-96 -352h-717l-287 -6v57l588 725l-576 731v43z" />
    <glyph glyph-name="minus" unicode="&#x2212;" 
d="M74 461v100h917v-100h-917z" />
    <glyph glyph-name="radical" unicode="&#x221a;" horiz-adv-x="1243" 
d="M43 819v103h342l244 -680l454 1292h109l-563 -1608h-4l-318 893h-264z" />
    <glyph glyph-name="infinity" unicode="&#x221e;" horiz-adv-x="1624" 
d="M1409 512q0 98 -61 163t-156 64q-61 0 -142 -56t-132 -114l-50 -57q14 -17 63 -68q255 -262 417 -95q61 65 61 163zM215 512q0 -98 61 -163q62 -64 148 -64t173 71t140 131l21 25q-16 20 -66 70q-160 160 -270 158q-84 -1 -146 -65q-61 -65 -61 -163zM432 190
q-137 0 -232 94t-96 228q0 133 96 227t232 95q188 0 381 -252q193 252 379 252q139 0 233 -94q95 -94 95 -228q0 -133 -94 -227t-234 -95q-184 0 -379 248q-195 -248 -381 -248z" />
    <glyph glyph-name="integral" unicode="&#x222b;" horiz-adv-x="970" 
d="M174 -485q-109 0 -108 82q0 35 29 53q30 18 69 18t87 -16q98 -32 132 2q45 45 45 418l-4 569q0 509 75 701t302 192q109 0 108 -84q-1 -35 -29 -54q-56 -38 -157 -2q-51 17 -80 17t-43 -14q-35 -35 -35 -350l6 -482q0 -422 -21 -588q-21 -165 -49 -239
q-62 -163 -179 -203q-61 -20 -148 -20z" />
    <glyph glyph-name="approxequal" unicode="&#x2248;" 
d="M324 463q84 0 158 -36t136 -72q63 -36 125 -36q121 0 234 117l63 -82q-137 -141 -297 -141q-85 0 -157 36t-136 72t-126 35q-117 1 -232 -114l-65 82q139 139 297 139zM324 809q84 0 158 -36t136 -72q63 -36 125 -35q127 0 234 114l63 -82q-135 -139 -297 -139
q-85 0 -157 36t-136 72t-126 35q-115 1 -232 -116l-65 82q141 141 297 141z" />
    <glyph glyph-name="notequal" unicode="&#x2260;" 
d="M70 662v102h555l149 250l74 -47l-121 -203h266v-102h-325l-176 -297h501v-103h-563l-145 -246l-74 47l117 199h-258v103h319l176 297h-495z" />
    <glyph glyph-name="lessequal" unicode="&#x2264;" 
d="M68 0v100h917v-100h-917zM68 657v95l872 417l27 -106l-756 -358l756 -379l-27 -105z" />
    <glyph glyph-name="greaterequal" unicode="&#x2265;" 
d="M80 0v100h917v-100h-917zM125 221l-27 105l756 379l-756 358l27 106l872 -417v-95z" />
    <glyph glyph-name="triagup" unicode="&#x25b2;" horiz-adv-x="1292" 
d="M646 340q-400 0 -515 -39l-25 74q197 236 330 417t170 244l35 62h10q27 -61 182 -274q156 -213 353 -449l-25 -74q-115 39 -515 39z" />
    <glyph glyph-name="triagrt" unicode="&#x25ba;" horiz-adv-x="1292" 
d="M311 703q0 400 -39 516l74 24q236 -197 417 -330t245 -168l61 -36v-11q-60 -26 -274 -182q-213 -155 -449 -352l-74 24q39 115 39 515z" />
    <glyph glyph-name="triagdn" unicode="&#x25bc;" horiz-adv-x="1292" 
d="M646 1059q400 0 515 39l25 -74q-197 -236 -331 -417t-169 -242l-35 -64h-10q-27 61 -182 274q-156 213 -353 449l25 74q115 -39 515 -39z" />
    <glyph glyph-name="triaglf" unicode="&#x25c4;" horiz-adv-x="1292" 
d="M983 704q0 -400 39 -516l-74 -24q-236 197 -417 331t-244 169l-62 34v11q64 28 276 182q211 155 447 352l74 -24q-39 -115 -39 -515z" />
    <glyph glyph-name="lozenge" unicode="&#x25ca;" horiz-adv-x="1024" 
d="M514 115l328 630l-328 607l-332 -607zM506 -78l-445 821l445 799h14l443 -799l-443 -821h-14z" />
    <glyph glyph-name="Euro.uc" unicode="&#xe012;" 
d="M59 754v88h117q41 238 178 394t351 155q80 -1 130 -15t110 -34t85 -27l-84 -275h-57q23 264 -203 265q-164 0 -248 -130t-104 -333h547l-27 -88h-526v-66q0 -59 2 -88h475l-27 -88h-440q53 -436 377 -436q69 0 139 19t104 38l35 19l29 -41q-12 -18 -49 -44
q-124 -89 -291 -92q-217 0 -347 151t-163 386h-113v88h105q-2 18 -2 69t4 85h-107z" />
    <glyph glyph-name="cent.uc" unicode="&#xe028;" 
d="M291 743q0 -254 192 -331l29 657q-100 -17 -160 -113t-61 -213zM145 688q1 166 99 299t272 156l10 215h88l-10 -213q109 -6 209 -48t100 -110q-1 -73 -85 -75q-42 0 -106 72q-65 73 -120 85l-33 -680q45 -6 97 -6q147 0 252 96l22 -45q-13 -26 -48 -65
q-120 -136 -312 -136h-17l-10 -233h-88l10 244q-160 34 -245 156t-85 288z" />
    <glyph glyph-name="dollar.uc" unicode="&#xe02c;" 
d="M780 306q0 92 -50 152t-142 117l-19 -495q87 8 149 72t62 154zM502 1282q-88 0 -146 -70t-59 -156q0 -88 55 -148t156 -120l16 494h-22zM133 223q0 18 41 168h66q0 -121 58 -206t185 -101l19 541q-10 5 -62 35q-117 66 -195 130q-108 89 -108 225q1 136 105 235t284 108
l9 211h88l-9 -211q116 -4 194 -19q77 -16 95 -18l-57 -291h-66q0 195 -168 238l-18 -527q88 -47 129 -71t102 -73q115 -90 115 -220q0 -172 -104 -263t-269 -106l-6 -211h-88l6 209q-147 6 -247 60t-99 157z" />
    <glyph glyph-name="dotlessi.smcp" unicode="&#xe033;" horiz-adv-x="583" 
d="M225 172v631q0 75 -18 97t-109 42v41h150l162 8l8 -8q-49 -66 -49 -225v-586l-9 -98l160 -19l-8 -49l-414 -12v57q59 4 93 37t34 84z" />
    <glyph glyph-name="florin.uc" unicode="&#xe039;" 
d="M178 707v88h281q51 377 139 533t255 155q167 0 167 -88q0 -35 -23 -55t-63 -21q-40 0 -104 31q-98 48 -128 18t-52 -197q-21 -166 -44 -376h299l-26 -88h-283l-6 -76q-58 -535 -152 -741t-305 -205q-156 0 -156 88q0 35 24 55q25 20 65 20t104 -30t93 -31q30 0 45 18
t41 123t61 430q34 326 39 349h-271z" />
    <glyph glyph-name="sterling.uc" unicode="&#xe03f;" 
d="M694 -51q-80 0 -252 39t-222 39t-116 -27l-22 55q90 44 126 179q22 83 38 348h-160v88h164l2 24q12 253 49 375q37 123 81 183t121 100t153 39q76 1 124 -7q47 -8 90 -34t43 -60q1 -34 -23 -56t-56 -22t-109 46q-78 46 -136 46t-94 -31q-35 -32 -55 -121t-30 -209
t-11 -181l-4 -68l-2 -24h387l-10 -88h-383q-12 -160 -36 -269t-40 -137l-16 -31q233 -66 381 -65q221 0 258 162l14 63h72q-39 -356 -326 -356z" />
    <glyph glyph-name="orn.001" unicode="&#xe04e;" horiz-adv-x="1462" 
d="M225 338q-45 39 -54 84q-19 97 32 110l356 99l70 6q-8 -29 -39 -57l-264 -258q-41 -41 -101 16zM872 580q-30 26 -38 57q31 4 69 -6l354 -99q27 -8 39 -50t-17 -91q-28 -49 -71 -74t-71 2zM205 858q-27 8 -39 50t22 102q32 53 87 73q28 10 51 -12l264 -260q32 -27 39 -57
q-31 -4 -70 6zM834 754q8 29 38 57l265 258q39 39 100 -16q45 -39 55 -85q21 -97 -28 -110l-361 -98zM608 156l92 358q7 26 33 66q18 -27 29 -66l92 -358q10 -39 -33 -63q-85 -47 -178 0q-45 24 -35 63zM733 1321q45 0 88 -24t33 -62l-92 -358l-29 -66q-23 27 -33 66
l-92 358q-10 39 35 63t90 23z" />
    <glyph glyph-name="orn.002" unicode="&#xe04f;" horiz-adv-x="1380" 
d="M692 580q47 0 81 34t34 80q0 47 -34 81t-81 34t-81 -34q-33 -34 -33 -81t33 -81q34 -33 81 -33zM692 1321q45 0 88 -24t33 -62l-90 -348q72 -12 119 -66l254 248q39 39 100 -16q45 -39 55 -85q21 -97 -28 -110l-349 -96q23 -78 0 -135l343 -95q52 -15 36 -95
q-15 -79 -86 -120q-43 -25 -71 2l-256 250q-45 -55 -117 -65l90 -348q10 -39 -33 -63q-85 -47 -178 0q-45 24 -35 63l90 348q-72 12 -116 67l-256 -249q-41 -41 -101 16q-45 39 -54 84q-19 97 32 110l348 97q-12 31 -12 65t10 68l-344 96q-27 8 -39 50t22 102q32 53 87 73
q28 10 51 -12l256 -252q45 55 114 68l-88 348q-10 39 35 63t90 23z" />
    <glyph glyph-name="orn.003" unicode="&#xe050;" horiz-adv-x="1867" 
d="M256 442q-102 0 -102 142t112 274q113 131 285 131q82 0 160 -39t126 -83q47 -43 87 -85q173 -182 243 -227t150 -45q81 0 151 58t70 159q0 39 -14 84t-14 75t29 57q30 26 73 26q102 1 102 -141t-112 -274t-285 -132q-84 0 -165 42t-126 84t-120 123q-76 81 -110 115
t-103 75q-69 40 -145 40t-148 -58q-71 -58 -70 -159q0 -37 14 -82q14 -44 14 -76t-30 -58t-72 -26z" />
    <glyph glyph-name="orn.004" unicode="&#xe051;" horiz-adv-x="1867" 
d="M649 412q1 18 13 31t30 13t32 -12q14 -14 13 -32q1 -88 59 -161t158 -73q37 0 82 14t75 15q31 0 55 -29t24 -67q0 -93 -139 -93t-271 113q-131 113 -131 281zM911 1231q-39 -1 -84 -15t-73 -14t-54 29q-25 29 -24 67q0 92 138 92t270 -110q132 -111 133 -276
q1 -23 -13 -36t-33 -14q-43 0 -43 50q-4 86 -62 156t-155 71zM256 449q-92 0 -92 139t111 270q112 131 278 131q127 0 235 -85q77 -60 185 -171q73 -77 111 -113t102 -73t137 -37t147 58t74 159q0 39 -14 84t-14 73t28 54q29 25 68 25q92 1 92 -139t-113 -271t-278 -131
q-82 0 -162 41t-128 86q-47 45 -113 115q-175 188 -257 221q-43 16 -92 16q-90 0 -164 -58t-73 -159q0 -37 14 -82q14 -44 14 -74t-28 -55q-29 -24 -68 -24z" />
    <glyph glyph-name="orn.005" unicode="&#xe052;" horiz-adv-x="1462" 
d="M256 348q-92 0 -92 139t112 271q113 131 281 131q17 0 31 -12q14 -13 14 -31t-13 -32t-32 -13q-88 -1 -161 -59t-72 -158q0 -39 14 -84t14 -74q0 -30 -28 -54t-68 -24zM860 563q0 17 13 31t32 14q88 0 161 58t73 159q0 39 -15 84q-14 45 -14 74t29 53t67 25q92 0 92 -139
t-112 -271q-113 -131 -281 -131q-18 0 -32 12q-13 13 -13 31zM610 1112q-37 0 -82 -14q-44 -14 -74 -15q-30 0 -55 29t-24 68q0 92 139 92t270 -113t131 -280q0 -17 -12 -31q-13 -14 -31 -14t-31 13t-14 32q0 89 -58 161t-159 72zM547 530q0 18 12 32q13 14 31 13
q18 0 32 -13t13 -32q0 -88 58 -160t159 -73q37 0 82 14q44 15 74 15t55 -29t24 -68q0 -92 -139 -92q-139 1 -270 113t-131 280z" />
    <glyph glyph-name="orn.006" unicode="&#xe053;" horiz-adv-x="1699" 
d="M487 326q-92 0 -92 139t113 270t280 131q18 0 32 -12t14 -30t-14 -32q-14 -13 -32 -14q-88 0 -160 -58t-73 -159q0 -37 14 -82q15 -45 15 -75t-29 -54t-68 -24zM866 541q0 18 14 31t31 14q88 0 161 58t73 159q0 39 -15 84q-14 45 -14 73t29 54q29 25 67 24q92 0 92 -139
t-112 -270q-113 -131 -281 -131q-17 0 -31 12t-14 31zM729 977q-37 -1 -82 -15t-75 -14t-54 29q-25 29 -24 67q0 92 139 92t270 -112q131 -113 131 -281q0 -18 -12 -31q-12 -14 -30 -14t-32 14t-14 31q0 88 -58 161t-159 73zM666 621q0 18 12 31q12 14 30 14t32 -14
q13 -14 14 -31q0 -88 58 -161t159 -73q37 0 82 14q45 15 75 15t54 -29q25 -29 24 -68q0 -92 -139 -92t-270 113t-131 281zM238 682q0 -258 177 -440t435 -182t435 182t177 440t-177 440t-435 182t-435 -182t-177 -440zM143 682q0 293 207 500t500 207t500 -207
q206 -207 206 -500t-206 -500t-500 -207q-293 0 -500 207t-207 500z" />
    <glyph glyph-name="orn.007" unicode="&#xe054;" horiz-adv-x="1699" 
d="M922 725q8 23 30 43l193 188q29 18 66 -3t50 -82q12 -61 -24 -70l-262 -72zM494 406q-58 32 -63 109q-1 34 28 48l262 72l53 4q-8 -23 -31 -43l-192 -188q-29 -18 -57 -2zM922 639q23 4 53 -4l260 -72q38 -11 27 -70q-10 -58 -60 -89q-29 -17 -57 2l-193 190
q-20 16 -26 37zM432 847q0 35 16 65t46 47q29 17 57 -1l192 -190q21 -17 27 -37l4 -6q-23 -4 -53 4l-260 72q-29 10 -29 46zM758 285l67 264q3 17 23 47q16 -18 22 -47l68 -264q6 -29 -25 -45q-67 -35 -131 0q-30 16 -24 45zM848 768q-16 18 -23 47l-67 264q-8 29 23 45
q70 35 132 0q31 -16 25 -45l-68 -264q-3 -19 -22 -47zM238 682q0 -258 177 -440t435 -182t435 182t177 440t-177 440t-435 182t-435 -182t-177 -440zM143 682q0 293 207 500t500 207t500 -207q206 -207 206 -500t-206 -500t-500 -207q-293 0 -500 207t-207 500z" />
    <glyph glyph-name="yen.uc" unicode="&#xe06a;" 
d="M182 616v89h258l-301 532q-33 65 -102 82v47h96l168 8l8 -8q-31 -57 4 -125l189 -362q25 -51 51 -121l246 446q23 47 3 77t-77 38v47h283l8 -29q-61 -31 -103 -102l-303 -530h303v-89h-307v-129h307v-90h-307v-209l-10 -110l186 -19l-8 -53l-467 -12v61q72 8 112 43
t40 90v209h-277v90h277v129h-277z" />
    <glyph glyph-name="ct" unicode="&#xe087;" horiz-adv-x="1585" 
d="M84 448q0 196 114 345q114 150 306 149q16 0 61 -4q-16 45 -16 100q0 143 109 246q110 102 260 102t227 -90q76 -90 76 -229l-9 -149h328l-14 -89h-295l-19 -20v-543q0 -92 34 -137t117 -45t159 31l26 10l25 -33q-12 -12 -35 -32q-24 -20 -96 -52q-72 -33 -146 -33
q-219 0 -219 269v446l6 133h-137v51q184 45 184 216q0 114 -63 168t-165 54t-186 -80q-84 -81 -83 -194q0 -53 18 -114q174 -47 174 -133q0 -27 -18 -47t-55 -19q-37 0 -73 39t-80 78t-103 39q-125 0 -198 -113q-73 -114 -73 -272t78 -274q39 -58 109 -92t150 -34t138 22
q59 22 82 44l25 22l22 -37q-4 -6 -11 -18t-35 -42q-102 -109 -269 -112q-206 1 -318 139t-112 334z" />
    <glyph glyph-name="germandbls.smcp" unicode="&#xe308;" horiz-adv-x="1685" 
d="M946 123q0 18 37 145h61q0 -225 218 -225q80 0 133 34q53 33 53 105q0 123 -172 224q-72 42 -142 84t-121 108q-50 66 -50 147q0 115 91 189t257 74q74 0 162 -14t94 -13l-49 -233h-62q18 195 -170 194q-80 0 -130 -37t-50 -107t50 -123q50 -54 121 -94t141 -82t121 -109
q50 -67 50 -152q0 -125 -98 -194q-97 -69 -229 -69t-224 38t-92 110zM100 123q0 18 37 145h62q0 -225 217 -225q80 0 133 34q53 33 53 105q0 122 -171 224q-71 42 -143 84t-121 108q-50 66 -50 147q0 115 91 189t257 74q74 0 162 -14t94 -13l-49 -233h-62q20 195 -170 194
q-80 0 -130 -37t-50 -107t50 -123q50 -54 121 -94t141 -82t121 -109q50 -67 50 -152q0 -125 -98 -194q-97 -69 -229 -69t-224 38t-92 110z" />
    <glyph glyph-name="uni021B.smcp" unicode="&#xe30b;" horiz-adv-x="1058" 
d="M449 168v750h-136q-82 0 -126 -36t-87 -147h-61l47 256q41 -8 102 -8h725l111 8l-45 -256h-59q4 111 -34 147t-132 36h-138l-18 -21v-729l-10 -96l176 -17l-6 -51l-434 -10v57q57 4 91 37t34 80zM643 -242q0 -80 -59 -146t-131 -106l-39 58q114 68 114 134t-84 167l25 47
h123q51 -74 51 -154z" />
    <glyph glyph-name="ordfeminine.smcp" unicode="&#xe351;" horiz-adv-x="937" 
d="M412 1075l-76 -186h219l-74 186l-32 105h-5q-16 -64 -32 -105zM104 606v45q63 6 84 60l256 612l60 16l237 -585q29 -77 49 -88t48 -17l-7 -43h-61l-192 -4v53q29 1 45 11t6 34l-51 131h-250l-19 -14l-2 4l-61 -153l102 -17l-6 -45h-238z" />
    <glyph glyph-name="ordmasculine.smcp" unicode="&#xe352;" horiz-adv-x="974" 
d="M482 1286q-122 0 -192 -88t-71 -216q0 -128 75 -230t197 -103q123 0 195 97q72 98 72 222t-77 221t-199 97zM477 592q-176 0 -280 108q-105 108 -105 262t110 270t291 116t286 -102t105 -257q0 -157 -115 -277q-116 -120 -292 -120z" />
    <glyph glyph-name="a.sups" unicode="&#xe361;" horiz-adv-x="677" 
d="M180 758q0 -42 18 -66t49 -24q29 0 69 24t65 49l25 23v160q-88 -10 -157 -54t-69 -112zM551 672q36 0 86 39l27 -37q-74 -82 -152 -82q-100 0 -100 125q-10 -15 -28 -35t-70 -55q-54 -35 -120 -35t-105 42q-40 42 -40 99q-1 95 103 159t254 81v65q0 180 -87 181
q-39 0 -75 -35t-56 -70l-16 -35h-53l-23 113q102 78 256 78q100 0 137 -45t37 -162v-330q0 -61 25 -61z" />
    <glyph glyph-name="b.sups" unicode="&#xe362;" horiz-adv-x="761" 
d="M571 912q0 116 -50 198t-128 82t-135 -37l-20 -12v-477q49 -18 106 -19q100 0 164 74q63 74 63 191zM117 1403q0 57 -8 71t-43 15h-52v41q125 28 203 59l27 10l6 -6q-12 -66 -12 -161v-246q25 31 82 57q57 27 112 27q121 0 195 -93q73 -93 73 -229t-97 -246
q-97 -111 -267 -110l-225 14l-7 6q12 104 13 148v643z" />
    <glyph glyph-name="c.sups" unicode="&#xe363;" horiz-adv-x="663" 
d="M524 1241q78 -29 78 -80t-62 -51q-30 0 -85 53t-105 54q-74 0 -121 -79t-47 -187q0 -109 56 -189t159 -80q53 0 99 18t65 37l19 19l22 -39q-8 -15 -26 -35t-82 -55t-138 -35q-137 0 -216 99t-79 235t82 240q82 103 230 104q73 0 151 -29z" />
    <glyph glyph-name="d.sups" unicode="&#xe364;" horiz-adv-x="800" 
d="M377 670q41 0 80 20t57 41l18 21v393q0 72 -103 72t-171 -72t-68 -193q0 -122 52 -202t135 -80zM333 592q-128 0 -200 96t-72 231q1 135 97 243t278 108l96 -4v137q0 57 -8 71t-43 15h-51v41q114 25 205 59l24 10l7 -6q-14 -66 -15 -161v-687q0 -54 17 -65q17 -10 51 -10
h57l-4 -43l-233 -33l-7 6q6 37 7 109q-78 -117 -206 -117z" />
    <glyph glyph-name="e.sups" unicode="&#xe365;" horiz-adv-x="679" 
d="M346 1214q-66 0 -107 -54t-55 -136l295 39q0 8 -16 57t-52 72q-35 22 -65 22zM352 592q-141 0 -216 95t-75 237t87 243q86 103 200 103t192 -62t78 -172q-35 -16 -63 -20l-362 -51l-15 -19q4 -112 58 -188t163 -76q51 0 101 22t73 44l23 22l22 -41q-10 -16 -29 -39
q-19 -22 -88 -60t-149 -38z" />
    <glyph glyph-name="f.sups" unicode="&#xe366;" horiz-adv-x="491" 
d="M367 1516q-95 0 -95 -209v-52h203l-10 -71h-180l-13 -15v-428l-6 -73l146 -15l-6 -41l-343 -8v43q88 14 89 94v439h-91v39l91 36v13q0 145 74 233q75 88 210 88q62 0 110 -20t48 -62q0 -57 -55 -57q-25 0 -77 33t-95 33z" />
    <glyph glyph-name="g.sups" unicode="&#xe367;" horiz-adv-x="718" 
d="M334 864q72 0 106 48t35 120q0 72 -40 129q-41 57 -109 57t-103 -52t-35 -125t37 -125t109 -52zM156 471q0 -73 50 -109t125 -34q75 0 143 42t69 93t-27 71q-54 37 -112 52q-58 14 -96 21t-56 11q-96 -74 -96 -147zM319 272q-127 0 -205 45t-79 125q0 80 55 126
q55 44 117 63q-109 31 -109 88q0 18 6 25q6 8 10 12t12 10q9 6 14 10q6 4 18 11t19 11t23 13q16 8 25 12q-164 55 -164 215q0 106 77 168t194 64q47 0 101 -14t79 -13h66q49 0 110 23l-14 -99h-125q53 -55 53 -145t-81 -152t-193 -61q-35 0 -66 6q-29 -33 -29 -53
q0 -42 222 -78q81 -14 151 -59t70 -115q0 -102 -115 -170t-242 -68z" />
    <glyph glyph-name="h.sups" unicode="&#xe368;" horiz-adv-x="829" 
d="M139 741v662q0 57 -8 71t-43 15h-49v41q125 28 203 59l26 10l6 -6q-14 -66 -14 -161v-287q39 45 117 85t145 40q168 0 168 -195v-334l-6 -73l123 -15l-4 -41l-320 -8v43q88 14 88 94v308q0 143 -90 143q-121 0 -221 -96v-355l-6 -73l123 -15l-4 -41l-324 -8v43
q90 14 90 94z" />
    <glyph glyph-name="i.sups" unicode="&#xe369;" horiz-adv-x="421" 
d="M201 1434q-33 0 -57 24t-24 55t26 55q24 24 56 24t56 -24t23 -56q1 -32 -23 -54q-24 -24 -57 -24zM154 1087q0 51 -8 73t-35 22h-66v41l236 73l6 -6q-12 0 -13 -170v-379l-6 -73l123 -15l-6 -41l-324 -8v43q92 14 93 94v346z" />
    <glyph glyph-name="j.sups" unicode="&#xe36a;" horiz-adv-x="382" 
d="M195 1434q-33 0 -57 24t-24 55t26 55q24 24 56 24t56 -24t22 -56q0 -32 -23 -54q-23 -24 -56 -24zM145 575v521q0 50 -8 72t-35 22h-67v41l237 74l7 -7q-10 0 -15 -170v-485q0 -175 -64 -273t-188 -98l-20 39q59 6 106 84t47 180z" />
    <glyph glyph-name="k.sups" unicode="&#xe36b;" horiz-adv-x="751" 
d="M139 741v662q0 57 -8 71t-43 15h-51v41q114 25 205 59l24 10l6 -6q-12 -66 -12 -161v-426h25l145 127q63 53 -16 81v41h270l10 -28q-84 -23 -155 -84l-154 -133v-17l213 -250q53 -61 78 -74t69 -12l-4 -49l-190 -4q-29 47 -70 101l-200 239h-21v-203l-6 -73l117 -15
l-6 -41l-314 -8v43q88 14 88 94z" />
    <glyph glyph-name="l.sups" unicode="&#xe36c;" horiz-adv-x="409" 
d="M139 741v662q0 57 -8 71t-43 15h-51v41q114 25 205 59l24 10l6 -6q-12 -66 -12 -161v-691l-6 -73l123 -15l-4 -41l-324 -8v43q90 14 90 94z" />
    <glyph glyph-name="m.sups" unicode="&#xe36d;" horiz-adv-x="1228" 
d="M154 1087q0 65 -12 80q-12 14 -29 15h-68v41l231 73l7 -6q-12 -8 -13 -149q41 48 116 88q75 41 134 41q139 0 152 -137q102 137 252 137q166 0 166 -195v-334l-7 -73l121 -15l-4 -41l-319 -8v45q51 6 69 29t19 63v308q0 79 -23 111q-22 32 -72 32t-122 -45t-72 -100v-306
l-6 -73l127 -17l-6 -39l-326 -8v45q53 6 73 29q19 23 19 63v308q0 143 -74 143q-106 0 -213 -96v-355l-6 -73l127 -17l-6 -39l-326 -8v43q90 14 91 94v346z" />
    <glyph glyph-name="o.sups" unicode="&#xe36e;" horiz-adv-x="778" 
d="M386 647q91 0 142 73q50 74 52 194t-48 211t-148 91q-97 0 -143 -77q-46 -78 -46 -194t50 -207t141 -91zM717 952q0 -142 -90 -250q-90 -110 -246 -110t-238 91t-82 233t83 248t246 106t245 -88t82 -230z" />
    <glyph glyph-name="p.sups" unicode="&#xe36f;" horiz-adv-x="786" 
d="M258 723q0 -78 106 -78t168 73q64 73 64 195q0 123 -46 201t-134 78q-39 0 -79 -20t-58 -42l-21 -22v-385zM139 457v628q0 96 -28 97h-72v41l227 73l6 -6q-10 -30 -10 -125q18 33 70 69t121 36q133 0 203 -93t69 -232q0 -139 -97 -247t-280 -106l-90 6v-143l-6 -78h149
l-2 -45q-212 -17 -333 -58v50q45 26 59 52t14 81z" />
    <glyph glyph-name="q.sups" unicode="&#xe370;" horiz-adv-x="763" 
d="M426 1214q-98 0 -167 -74t-69 -192t52 -198t127 -80q76 0 139 35l22 12v479q-57 18 -104 18zM530 459v213q-78 -80 -198 -80t-195 93q-76 93 -76 231q1 138 101 246t276 108q49 0 121 -7t94 -8l6 -6q-12 -57 -12 -145v-653l-6 -76h109l-2 -43q-174 -21 -273 -49l-35 -9
v45q49 31 70 60q20 29 20 80z" />
    <glyph glyph-name="r.sups" unicode="&#xe371;" horiz-adv-x="538" 
d="M154 1087q0 51 -8 73t-35 22h-66v41q138 33 205 63l24 10l7 -6q-10 -8 -13 -149q37 53 90 91q52 38 90 38q78 0 78 -66q0 -29 -19 -45t-43 -16t-40 10q-18 10 -36 10t-47 -16q-30 -16 -48 -33l-19 -16v-357l-6 -75l138 -11l-7 -43l-340 -8v43q94 14 95 94v346z" />
    <glyph glyph-name="s.sups" unicode="&#xe372;" horiz-adv-x="579" 
d="M186 1126q0 -80 165 -142q61 -24 113 -77t52 -135t-62 -131t-152 -49q-91 0 -166 20t-75 72l23 117h51q11 -82 59 -120t100 -38t85 29q33 28 33 68q0 71 -119 130q-49 25 -98 52q-119 66 -119 170q0 80 61 129t167 49t171 -19l27 -6l-29 -147h-51q-8 123 -135 123
q-51 0 -76 -29t-25 -66z" />
    <glyph glyph-name="t.sups" unicode="&#xe373;" horiz-adv-x="546" 
d="M299 592q-164 0 -164 190v310l4 88h-96v43q57 14 90 37l57 161l74 2l6 -6q-16 -51 -16 -149v-13h231l-10 -71h-207l-14 -15v-370q0 -123 90 -123q59 0 119 24l20 7l19 -29q-26 -32 -87 -59t-116 -27z" />
    <glyph glyph-name="u.sups" unicode="&#xe374;" horiz-adv-x="827" 
d="M299 592q-166 0 -166 194v304q0 62 -12 77q-12 14 -33 15h-47v41l219 59l6 -6q-14 -18 -14 -156v-311q0 -139 86 -139q115 0 219 104v316q0 51 -7 71t-36 21h-51v41l223 59l6 -6q-14 -18 -14 -156v-375q0 -54 17 -64q17 -11 48 -11h56l-4 -43l-242 -33l-8 6q18 47 18 82
v47q-110 -137 -264 -137z" />
    <glyph glyph-name="v.sups" unicode="&#xe375;" horiz-adv-x="659" 
d="M4 1255h76l131 5l8 -9q-25 -55 2 -129l131 -372l162 362q31 74 -70 102v41h205l6 -26q-20 -8 -53 -78l-248 -565l-73 22l-203 525q-23 64 -74 81v41z" />
    <glyph glyph-name="w.sups" unicode="&#xe376;" horiz-adv-x="1042" 
d="M2 1255h80l125 5l8 -9q-23 -61 4 -129l129 -346l127 299q16 47 5 79t-74 60v41h83l123 5l9 -9q-27 -63 0 -129l131 -350l141 344q31 72 -68 98v41h203l8 -26q-20 -4 -55 -78l-236 -565l-63 22l-154 410l-184 -432l-63 22l-201 525q-24 66 -78 81v41z" />
    <glyph glyph-name="x.sups" unicode="&#xe377;" horiz-adv-x="710" 
d="M408 655q26 0 47 7q14 4 11 12l-9 24l-119 172l-160 -202l111 -15l-6 -41l-258 -8v45q57 6 98 60l174 219l-145 207q-35 58 -111 77v43h84l135 9l8 -9q-20 -51 17 -104l88 -133l104 131q35 49 -57 65v41h242l8 -28q-53 -6 -105 -72l-151 -197l209 -299l69 -8l-4 -39
l-280 -8v51z" />
    <glyph glyph-name="y.sups" unicode="&#xe378;" horiz-adv-x="659" 
d="M98 272q-59 0 -59 58t76 57q76 0 116 98l60 131l-213 517q-22 58 -76 81v41h78l131 7l10 -11q-20 -72 0 -129l133 -356l158 350q29 66 -78 98v41h213l10 -26q-33 -12 -59 -78l-272 -616q-50 -110 -83 -162q-62 -101 -145 -101z" />
    <glyph glyph-name="z.sups" unicode="&#xe379;" horiz-adv-x="653" 
d="M250 1198q-43 0 -77 -30t-46 -58l-10 -29h-54l25 174h369l114 9l11 -45q-25 -29 -56 -76l-313 -477h168q91 0 141 88q12 20 19 34l4 15h55l-41 -197h-385l-106 -8l-13 41q14 14 51 72l322 487h-178z" />
    <glyph glyph-name="egrave.sups" unicode="&#xe37a;" horiz-adv-x="679" 
d="M188 1462v39l48 74h8l282 -168l-18 -49zM346 1214q-66 0 -107 -54t-55 -136l295 39q0 8 -16 57t-52 72q-35 22 -65 22zM352 592q-141 0 -216 95t-75 237t87 243q86 103 200 103t192 -62t78 -172q-35 -16 -63 -20l-362 -51l-15 -19q4 -112 58 -188t163 -76q51 0 101 22
t73 44l23 22l22 -41q-10 -16 -29 -39q-19 -22 -88 -60t-149 -38z" />
    <glyph glyph-name="ampersand.001" unicode="&#xe37b;" horiz-adv-x="1120" 
d="M416 1147q0 -127 116 -344q172 143 173 301q0 78 -39 148q-38 70 -106 71q-68 0 -106 -47t-38 -129zM84 313q0 91 31 138t47 71q36 53 241 199l5 2q-140 248 -140 374t85 210t223 84t214 -69q74 -69 74 -169t-48 -179t-99 -124t-148 -115q133 -233 325 -465t404 -396
q213 -165 361 -165q49 0 98 29l21 -41q-84 -82 -191 -82q-154 0 -375 166q-220 165 -422 401t-346 477q-63 -53 -102 -92t-72 -99t-32 -124q0 -108 80 -192t175 -84q96 0 171 30l24 11l21 -43q-123 -90 -263 -90t-252 92q-110 93 -110 245z" />
    <glyph glyph-name="exclamdown.uc" unicode="&#xe441;" horiz-adv-x="583" 
d="M408 1280q0 -47 -32 -79t-78 -32t-79 33t-33 78t33 78t79 33t78 -32t32 -79zM391 25q-149 -45 -198 -70l-5 2q20 61 29 215l55 854h43z" />
    <glyph glyph-name="questiondown.uc" unicode="&#xe444;" horiz-adv-x="733" 
d="M575 1280q1 -47 -31 -79t-78 -32t-79 33t-33 78t33 78t79 33t78 -32t31 -79zM506 904q0 -76 -43 -168t-95 -145q-139 -144 -139 -210q1 -65 101 -139t198 -115l101 -41l-25 -149q-20 8 -56 21t-126 57t-160 90t-126 112t-56 120t38 106q38 51 93 107t111 120t93 156
q38 93 38 200h43q10 -46 10 -122z" />
    <glyph glyph-name="guillemotleft.uc" unicode="&#xe451;" horiz-adv-x="1054" 
d="M465 678v8q29 20 70 56t368 370l53 -20l-274 -410q23 -27 274 -410l-53 -20q-362 371 -438 426zM508 252q-362 371 -438 426v8q29 20 63 50t375 376l53 -20l-274 -410q23 -27 274 -410z" />
    <glyph glyph-name="guillemotright.uc" unicode="&#xe452;" horiz-adv-x="1056" 
d="M100 272l275 410q-23 23 -275 410l54 20q331 -338 370 -372q39 -33 68 -54v-8q-76 -55 -438 -426zM496 272l274 410q-23 23 -274 410l53 20q331 -338 370 -372q39 -33 68 -54v-8q-76 -55 -438 -426z" />
    <glyph glyph-name="guilsinglleft.uc" unicode="&#xe453;" horiz-adv-x="667" 
d="M516 252q-375 375 -448 426v8q80 57 448 426l53 -20l-274 -410q23 -27 274 -410z" />
    <glyph glyph-name="guilsinglright.uc" unicode="&#xe454;" horiz-adv-x="669" 
d="M100 272l275 410q-23 23 -275 410l54 20q371 -371 448 -426v-8q-74 -51 -448 -426z" />
    <glyph glyph-name="braceleft.uc" unicode="&#xe459;" horiz-adv-x="716" 
d="M283 20q0 285 -31 406q-59 229 -240 233v68q165 6 218 163t53 327v129q-1 166 111 246t298 81l10 -69q-186 -12 -238 -88t-52 -279q0 -453 -228 -541v-4q94 -37 161 -171q67 -135 67 -365t52 -304t238 -90l-10 -69q-409 -1 -409 327z" />
    <glyph glyph-name="slash.uc" unicode="&#xe461;" horiz-adv-x="679" 
d="M-61 -199l682 1768h120l-680 -1768h-122z" />
    <glyph glyph-name="backslash.uc" unicode="&#xe462;" horiz-adv-x="679" 
d="M618 -199l-679 1768h120l682 -1768h-123z" />
    <glyph glyph-name="bar.uc" unicode="&#xe463;" horiz-adv-x="475" 
d="M180 -315v1994h115v-1994h-115z" />
    <glyph glyph-name="slash.smcp" unicode="&#xe467;" horiz-adv-x="704" 
d="M-25 -328l619 1602h121l-617 -1602h-123z" />
    <glyph glyph-name="backslash.smcp" unicode="&#xe468;" horiz-adv-x="706" 
d="M610 -328l-620 1602h121l622 -1602h-123z" />
    <glyph glyph-name="bar.smcp" unicode="&#xe469;" horiz-adv-x="483" 
d="M182 -307v1603h119v-1603h-119z" />
    <glyph glyph-name="hyphen.uc" unicode="&#xe482;" horiz-adv-x="712" 
d="M125 616v125h463v-125h-463z" />
    <glyph glyph-name="endash.uc" unicode="&#xe484;" horiz-adv-x="1101" 
d="M131 633v100h840v-100h-840z" />
    <glyph glyph-name="emdash.uc" unicode="&#xe486;" horiz-adv-x="1900" 
d="M131 633v100h1638v-100h-1638z" />
    <glyph glyph-name="parenleft.uc" unicode="&#xe491;" horiz-adv-x="577" 
d="M102 709q0 156 33 298t79 237q98 203 171 280l33 35l65 -23q-33 -46 -80 -139q-96 -191 -145 -440t9 -540q44 -215 159 -426q43 -79 74 -118l28 -37l-59 -26l-39 39q-25 26 -88 113t-112 184q-48 97 -88 252t-40 311z" />
    <glyph glyph-name="parenright.uc" unicode="&#xe492;" horiz-adv-x="579" 
d="M344 706q0 273 -82 491q-82 217 -143 306l-25 37l66 19q49 -49 107 -137q59 -89 101 -180t76 -234t35 -299q0 -156 -38 -309t-92 -255q-110 -207 -202 -297l-38 -38l-60 26q39 45 96 144q58 98 97 193q38 95 70 243q32 146 32 290z" />
    <glyph glyph-name="bracketleft.uc" unicode="&#xe493;" horiz-adv-x="591" 
d="M184 -160v1680h363v-84h-246v-1510h246v-86h-363z" />
    <glyph glyph-name="bracketright.uc" unicode="&#xe494;" horiz-adv-x="591" 
d="M45 -74h246v1510h-246v84h363v-1680h-363v86z" />
    <glyph glyph-name="braceright.uc" unicode="&#xe496;" horiz-adv-x="716" 
d="M305 156q0 230 67 365q67 134 160 171v4q-227 88 -227 541q0 105 -9 163t-39 106t-88 70t-157 28l11 69q186 0 299 -81t112 -246q0 -274 31 -390q57 -225 240 -229v-68q-106 -4 -174 -84q-43 -51 -70 -169t-27 -204v-182q0 -328 -411 -327l-11 69q188 14 240 89t53 305z
" />
    <glyph glyph-name="zero.zero" unicode="&#xe515;" horiz-adv-x="1146" 
d="M461 477q0 45 33 78q34 33 78 33t77 -33t33 -78t-33 -78t-78 -33t-77 34q-32 32 -33 77zM565 -25q-211 1 -325 147t-115 351q0 205 122 357t335 153q212 0 326 -140t114 -345t-123 -364t-334 -159zM573 59q133 0 220 131q86 132 86 296t-87 288q-88 124 -220 125
q-132 0 -218 -126t-86 -290t86 -294t219 -130z" />
    <glyph glyph-name="four.pnum" unicode="&#xe529;" horiz-adv-x="1056" 
d="M616 512v526q0 55 9 133l-480 -659h471zM764 1161v-649h229l-28 -111h-201v-213l-10 -110l188 -19l-8 -53l-469 -12v61q72 8 112 43t39 90v213h-571l-16 86l641 871l98 33l6 -7q-10 -66 -10 -223z" />
    <glyph glyph-name="zero.tnum_zero" unicode="&#xe530;" 
d="M530 569q-46 0 -78 33t-32 78t33 78t77 33t78 -33q33 -33 33 -78t-33 -78t-78 -33zM520 -25q-148 1 -248 101q-182 183 -182 591t199 613q107 111 255 111q148 1 248 -99q180 -180 179 -586q1 -406 -197 -618q-106 -113 -254 -113zM530 47q272 0 272 636t-272 636
t-272 -636t272 -636z" />
    <glyph glyph-name="at.uc" unicode="&#xe531;" horiz-adv-x="1607" 
d="M80 598q0 338 237 589q238 251 570 251q287 0 478 -190t191 -474q0 -200 -102 -358t-315 -191l-183 -30l-4 8q16 59 17 110v84q-47 -92 -123 -146t-160 -54q-118 0 -194 100t-76 262q0 242 162 416t380 174q102 0 166 -16q-29 -100 -28 -183v-549q0 -51 18 -73t58 -23
t80 17t84 59t73 127t29 203q0 276 -153 455q-153 180 -431 180t-465 -205q-186 -205 -186 -520q0 -154 48 -281t127 -206q163 -163 365 -171l-20 -78q-276 12 -460 217q-183 205 -183 496zM737 311q102 0 209 105l17 20h-2v635q-49 0 -130 -31q-80 -30 -133 -74t-96 -138
t-43 -234t53 -212t125 -71z" />
    <glyph glyph-name="zero.pnum" unicode="&#xe534;" horiz-adv-x="1148" 
d="M562 -25q-148 1 -248 101q-182 183 -181 591q0 408 199 613q106 111 254 111q148 1 248 -99q180 -180 180 -586t-198 -618q-106 -113 -254 -113zM573 47q273 0 273 636t-272 636t-273 -636q0 -636 272 -636z" />
    <glyph glyph-name="zero.pnum_zero" unicode="&#xe535;" horiz-adv-x="1148" 
d="M573 569q-45 0 -77 33t-33 78q0 45 33 78q34 33 78 33t77 -33t33 -78t-33 -78t-78 -33zM562 -25q-148 1 -248 101q-182 183 -181 591q0 408 199 613q106 111 254 111q148 1 248 -99q180 -180 180 -586t-198 -618q-106 -113 -254 -113zM573 47q273 0 273 636t-272 636
t-273 -636q0 -636 272 -636z" />
    <glyph glyph-name="one.pnum" unicode="&#xe536;" horiz-adv-x="792" 
d="M358 199v909q0 94 -12 112t-57 9l-219 -58l-11 78q348 114 424 146l43 16l6 -6q-27 -82 -26 -240v-966l-10 -111l270 -18l-8 -64l-664 -12v72l119 6q99 4 122 41q23 36 23 86z" />
    <glyph glyph-name="two.pnum" unicode="&#xe537;" horiz-adv-x="1026" 
d="M676 1030q0 108 -66 167q-66 58 -160 58q-94 1 -183 -37t-152 -104l-43 49q12 20 64 69q52 50 97 80t114 54t136 25q354 0 355 -340q0 -289 -578 -910h397q111 0 152 40t72 147h63l-53 -328h-803l-20 61q163 155 283 296t178 234t103 212q44 119 44 227z" />
    <glyph glyph-name="three.pnum" unicode="&#xe538;" horiz-adv-x="976" 
d="M55 127q-1 31 19 53t50 21q50 0 114 -81q24 -30 70 -56t108 -25q116 0 200 103t84 228q0 124 -95 210t-269 86l-55 -4v98q153 2 247 102t95 219q-1 84 -57 134q-56 51 -126 51t-134 -25q-65 -25 -101 -49l-39 -23l-41 45q6 6 16 18t44 44q124 113 291 114q122 1 215 -69
t93 -193q0 -122 -97 -230t-200 -148q169 -14 275 -110t106 -253q0 -158 -143 -285t-319 -127q-111 0 -231 43t-120 109z" />
    <glyph glyph-name="five.pnum" unicode="&#xe53a;" horiz-adv-x="897" 
d="M96 129q0 29 20 51t51 21q32 0 87 -81q20 -30 57 -56t82 -25q98 0 187 95q88 95 88 231q0 93 -56 167t-133 113q-170 85 -289 100l-55 7l31 614h444l144 12l-29 -145h-485l-17 -352q12 -2 34 -5q153 -21 326 -116q69 -39 117 -86t83 -118q34 -71 34 -153
q0 -168 -132 -298t-323 -130q-88 0 -177 43t-89 111z" />
    <glyph glyph-name="six.pnum" unicode="&#xe53b;" horiz-adv-x="1071" 
d="M551 -25q-139 0 -241 84q-193 161 -193 482q0 322 179 575q87 123 229 199t317 76l12 -78q-152 -8 -268 -80q-208 -129 -276 -417q-30 -124 -25 -251q0 -207 83 -363t205 -155q123 0 189 113t66 239t-47 223q-46 97 -132 143t-211 -17l-12 71q72 51 205 51
q166 0 262 -120t96 -295q-1 -174 -119 -327t-319 -153z" />
    <glyph glyph-name="seven.pnum" unicode="&#xe53c;" horiz-adv-x="933" 
d="M645 1225h-330q-111 -1 -147 -19t-64 -102h-63l53 262h713l113 8l6 -59q-70 -96 -90 -144l-433 -1021q-8 -18 -19 -46t-17 -41l-15 -30q-26 -58 -63 -58q-37 1 -55 19t-17 44q0 31 70 134q127 205 344 717l147 344q-78 -8 -133 -8z" />
    <glyph glyph-name="eight.pnum" unicode="&#xe53d;" horiz-adv-x="1044" 
d="M528 1319q-104 1 -158 -63t-55 -146q1 -82 63 -155t179 -160q176 119 176 288q0 104 -51 170q-50 66 -154 66zM272 346q0 -127 62 -213t180 -86q117 0 193 74t75 180q0 63 -46 130t-97 110t-109 87t-67 52q-191 -133 -191 -334zM117 322q0 135 76 226t213 177
q-113 88 -177 172q-63 84 -63 182q0 131 109 221q110 90 269 90t251 -78q92 -79 92 -201t-73 -201t-202 -158q239 -178 293 -298q25 -56 25 -116q0 -147 -121 -255t-289 -108t-286 88q-117 89 -117 259z" />
    <glyph glyph-name="nine.pnum" unicode="&#xe53e;" horiz-adv-x="1056" 
d="M774 801q0 207 -83 363t-214 155q-109 0 -172 -113t-63 -238q0 -124 44 -220t128 -140t204 21l13 -72q-90 -51 -205 -51q-162 0 -255 118t-93 290t116 324q116 153 318 153t314 -169q114 -169 114 -407q0 -312 -179 -565q-87 -123 -229 -199t-315 -76l-12 78
q153 8 267 80q114 73 177 183q125 220 125 485z" />
    <glyph glyph-name="zero.tnum" unicode="&#xe53f;" 
d="M520 -25q-148 1 -248 101q-182 183 -182 591t199 613q107 111 255 111q148 1 248 -99q180 -180 179 -586q1 -406 -197 -618q-106 -113 -254 -113zM530 47q272 0 272 636t-272 636t-272 -636t272 -636z" />
    <glyph glyph-name="one.tnum" unicode="&#xe541;" 
d="M494 1108q0 94 -12 112t-58 9l-219 -58l-10 78q343 112 423 146l44 16l6 -6q-27 -82 -27 -240v-966l-10 -111l270 -18l-8 -64l-664 -12v72l119 6q99 4 121 40q23 36 25 87v909z" />
    <glyph glyph-name="two.tnum" unicode="&#xe542;" 
d="M694 1030q0 108 -65 167q-66 58 -160 58q-94 1 -183 -37t-153 -104l-43 49q11 18 64 68q53 51 98 81t114 54t136 25q354 0 354 -340q0 -289 -577 -910h397q112 0 152 40t71 147h64l-54 -328h-803l-20 61q319 305 462 530q58 93 102 212t44 227z" />
    <glyph glyph-name="three.tnum" unicode="&#xe543;" 
d="M98 127q0 31 20 53t49 21q50 0 114 -81q23 -30 69 -56t109 -25q117 0 201 103t83 228q0 124 -95 210t-269 86l-55 -4v98q152 2 246 102t96 219q0 84 -56 134q-56 51 -126 51q-120 1 -238 -74l-37 -23l-41 45q6 6 16 18t44 44q124 113 291 114q122 1 215 -69t93 -193
q0 -122 -97 -230t-200 -148q168 -14 274 -110t107 -253q0 -158 -143 -285t-319 -127q-111 0 -231 43t-120 109z" />
    <glyph glyph-name="four.tnum" unicode="&#xe544;" 
d="M621 512v526q0 55 8 133l-479 -659h471zM768 1161v-649h229l-28 -111h-201v-213l-10 -110l188 -19l-8 -53l-469 -12v61q72 8 112 43t40 90v213h-572l-16 86l641 871l98 33l6 -7q-10 -66 -10 -223z" />
    <glyph glyph-name="five.tnum" unicode="&#xe545;" 
d="M180 129q0 29 20 51t51 21q32 0 87 -81q20 -30 57 -56t82 -25q98 0 187 95q88 95 88 231q0 93 -56 167t-133 113q-170 85 -289 100l-55 7l31 614h444l144 12l-29 -145h-485l-17 -352q12 -2 34 -5q153 -21 326 -116q69 -39 117 -86t83 -118q34 -71 34 -153
q0 -168 -132 -298t-323 -130q-88 0 -177 43t-89 111z" />
    <glyph glyph-name="six.tnum" unicode="&#xe546;" 
d="M547 -25q-139 0 -241 84q-193 161 -193 482q0 322 179 575q87 123 229 199t317 76l12 -78q-152 -8 -268 -80q-208 -129 -276 -417q-30 -124 -25 -251q0 -207 83 -363q82 -156 204 -155q122 0 189 113t67 239t-47 223q-46 97 -132 143t-211 -17l-12 71q72 51 205 51
q166 0 262 -120t96 -295q-1 -174 -119 -327t-319 -153z" />
    <glyph glyph-name="seven.tnum" unicode="&#xe547;" 
d="M711 1225h-330q-111 -1 -147 -19t-64 -102h-64l54 262h712l113 8l6 -59q-70 -96 -90 -144l-432 -1021q-8 -18 -19 -46q-12 -28 -18 -41q-6 -12 -14 -30q-26 -58 -63 -58q-38 1 -55 19t-17 44q-1 26 27 69t42 65q127 205 344 717l148 344q-78 -8 -133 -8z" />
    <glyph glyph-name="eight.tnum" unicode="&#xe548;" 
d="M538 1319q-104 1 -158 -63t-54 -146t62 -155t179 -160q176 119 176 288q0 104 -51 170t-154 66zM283 346q0 -127 62 -213t179 -86t193 74t76 180q0 63 -47 130q-46 67 -97 110t-109 87t-67 52q-190 -133 -190 -334zM127 322q0 135 76 226t213 177q-113 88 -176 172
t-64 182q0 131 110 221t268 90t251 -78q92 -79 92 -201t-73 -201t-201 -158q241 -179 292 -298q25 -56 25 -116q0 -147 -121 -255t-289 -108q-168 1 -286 89t-117 258z" />
    <glyph glyph-name="nine.tnum" unicode="&#xe549;" 
d="M481 1319q-109 0 -172 -113t-63 -238q0 -124 44 -220t128 -140t205 21l12 -72q-90 -51 -205 -51q-162 0 -255 118t-93 290t116 324q116 153 318 153t314 -169q114 -169 114 -407q0 -312 -179 -565q-87 -123 -228 -199t-316 -76l-12 78q153 8 267 80q114 73 177 183
q127 223 125 485q0 207 -83 363t-214 155z" />
    <glyph glyph-name="zero.onum_tab" unicode="&#xe555;" 
d="M524 -25q-212 1 -326 147t-114 351t122 357t335 153q213 0 327 -140t113 -345q0 -205 -123 -364t-334 -159zM532 59q133 0 220 131q86 132 86 296t-87 288t-219 125q-132 0 -219 -126q-86 -126 -86 -290t86 -294t219 -130z" />
    <glyph glyph-name="zero.onum_tab_zero" unicode="&#xe556;" 
d="M420 477q0 45 33 78t77 33t78 -33q33 -33 33 -78t-33 -78t-78 -33q-46 0 -78 34q-32 32 -32 77zM524 -25q-212 1 -326 147t-114 351t122 357t335 153q213 0 327 -140t113 -345q0 -205 -123 -364t-334 -159zM532 59q133 0 220 131q86 132 86 296t-87 288t-219 125
q-132 0 -219 -126q-86 -126 -86 -290t86 -294t219 -130z" />
    <glyph glyph-name="one.onum_tab" unicode="&#xe557;" 
d="M287 55q96 0 134 30t38 101v586q0 72 -37 96t-146 25v65h506l-8 -61l-182 -23v-688l-10 -108l211 -21l-9 -57l-497 -10v65z" />
    <glyph glyph-name="two.onum_tab" unicode="&#xe558;" 
d="M625 684q1 94 -51 139t-132 45q-121 0 -239 -94l-37 41q16 23 52 56q126 112 281 112q115 0 199 -63t84 -189q0 -236 -430 -604h307q99 0 140 49q40 49 67 125h49l-63 -301h-666l-14 59q209 188 285 281q168 195 168 344z" />
    <glyph glyph-name="three.onum_tab" unicode="&#xe559;" 
d="M678 64q0 116 -93 170t-223 55l-59 -4v90q117 12 223 98t107 215q0 84 -47 138q-46 54 -116 54t-130 -26q-60 -27 -92 -53l-33 -27l-39 43q14 18 40 46t111 74t193 46t189 -68q79 -68 79 -179q0 -110 -96 -214t-205 -149q160 -16 253 -95q94 -79 94 -198t-56 -215
q-97 -168 -335 -232q-99 -27 -201 -26l-39 2l-13 65q174 -4 321 76q75 41 121 119q46 79 46 195z" />
    <glyph glyph-name="four.onum_tab" unicode="&#xe55a;" 
d="M623 178v428q0 55 8 133l-432 -561h424zM758 758v-580h225l-25 -104h-200v-342q0 -63 -10 -113l-127 -12l-9 6q10 35 11 108v353h-543l-14 57l639 832l67 26l2 -8q-16 -78 -16 -223z" />
    <glyph glyph-name="five.onum_tab" unicode="&#xe55b;" 
d="M848 57q0 -184 -174 -317t-402 -133l-59 2l-12 65q215 -4 358 102t143 251q0 146 -97 226t-197 107q-99 27 -168 37l-27 2l29 559h415l144 13l-29 -140h-463l-16 -319q12 -2 56 -6t130 -35q163 -57 259 -149q46 -45 78 -114t32 -151z" />
    <glyph glyph-name="six.onum_tab" unicode="&#xe55c;" 
d="M631 870q172 0 254 -122t82 -306q-1 -182 -111 -324t-308 -143q-198 0 -308 172t-109 426q0 316 173 556q85 118 225 190t315 72l12 -68q-147 -6 -261 -73q-113 -67 -179 -173q-133 -214 -132 -460t83 -412t213 -166q110 1 174 109t64 222q-1 217 -93 337t-289 45l-14 59
q100 59 209 59z" />
    <glyph glyph-name="seven.onum_tab" unicode="&#xe55d;" 
d="M823 834q-88 -9 -432 -9q-133 0 -165 -18t-64 -111h-49l55 262h657l133 9l11 -54q-61 -72 -95 -147l-436 -985q-14 -32 -29 -66q-14 -33 -23 -51q-29 -56 -71 -57q-66 0 -65 59q0 33 63 135q162 262 353 680z" />
    <glyph glyph-name="eight.onum_tab" unicode="&#xe55e;" 
d="M326 1119q0 -89 59 -163t174 -165q184 125 184 301q0 109 -58 171t-140 62t-151 -58q-68 -59 -68 -148zM281 340q-1 -139 71 -219t173 -80t184 68q82 68 82 176q0 140 -182 292q-92 76 -142 113q-186 -139 -186 -350zM135 324q0 133 73 223t210 178q-111 92 -171 174
t-61 178q0 133 106 223t258 90q154 0 244 -78q90 -79 91 -211q0 -132 -90 -216q-65 -59 -117 -90q-54 -31 -58 -34q-5 -3 -12 -7q88 -70 121 -98t93 -89q108 -110 108 -242t-120 -241t-284 -109q-164 1 -278 89t-113 260z" />
    <glyph glyph-name="nine.onum_tab" unicode="&#xe55f;" 
d="M793 373q0 223 -82 386t-213 163q-102 0 -166 -111t-64 -221q-1 -205 93 -329q93 -123 280 -44l12 -59q-94 -59 -207 -60q-166 0 -246 121t-79 300q0 179 108 322q109 142 303 142t305 -169q110 -169 109 -417q0 -307 -173 -539q-85 -114 -224 -183t-316 -68l-12 67
q147 4 261 68q204 114 278 386q33 118 33 245z" />
    <glyph glyph-name="braceleft.smcp" unicode="&#xf60c;" horiz-adv-x="702" 
d="M279 8v90q0 94 -25 179q-25 86 -63 121q-75 69 -183 73v68q164 6 220 118q19 39 33 77q18 50 18 190v34q0 166 111 247q112 81 298 81l10 -69q-186 -13 -238 -89t-52 -258t-62 -256t-166 -106v-4q102 -35 164 -118q62 -82 64 -276q0 -194 52 -269t238 -89l-10 -69
q-409 -1 -409 325z" />
    <glyph glyph-name="braceright.smcp" unicode="&#xf60d;" horiz-adv-x="702" 
d="M295 110q0 194 62 276q62 83 165 118v4q-102 33 -165 106q-62 74 -62 236q0 104 -8 162t-39 107q-31 48 -88 70t-156 28l10 69q186 0 298 -81t112 -257t33 -256q59 -150 237 -153v-68q-164 -6 -221 -132q-49 -108 -49 -240v-91q0 -326 -410 -325l-10 69q186 14 239 89
q52 75 52 269z" />
    <glyph glyph-name="bracketleft.smcp" unicode="&#xf60e;" horiz-adv-x="585" 
d="M182 -317v1601h363v-84h-246v-1431h246v-86h-363z" />
    <glyph glyph-name="bracketright.smcp" unicode="&#xf60f;" horiz-adv-x="585" 
d="M41 -231h246v1431h-246v84h362v-1601h-362v86z" />
    <glyph glyph-name="parenleft.smcp" unicode="&#xf618;" horiz-adv-x="577" 
d="M102 522q0 350 204 639q46 66 79 96l33 31l65 -20q-27 -32 -78 -121q-51 -88 -83 -168t-60 -202q-56 -251 -2 -495q53 -244 167 -440q44 -76 75 -112l30 -37l-61 -27q-55 47 -123 138q-69 92 -118 186q-48 94 -88 241t-40 291z" />
    <glyph glyph-name="parenright.smcp" unicode="&#xf619;" horiz-adv-x="577" 
d="M344 522q0 250 -83 444t-138 267l-27 35l66 20q42 -35 103 -117q59 -83 101 -163t76 -210t33 -275q0 -145 -38 -291t-92 -244q-113 -204 -202 -287l-37 -35l-61 27q35 35 124 181q90 146 133 330q42 185 42 318z" />
    <glyph glyph-name="aringacute.smcp" unicode="&#xf625;" horiz-adv-x="1030" 
d="M520 1001q47 0 74 29t27 69q0 41 -26 69t-75 28t-73 -29q-23 -29 -23 -69t24 -68q24 -29 72 -29zM324 1284l-23 62l352 208h11l59 -92v-49zM526 688q-18 41 -41 123l-168 -408h322zM14 0v51q86 10 113 84l338 807q-63 14 -97 58t-34 105t49 109t138 48t138 -48t49 -109
q0 -59 -35 -105q-36 -46 -102 -60l303 -747q37 -100 72 -122q20 -13 28 -15t36 -7l-9 -49h-81l-238 -6v61q38 1 60 17t8 55l-82 207h-361l-24 -17l-101 -245l144 -25l-7 -47h-305z" />
    <glyph glyph-name="zero.dnom" unicode="&#xf655;" horiz-adv-x="808" 
d="M396 -14q-146 0 -216 118t-70 297q0 178 77 310q77 131 225 131t217 -117t69 -295t-78 -311t-224 -133zM252 414q0 -372 152 -373q152 0 152 373t-150 372q-154 0 -154 -372z" />
    <glyph glyph-name="one.dnom" unicode="&#xf656;" horiz-adv-x="589" 
d="M258 125v549q0 60 -19 58q-9 -1 -24 -3l-131 -29l-4 58l315 92l6 -8q-16 -43 -16 -140v-577l-4 -62l162 -10l-6 -49l-439 -8v53l86 4q46 3 60 21t14 51z" />
    <glyph glyph-name="two.dnom" unicode="&#xf657;" horiz-adv-x="731" 
d="M465 576q0 93 -40 126t-97 33q-117 0 -199 -76l-37 41q12 16 32 40t90 63q68 39 152 39t155 -54t71 -147q0 -94 -53 -178q-19 -33 -33 -55t-44 -59q-30 -36 -44 -53q-23 -28 -84 -89l-107 -107h240q57 0 80 24t41 87h53l-33 -211h-516l-14 49l37 33q107 94 133 124
q26 29 54 60t49 61q114 156 114 249z" />
    <glyph glyph-name="three.dnom" unicode="&#xf658;" horiz-adv-x="710" 
d="M291 -14q-76 0 -146 28t-69 70q0 47 57 47q35 0 84 -49t104 -49t106 63q50 63 50 136t-56 119t-155 46l-51 -4v68q88 4 151 61q62 57 62 121q0 100 -102 100q-92 0 -170 -53l-37 41q10 13 28 31t83 49t136 31t132 -44t61 -128q0 -54 -58 -112t-130 -103q106 -15 175 -73
t68 -138q0 -110 -101 -184t-222 -74z" />
    <glyph glyph-name="four.dnom" unicode="&#xf659;" horiz-adv-x="755" 
d="M418 319v345l-271 -345h271zM543 700v-381h139l-23 -79h-116v-121l-4 -62l108 -10l-4 -43l-317 -8v45q92 10 92 78v121h-350l-13 69l398 512l98 23q-8 -59 -8 -144z" />
    <glyph glyph-name="five.dnom" unicode="&#xf65a;" horiz-adv-x="671" 
d="M287 -14q-61 0 -124 25q-63 26 -63 73t58 47q30 0 70 -49t84 -49t96 60q51 59 51 123t-34 108t-107 77q-73 32 -158 37l-33 2l20 387h291l109 13l-21 -109h-317l-8 -184q90 -8 214 -54q73 -29 119 -89t46 -155t-86 -179t-207 -84z" />
    <glyph glyph-name="six.dnom" unicode="&#xf65b;" horiz-adv-x="765" 
d="M102 334q0 196 128 352t356 156l8 -56q-121 -6 -202 -78q-144 -129 -144 -360q0 -123 46 -215t110 -92q64 -1 99 65q36 66 36 155t-47 155t-140 47l-6 55q45 12 90 12q117 0 180 -72q64 -72 64 -180t-78 -200t-214 -92t-211 102t-75 246z" />
    <glyph glyph-name="seven.dnom" unicode="&#xf65c;" horiz-adv-x="696" 
d="M231 -14q-47 0 -47 41q0 35 15 51q133 172 250 452l67 166h-278q-56 0 -76 -11t-39 -64h-55l34 206h467l84 11l2 -47q-41 -49 -57 -86l-231 -519q-7 -12 -17 -38q-55 -136 -95 -156q-12 -6 -24 -6z" />
    <glyph glyph-name="eight.dnom" unicode="&#xf65d;" horiz-adv-x="737" 
d="M268 676q0 -82 135 -184q80 70 80 176q0 57 -30 88q-31 31 -80 30q-105 1 -105 -110zM359 41q56 0 97 38q40 38 40 91t-31 96t-57 65q-27 22 -91 68q-90 -74 -90 -192q0 -82 38 -124t94 -42zM633 209q0 -103 -77 -163q-76 -60 -186 -60t-187 50t-77 142t41 144t127 110
q-141 115 -141 238q0 76 69 124t175 48q107 0 167 -46t60 -110t-26 -107q-26 -45 -53 -65q-26 -20 -76 -55q59 -45 92 -74t63 -78t29 -98z" />
    <glyph glyph-name="nine.dnom" unicode="&#xf65e;" horiz-adv-x="761" 
d="M514 490q0 112 -46 204t-108 92t-96 -66q-35 -66 -35 -154t44 -152t135 -49l8 -56q-45 -12 -90 -12q-113 0 -176 74q-64 75 -64 181t78 198t212 92t209 -102t74 -246q0 -196 -128 -352t-355 -156l-8 55q121 6 202 79q144 130 144 370z" />
    <glyph glyph-name="zero.numr" unicode="&#xf661;" horiz-adv-x="806" 
d="M410 1380q148 0 217 -116t69 -295q0 -177 -78 -311t-224 -134t-216 119t-70 297t77 309t225 131zM401 580q152 0 152 372t-152 373q-152 -1 -152 -373t152 -372z" />
    <glyph glyph-name="one.numr" unicode="&#xf662;" horiz-adv-x="593" 
d="M258 664v548q0 59 -19 59q-9 -1 -24 -3l-131 -29l-4 57l315 93l6 -9q-16 -43 -16 -139v-577l-4 -62l162 -10l-6 -49l-439 -8v53l86 4q47 2 61 20q13 18 13 52z" />
    <glyph glyph-name="two.numr" unicode="&#xf663;" horiz-adv-x="731" 
d="M465 1114q0 94 -40 127t-97 33q-117 0 -199 -76l-37 41q12 16 32 40q20 25 90 63q68 38 152 38t155 -53t71 -153q0 -90 -68 -199q-32 -51 -62 -87t-44 -53t-54 -59t-86 -86l-51 -51h240q57 0 80 24t41 87h53l-33 -211h-516l-14 49l37 30q35 34 46 44t45 42t51 50
q17 20 45 51t49 60q114 155 114 249z" />
    <glyph glyph-name="three.numr" unicode="&#xf664;" horiz-adv-x="710" 
d="M291 524q-76 0 -146 28t-69 71q0 47 57 47q35 0 84 -49t104 -49t105 62q50 64 51 137q0 73 -56 119t-155 46l-51 -4v67q89 3 151 61t62 122q0 100 -102 100q-92 0 -170 -53l-37 41q10 12 28 30t83 50t136 30q71 0 132 -44t61 -128q0 -53 -58 -111t-130 -104
q106 -14 175 -72t68 -139q0 -110 -101 -184t-222 -74z" />
    <glyph glyph-name="four.numr" unicode="&#xf665;" horiz-adv-x="753" 
d="M418 858v344l-271 -344h271zM543 1239v-381h139l-23 -80h-116v-121l-4 -61l108 -10l-4 -43l-317 -8v45q92 10 92 77v121h-350l-13 70l398 512l98 22q-8 -59 -8 -143z" />
    <glyph glyph-name="five.numr" unicode="&#xf666;" horiz-adv-x="671" 
d="M287 524q-61 0 -124 26t-63 72t58 48q30 0 70 -49q84 -102 180 11q51 60 51 124t-34 107q-34 44 -106 77t-159 37l-33 2l20 387h291l109 12l-21 -108h-317l-8 -185q95 -8 191 -45q188 -72 188 -241q0 -107 -86 -191t-207 -84z" />
    <glyph glyph-name="six.numr" unicode="&#xf667;" horiz-adv-x="763" 
d="M100 872q0 197 128 353t356 155l8 -55q-121 -6 -202 -79q-144 -130 -144 -359q0 -125 46 -216t110 -91t99 66q36 66 36 154q1 88 -47 154t-140 47l-6 56q45 12 90 12q117 0 180 -73q64 -72 64 -180t-78 -200t-214 -92t-211 102t-75 246z" />
    <glyph glyph-name="seven.numr" unicode="&#xf668;" horiz-adv-x="700" 
d="M233 524q-47 0 -47 41q0 35 15 51q133 172 250 453l67 166h-278q-56 0 -76 -11t-39 -65h-55l34 207h467l84 10l2 -47q-41 -49 -57 -86l-231 -518q-6 -12 -33 -78q-49 -123 -103 -123z" />
    <glyph glyph-name="eight.numr" unicode="&#xf669;" horiz-adv-x="737" 
d="M268 1214q0 -84 135 -184q80 70 80 176q0 57 -30 88q-31 31 -80 31q-105 0 -105 -111zM227 745q0 -81 38 -123t94 -42t97 37q40 37 40 91t-31 97t-57 65t-91 68q-90 -74 -90 -193zM370 524q-110 0 -187 50t-77 142t41 145q41 52 127 110q-141 115 -141 237q0 76 69 124
t175 48q107 0 167 -46t60 -110t-26 -107q-26 -44 -53 -64q-26 -20 -76 -56q59 -45 92 -73t63 -78q30 -49 29 -98q0 -104 -77 -164q-76 -60 -186 -60z" />
    <glyph glyph-name="nine.numr" unicode="&#xf66a;" horiz-adv-x="759" 
d="M514 1029q0 114 -46 205t-108 91t-96 -67q-35 -68 -35 -154t44 -151t135 -50l8 -55q-45 -12 -90 -12q-113 0 -176 74q-64 74 -64 180t78 198t212 92t209 -102t74 -246q0 -196 -128 -352t-355 -156l-8 56q121 6 202 78q144 130 144 371z" />
    <glyph glyph-name="abreve.smcp" unicode="&#xf66d;" horiz-adv-x="1030" 
d="M520 1139q-112 0 -184 58t-72 146l10 74h64q0 -82 51 -124t130 -42t131 42t52 124h64q12 -45 12 -76q0 -88 -72 -145t-186 -57zM526 688q-18 41 -41 123l-168 -408h322zM14 0v51q86 10 113 84l354 844l70 16l323 -802q37 -100 72 -122q20 -13 28 -15t36 -7l-9 -49h-81
l-238 -6v61q38 1 60 17t8 55l-82 207h-361l-24 -17l-101 -245l144 -25l-7 -47h-305z" />
    <glyph glyph-name="amacron.smcp" unicode="&#xf66e;" horiz-adv-x="1030" 
d="M297 1225v110h446v-110h-446zM526 688q-18 41 -41 123l-168 -408h322zM14 0v51q86 10 113 84l354 844l70 16l323 -802q37 -100 72 -122q20 -13 28 -15t36 -7l-9 -49h-81l-238 -6v61q38 1 60 17t8 55l-82 207h-361l-24 -17l-101 -245l144 -25l-7 -47h-305z" />
    <glyph glyph-name="aogonek.smcp" unicode="&#xf66f;" horiz-adv-x="1030" 
d="M526 688q-18 41 -41 123l-168 -408h322zM14 0v51q86 10 113 84l354 844l70 16l323 -802q37 -100 72 -122q20 -13 28 -15t36 -7l-9 -49h-61q-57 -6 -133 -103t-76 -171t43 -104q43 -32 103 -32l43 4l12 -45q-100 -35 -174 -35t-125 50q-51 48 -51 112q0 105 89 197
t132 125l-121 -4v61q38 1 60 17t8 55l-82 207h-361l-24 -17l-101 -245l144 -25l-7 -47h-305z" />
    <glyph glyph-name="aeacute.smcp" unicode="&#xf670;" horiz-adv-x="1431" 
d="M690 522v393q-26 -14 -49 -51l-197 -342h246zM2 0v51q90 10 127 84l420 731q14 23 -3 40t-69 34v43h721l115 6l-49 -250h-64q4 111 -32 145t-134 34h-182l-21 -17v-379h271l12 94l70 15v-275h-86v99h-246l-21 -19v-291l-6 -77h230q96 0 132 30t95 148h61l-57 -246h-481
l-242 -6v57q59 4 93 37t34 84v283h-260l-33 -19l-209 -364l144 -25l-6 -47h-324zM750 1135l-23 61l352 209h11l59 -92v-49z" />
    <glyph glyph-name="cacute.smcp" unicode="&#xf671;" horiz-adv-x="1101" 
d="M446 1135l-22 61l352 209h10l60 -92v-49zM96 474q0 230 157 382t396 152q76 0 197 -20t147 -21l-49 -228h-61q0 203 -248 203q-183 0 -285 -114t-102 -301t122 -310t310 -123q86 0 165 27t113 53l35 27l21 -39q-88 -118 -253 -166q-69 -20 -143 -21q-206 1 -364 135
t-158 364z" />
    </font>
</defs>
</svg>
